<svg width="16" height="16" viewBox="0 0 16 16" fill="none" xmlns="http://www.w3.org/2000/svg">
<g id="7916_group">
<mask id="mask0_911_356" style="mask-type:alpha" maskUnits="userSpaceOnUse" x="0" y="0" width="16" height="16">
<rect id="Bounding box" width="16" height="16" fill="#D9D9D9"/>
</mask>
<g mask="url(#mask0_911_356)">
<path id="language" d="M8.00002 14.3334C7.13169 14.3334 6.31224 14.1669 5.54169 13.834C4.77113 13.5011 4.09913 13.0479 3.52569 12.4744C2.95213 11.9009 2.49891 11.2289 2.16602 10.4584C1.83313 9.6878 1.66669 8.86835 1.66669 8.00002C1.66669 7.1248 1.83313 6.30363 2.16602 5.53652C2.49891 4.76941 2.95213 4.09913 3.52569 3.52569C4.09913 2.95213 4.77113 2.49891 5.54169 2.16602C6.31224 1.83313 7.13169 1.66669 8.00002 1.66669C8.87524 1.66669 9.69641 1.83313 10.4635 2.16602C11.2306 2.49891 11.9009 2.95213 12.4744 3.52569C13.0479 4.09913 13.5011 4.76941 13.834 5.53652C14.1669 6.30363 14.3334 7.1248 14.3334 8.00002C14.3334 8.86835 14.1669 9.6878 13.834 10.4584C13.5011 11.2289 13.0479 11.9009 12.4744 12.4744C11.9009 13.0479 11.2306 13.5011 10.4635 13.834C9.69641 14.1669 8.87524 14.3334 8.00002 14.3334ZM8.00002 13.3192C8.34024 12.868 8.62658 12.4129 8.85902 11.9539C9.09146 11.4949 9.2808 10.9931 9.42702 10.4487H6.57302C6.7278 11.0102 6.9193 11.5205 7.14752 11.9795C7.37563 12.4385 7.6598 12.8851 8.00002 13.3192ZM6.70902 13.1359C6.45346 12.7692 6.22397 12.3524 6.02052 11.8854C5.81708 11.4182 5.65896 10.9394 5.54619 10.4487H3.28469C3.6368 11.141 4.10902 11.7227 4.70135 12.1937C5.29369 12.6646 5.96291 12.9786 6.70902 13.1359ZM9.29102 13.1359C10.0371 12.9786 10.7064 12.6646 11.2987 12.1937C11.891 11.7227 12.3632 11.141 12.7154 10.4487H10.4539C10.3196 10.9436 10.1508 11.4246 9.94735 11.8917C9.74402 12.3588 9.52524 12.7735 9.29102 13.1359ZM2.86535 9.44869H5.34369C5.3018 9.20091 5.27141 8.95796 5.25252 8.71985C5.23374 8.48185 5.22435 8.24191 5.22435 8.00002C5.22435 7.75813 5.23374 7.51819 5.25252 7.28019C5.27141 7.04208 5.3018 6.79913 5.34369 6.55135H2.86535C2.80124 6.7778 2.75213 7.01324 2.71802 7.25769C2.6838 7.50213 2.66669 7.74958 2.66669 8.00002C2.66669 8.25046 2.6838 8.49791 2.71802 8.74235C2.75213 8.9868 2.80124 9.22224 2.86535 9.44869ZM6.34352 9.44869H9.65652C9.6983 9.20091 9.72863 8.96013 9.74752 8.72635C9.7663 8.49258 9.77569 8.25046 9.77569 8.00002C9.77569 7.74958 9.7663 7.50746 9.74752 7.27369C9.72863 7.03991 9.6983 6.79913 9.65652 6.55135H6.34352C6.30174 6.79913 6.27141 7.03991 6.25252 7.27369C6.23374 7.50746 6.22435 7.74958 6.22435 8.00002C6.22435 8.25046 6.23374 8.49258 6.25252 8.72635C6.27141 8.96013 6.30174 9.20091 6.34352 9.44869ZM10.6564 9.44869H13.1347C13.1988 9.22224 13.2479 8.9868 13.282 8.74235C13.3162 8.49791 13.3334 8.25046 13.3334 8.00002C13.3334 7.74958 13.3162 7.50213 13.282 7.25769C13.2479 7.01324 13.1988 6.7778 13.1347 6.55135H10.6564C10.6982 6.79913 10.7286 7.04208 10.7475 7.28019C10.7663 7.51819 10.7757 7.75813 10.7757 8.00002C10.7757 8.24191 10.7663 8.48185 10.7475 8.71985C10.7286 8.95796 10.6982 9.20091 10.6564 9.44869ZM10.4539 5.55135H12.7154C12.359 4.85047 11.89 4.2688 11.3084 3.80635C10.7267 3.34402 10.0542 3.0278 9.29102 2.85769C9.54658 3.24569 9.77391 3.67008 9.97302 4.13085C10.1722 4.59152 10.3325 5.06502 10.4539 5.55135ZM6.57302 5.55135H9.42702C9.27224 4.99402 9.07758 4.48052 8.84302 4.01085C8.60835 3.54119 8.32735 3.09785 8.00002 2.68085C7.67269 3.09785 7.39169 3.54119 7.15702 4.01085C6.92247 4.48052 6.7278 4.99402 6.57302 5.55135ZM3.28469 5.55135H5.54619C5.66752 5.06502 5.8278 4.59152 6.02702 4.13085C6.22613 3.67008 6.45346 3.24569 6.70902 2.85769C5.94147 3.0278 5.26797 3.34513 4.68852 3.80969C4.10896 4.27413 3.64102 4.85469 3.28469 5.55135Z" fill="#888888"/>
</g>
</g>
</svg>
