<svg width="14" height="14" viewBox="0 0 14 14" fill="none" xmlns="http://www.w3.org/2000/svg">
<g id="7916_group">
<mask id="mask0_911_347" style="mask-type:alpha" maskUnits="userSpaceOnUse" x="0" y="0" width="14" height="14">
<rect id="Bounding box" width="14" height="14" fill="#D9D9D9"/>
</mask>
<g mask="url(#mask0_911_347)">
<path id="language" d="M6.99998 12.5417C6.24019 12.5417 5.52317 12.3961 4.84894 12.1048C4.1747 11.8135 3.5867 11.4169 3.08494 10.9151C2.58308 10.4133 2.18651 9.82532 1.89523 9.15108C1.60395 8.47685 1.45831 7.75983 1.45831 7.00004C1.45831 6.23422 1.60395 5.5157 1.89523 4.84448C2.18651 4.17326 2.58308 3.58676 3.08494 3.085C3.5867 2.58314 4.1747 2.18657 4.84894 1.89529C5.52317 1.60401 6.24019 1.45837 6.99998 1.45837C7.7658 1.45837 8.48432 1.60401 9.15554 1.89529C9.82677 2.18657 10.4133 2.58314 10.915 3.085C11.4169 3.58676 11.8135 4.17326 12.1047 4.84448C12.396 5.5157 12.5416 6.23422 12.5416 7.00004C12.5416 7.75983 12.396 8.47685 12.1047 9.15108C11.8135 9.82532 11.4169 10.4133 10.915 10.9151C10.4133 11.4169 9.82677 11.8135 9.15554 12.1048C8.48432 12.3961 7.7658 12.5417 6.99998 12.5417ZM6.99998 11.6543C7.29767 11.2595 7.54822 10.8613 7.75161 10.4596C7.95499 10.058 8.12066 9.61901 8.24861 9.14263H5.75136C5.88679 9.63399 6.05435 10.0805 6.25404 10.4821C6.45364 10.8837 6.70229 11.2745 6.99998 11.6543ZM5.87036 11.4939C5.64674 11.1731 5.44593 10.8083 5.26792 10.3997C5.0899 9.99099 4.95156 9.57196 4.85288 9.14263H2.87406C3.18216 9.74842 3.59535 10.2574 4.11365 10.6695C4.63194 11.0815 5.21751 11.3563 5.87036 11.4939ZM8.12961 11.4939C8.78245 11.3563 9.36802 11.0815 9.88631 10.6695C10.4046 10.2574 10.8178 9.74842 11.1259 9.14263H9.14708C9.02964 9.57565 8.88191 9.99653 8.7039 10.4052C8.52598 10.814 8.33455 11.1769 8.12961 11.4939ZM2.50715 8.26762H4.67569C4.63904 8.05082 4.61245 7.83824 4.59592 7.6299C4.57949 7.42165 4.57127 7.21169 4.57127 7.00004C4.57127 6.78839 4.57949 6.57844 4.59592 6.37019C4.61245 6.16184 4.63904 5.94926 4.67569 5.73246H2.50715C2.45105 5.9306 2.40808 6.13661 2.37823 6.3505C2.34829 6.56439 2.33331 6.7809 2.33331 7.00004C2.33331 7.21918 2.34829 7.43569 2.37823 7.64958C2.40808 7.86347 2.45105 8.06949 2.50715 8.26762ZM5.55054 8.26762H8.44942C8.48597 8.05082 8.51251 7.84014 8.52904 7.63558C8.54547 7.43103 8.55369 7.21918 8.55369 7.00004C8.55369 6.7809 8.54547 6.56905 8.52904 6.3645C8.51251 6.15994 8.48597 5.94926 8.44942 5.73246H5.55054C5.51399 5.94926 5.48745 6.15994 5.47092 6.3645C5.45449 6.56905 5.44627 6.7809 5.44627 7.00004C5.44627 7.21918 5.45449 7.43103 5.47092 7.63558C5.48745 7.84014 5.51399 8.05082 5.55054 8.26762ZM9.32427 8.26762H11.4928C11.5489 8.06949 11.5919 7.86347 11.6217 7.64958C11.6517 7.43569 11.6666 7.21918 11.6666 7.00004C11.6666 6.7809 11.6517 6.56439 11.6217 6.3505C11.5919 6.13661 11.5489 5.9306 11.4928 5.73246H9.32427C9.36092 5.94926 9.38751 6.16184 9.40404 6.37019C9.42047 6.57844 9.42869 6.78839 9.42869 7.00004C9.42869 7.21169 9.42047 7.42165 9.40404 7.6299C9.38751 7.83824 9.36092 8.05082 9.32427 8.26762ZM9.14708 4.85746H11.1259C10.8141 4.24418 10.4037 3.73522 9.89477 3.33058C9.38581 2.92604 8.79742 2.64935 8.12961 2.5005C8.35322 2.84 8.55213 3.21134 8.72636 3.61452C8.90067 4.0176 9.04092 4.43192 9.14708 4.85746ZM5.75136 4.85746H8.24861C8.11317 4.36979 7.94284 3.92048 7.73761 3.50952C7.53227 3.09856 7.2864 2.71064 6.99998 2.34577C6.71356 2.71064 6.46769 3.09856 6.26236 3.50952C6.05712 3.92048 5.88679 4.36979 5.75136 4.85746ZM2.87406 4.85746H4.85288C4.95904 4.43192 5.09929 4.0176 5.27361 3.61452C5.44783 3.21134 5.64674 2.84 5.87036 2.5005C5.19874 2.64935 4.60943 2.92701 4.10242 3.3335C3.59531 3.73989 3.18585 4.24787 2.87406 4.85746Z" fill="white"/>
</g>
</g>
</svg>
