<svg width="16" height="17" viewBox="0 0 16 17" fill="none" xmlns="http://www.w3.org/2000/svg">
<g id="close">
<mask id="mask0_282_12293" style="mask-type:alpha" maskUnits="userSpaceOnUse" x="0" y="0" width="16" height="17">
<rect id="Bounding box" y="0.5" width="16" height="16" fill="#D9D9D9"/>
</mask>
<g mask="url(#mask0_282_12293)">
<path id="close_2" d="M8.00001 9.20251L4.61801 12.5847C4.52567 12.6769 4.40962 12.7241 4.26984 12.7263C4.13017 12.7285 4.01201 12.6812 3.91534 12.5847C3.81879 12.488 3.77051 12.3709 3.77051 12.2333C3.77051 12.0958 3.81879 11.9787 3.91534 11.882L7.29751 8.50001L3.91534 5.11801C3.82312 5.02568 3.7759 4.90962 3.77367 4.76984C3.77156 4.63017 3.81879 4.51201 3.91534 4.41534C4.01201 4.31879 4.12912 4.27051 4.26667 4.27051C4.40423 4.27051 4.52134 4.31879 4.61801 4.41534L8.00001 7.79751L11.382 4.41534C11.4743 4.32312 11.5904 4.2759 11.7302 4.27367C11.8698 4.27156 11.988 4.31879 12.0847 4.41534C12.1812 4.51201 12.2295 4.62912 12.2295 4.76667C12.2295 4.90423 12.1812 5.02134 12.0847 5.11801L8.70251 8.50001L12.0847 11.882C12.1769 11.9743 12.2241 12.0904 12.2263 12.2302C12.2285 12.3698 12.1812 12.488 12.0847 12.5847C11.988 12.6812 11.8709 12.7295 11.7333 12.7295C11.5958 12.7295 11.4787 12.6812 11.382 12.5847L8.00001 9.20251Z" fill="#888888"/>
</g>
</g>
</svg>
