<svg width="14" height="15" viewBox="0 0 14 15" fill="none" xmlns="http://www.w3.org/2000/svg">
<g id="9542_group">
<mask id="mask0_510_23179" style="mask-type:alpha" maskUnits="userSpaceOnUse" x="0" y="0" width="14" height="15">
<rect id="Bounding box" y="0.5" width="14" height="14" fill="#D9D9D9"/>
</mask>
<g mask="url(#mask0_510_23179)">
<path id="delete" d="M4.26285 12.4583C3.97284 12.4583 3.72458 12.3551 3.51808 12.1486C3.31158 11.942 3.20833 11.6938 3.20833 11.4038V3.99997H3.0625C2.93854 3.99997 2.83466 3.95802 2.75085 3.87411C2.66695 3.79021 2.625 3.68628 2.625 3.56232C2.625 3.43827 2.66695 3.33438 2.75085 3.25068C2.83466 3.16687 2.93854 3.12497 3.0625 3.12497H5.25C5.25 2.98215 5.30031 2.86043 5.40094 2.7598C5.50147 2.65927 5.62314 2.60901 5.76596 2.60901H8.23404C8.37686 2.60901 8.49854 2.65927 8.59906 2.7598C8.69969 2.86043 8.75 2.98215 8.75 3.12497H10.9375C11.0615 3.12497 11.1653 3.16692 11.2491 3.25082C11.333 3.33472 11.375 3.43865 11.375 3.56261C11.375 3.68667 11.333 3.79055 11.2491 3.87426C11.1653 3.95806 11.0615 3.99997 10.9375 3.99997H10.7917V11.4038C10.7917 11.6938 10.6884 11.942 10.4819 12.1486C10.2754 12.3551 10.0272 12.4583 9.73715 12.4583H4.26285ZM9.91667 3.99997H4.08333V11.4038C4.08333 11.4562 4.10015 11.4992 4.13379 11.5328C4.16743 11.5665 4.21045 11.5833 4.26285 11.5833H9.73715C9.78955 11.5833 9.83257 11.5665 9.86621 11.5328C9.89985 11.4992 9.91667 11.4562 9.91667 11.4038V3.99997ZM5.92331 10.4166C6.04727 10.4166 6.15115 10.3747 6.23496 10.2909C6.31867 10.207 6.36052 10.1031 6.36052 9.97913V5.60413C6.36052 5.48018 6.31857 5.37624 6.23467 5.29234C6.15086 5.20854 6.04693 5.16663 5.92288 5.16663C5.79892 5.16663 5.69503 5.20854 5.61123 5.29234C5.52752 5.37624 5.48567 5.48018 5.48567 5.60413V9.97913C5.48567 10.1031 5.52757 10.207 5.61138 10.2909C5.69528 10.3747 5.79926 10.4166 5.92331 10.4166ZM8.07712 10.4166C8.20108 10.4166 8.30497 10.3747 8.38877 10.2909C8.47248 10.207 8.51433 10.1031 8.51433 9.97913V5.60413C8.51433 5.48018 8.47243 5.37624 8.38862 5.29234C8.30472 5.20854 8.20074 5.16663 8.07669 5.16663C7.95273 5.16663 7.84885 5.20854 7.76504 5.29234C7.68133 5.37624 7.63948 5.48018 7.63948 5.60413V9.97913C7.63948 10.1031 7.68143 10.207 7.76533 10.2909C7.84914 10.3747 7.95307 10.4166 8.07712 10.4166Z" fill="#888888"/>
</g>
</g>
</svg>
