<svg width="14" height="15" viewBox="0 0 14 15" fill="none" xmlns="http://www.w3.org/2000/svg">
<g id="9542_group">
<mask id="mask0_510_23172" style="mask-type:alpha" maskUnits="userSpaceOnUse" x="0" y="0" width="14" height="15">
<rect id="Bounding box" y="0.5" width="14" height="14" fill="#D9D9D9"/>
</mask>
<g mask="url(#mask0_510_23172)">
<path id="edit" d="M2.91699 11.5833H3.65287L9.62416 5.612L8.88828 4.87613L2.91699 10.8474V11.5833ZM2.56933 12.4583C2.4199 12.4583 2.29467 12.4077 2.19366 12.3066C2.09255 12.2056 2.04199 12.0804 2.04199 11.931V10.9203C2.04199 10.7781 2.06931 10.6425 2.12395 10.5136C2.17849 10.3847 2.25365 10.2723 2.34941 10.1766L9.73645 2.7929C9.82463 2.71279 9.922 2.6509 10.0286 2.60725C10.1352 2.5635 10.247 2.54163 10.364 2.54163C10.4809 2.54163 10.5942 2.56238 10.7038 2.6039C10.8134 2.64541 10.9105 2.71142 10.995 2.80194L11.7074 3.52323C11.7979 3.60772 11.8624 3.70494 11.9009 3.8149C11.9394 3.92486 11.9587 4.03481 11.9587 4.14477C11.9587 4.26212 11.9386 4.37407 11.8986 4.48063C11.8585 4.58728 11.7948 4.6847 11.7074 4.77288L4.3237 12.1509C4.22794 12.2466 4.1156 12.3218 3.98668 12.3763C3.85776 12.431 3.72219 12.4583 3.57995 12.4583H2.56933ZM9.2498 5.25048L8.88828 4.87613L9.62416 5.612L9.2498 5.25048Z" fill="#888888"/>
</g>
</g>
</svg>
