<svg width="96" height="96" viewBox="0 0 96 96" fill="none" xmlns="http://www.w3.org/2000/svg">
    <mask id="mask0_2387_12377" style="mask-type:alpha" maskUnits="userSpaceOnUse" x="0" y="0" width="96" height="96">
        <rect width="96" height="96" fill="#D9D9D9"/>
    </mask>
    <g mask="url(#mask0_2387_12377)">
        <path d="M32 77.538L32 38.438C32 36.6486 32.6333 35.1283 33.9 33.877C35.1666 32.6256 36.695 32 38.485 32L77.538 32C79.328 32 80.8526 32.6293 82.112 33.888C83.3706 35.1473 84 36.672 84 38.462V66.308L66.308 84H38.462C36.672 84 35.1473 83.3706 33.888 82.112C32.6293 80.8526 32 79.328 32 77.538ZM12.1 26.385C11.7513 24.595 12.095 22.9833 13.131 21.55C14.167 20.1166 15.5796 19.2256 17.369 18.877L55.846 12.1C57.636 11.7513 59.2476 12.095 60.681 13.131C62.1143 14.167 63.0053 15.5796 63.354 17.369L64.2 22.462H60.154L59.3 17.692C59.1973 17.128 58.8896 16.6793 58.377 16.346C57.8643 16.0126 57.3003 15.8973 56.685 16L18.077 22.854C17.359 22.9566 16.8206 23.29 16.462 23.854C16.1026 24.418 15.9743 25.059 16.077 25.777L22.462 61.838V69.585C21.5486 69.1383 20.773 68.505 20.135 67.685C19.4963 66.8643 19.077 65.9233 18.877 64.862L12.1 26.385ZM36 38.462V77.538C36 78.256 36.2306 78.846 36.692 79.308C37.154 79.7693 37.744 80 38.462 80H64V64H80V38.462C80 37.744 79.7693 37.154 79.308 36.692C78.846 36.2306 78.256 36 77.538 36H38.462C37.744 36 37.154 36.2306 36.692 36.692C36.2306 37.154 36 37.744 36 38.462Z" fill="white" fill-opacity="0.2"/>
    </g>
</svg>