<svg width="20" height="21" viewBox="0 0 20 21" fill="none" xmlns="http://www.w3.org/2000/svg">
<g id="19_group">
<mask id="mask0_186_69744" style="mask-type:alpha" maskUnits="userSpaceOnUse" x="0" y="0" width="20" height="21">
<rect id="Bounding box" y="0.5" width="20" height="20" fill="#D9D9D9"/>
</mask>
<g mask="url(#mask0_186_69744)">
<path id="more_horiz" d="M5.19287 11.75C4.84912 11.75 4.55489 11.6276 4.31016 11.3827C4.0653 11.138 3.94287 10.8438 3.94287 10.5C3.94287 10.1562 4.0653 9.86201 4.31016 9.61729C4.55489 9.37243 4.84912 9.25 5.19287 9.25C5.53662 9.25 5.83093 9.37243 6.07579 9.61729C6.32051 9.86201 6.44287 10.1562 6.44287 10.5C6.44287 10.8438 6.32051 11.138 6.07579 11.3827C5.83093 11.6276 5.53662 11.75 5.19287 11.75ZM10.0006 11.75C9.65683 11.75 9.36259 11.6276 9.11787 11.3827C8.87301 11.138 8.75058 10.8438 8.75058 10.5C8.75058 10.1562 8.87301 9.86201 9.11787 9.61729C9.36259 9.37243 9.65683 9.25 10.0006 9.25C10.3443 9.25 10.6386 9.37243 10.8833 9.61729C11.1281 9.86201 11.2506 10.1562 11.2506 10.5C11.2506 10.8438 11.1281 11.138 10.8833 11.3827C10.6386 11.6276 10.3443 11.75 10.0006 11.75ZM14.8083 11.75C14.4645 11.75 14.1702 11.6276 13.9254 11.3827C13.6806 11.138 13.5583 10.8438 13.5583 10.5C13.5583 10.1562 13.6806 9.86201 13.9254 9.61729C14.1702 9.37243 14.4645 9.25 14.8083 9.25C15.152 9.25 15.4463 9.37243 15.691 9.61729C15.9359 9.86201 16.0583 10.1562 16.0583 10.5C16.0583 10.8438 15.9359 11.138 15.691 11.3827C15.4463 11.6276 15.152 11.75 14.8083 11.75Z" fill="#888888"/>
</g>
</g>
</svg>
