<svg width="14" height="15" viewBox="0 0 14 15" fill="none" xmlns="http://www.w3.org/2000/svg">
<g id="9542_group">
<mask id="mask0_1521_327" style="mask-type:alpha" maskUnits="userSpaceOnUse" x="0" y="0" width="14" height="15">
<rect id="Bounding box" y="0.5" width="14" height="14" fill="#D9D9D9"/>
</mask>
<g mask="url(#mask0_1521_327)">
<path id="logout" d="M3.09621 12.4583C2.80153 12.4583 2.5521 12.3562 2.34794 12.1521C2.14377 11.9479 2.04169 11.6985 2.04169 11.4038V3.59618C2.04169 3.3015 2.14377 3.05207 2.34794 2.84791C2.5521 2.64374 2.80153 2.54166 3.09621 2.54166H6.56821C6.69226 2.54166 6.79619 2.58356 6.88 2.66736C6.96371 2.75107 7.00556 2.855 7.00556 2.97916C7.00556 3.10331 6.96371 3.20724 6.88 3.29095C6.79619 3.37475 6.69226 3.41666 6.56821 3.41666H3.09621C3.05129 3.41666 3.01017 3.43537 2.97283 3.4728C2.9354 3.51014 2.91669 3.55126 2.91669 3.59618V11.4038C2.91669 11.4487 2.9354 11.4898 2.97283 11.5272C3.01017 11.5646 3.05129 11.5833 3.09621 11.5833H6.56821C6.69226 11.5833 6.79619 11.6252 6.88 11.709C6.96371 11.7927 7.00556 11.8967 7.00556 12.0208C7.00556 12.145 6.96371 12.2489 6.88 12.3326C6.79619 12.4164 6.69226 12.4583 6.56821 12.4583H3.09621ZM10.2767 7.93749H5.74367C5.61951 7.93749 5.51553 7.89559 5.43173 7.81178C5.34802 7.72807 5.30617 7.62414 5.30617 7.49999C5.30617 7.37584 5.34802 7.27191 5.43173 7.1882C5.51553 7.10439 5.61951 7.06249 5.74367 7.06249H10.2767L9.155 5.94074C9.07421 5.85995 9.03289 5.76141 9.03104 5.64514C9.02919 5.52886 9.07051 5.42546 9.155 5.33495C9.23949 5.24443 9.34196 5.19767 9.46242 5.19466C9.58278 5.19174 9.68821 5.23549 9.77873 5.32591L11.5837 7.13089C11.6891 7.23637 11.7418 7.35941 11.7418 7.49999C11.7418 7.64057 11.6891 7.76361 11.5837 7.86909L9.77873 9.67407C9.69201 9.7608 9.589 9.80357 9.46971 9.80241C9.35042 9.80134 9.24551 9.75555 9.155 9.66503C9.07051 9.57452 9.02978 9.47059 9.03279 9.35324C9.03571 9.2358 9.07946 9.13483 9.16404 9.05034L10.2767 7.93749Z" fill="#888888"/>
</g>
</g>
</svg>
