<svg width="14" height="15" viewBox="0 0 14 15" fill="none" xmlns="http://www.w3.org/2000/svg">
<g id="9542_group">
<mask id="mask0_510_23165" style="mask-type:alpha" maskUnits="userSpaceOnUse" x="0" y="0" width="14" height="15">
<rect id="Bounding box" y="0.5" width="14" height="14" fill="#D9D9D9"/>
</mask>
<g mask="url(#mask0_510_23165)">
<path id="trending_flat" d="M10.8661 7.93744H2.47949C2.35534 7.93744 2.25141 7.89554 2.1677 7.81174C2.08389 7.72803 2.04199 7.6241 2.04199 7.49994C2.04199 7.37579 2.08389 7.27186 2.1677 7.18815C2.25141 7.10435 2.35534 7.06244 2.47949 7.06244H10.8661L9.81156 5.99903C9.72483 5.91221 9.68201 5.81066 9.68308 5.69438C9.68424 5.5781 9.73003 5.47471 9.82045 5.38419C9.91096 5.29971 10.0149 5.25596 10.1324 5.25294C10.2498 5.25003 10.3508 5.29378 10.4353 5.38419L12.1729 7.13084C12.2784 7.23633 12.3311 7.35936 12.3311 7.49994C12.3311 7.64053 12.2784 7.76356 12.1729 7.86905L10.4262 9.61569C10.3455 9.69639 10.2455 9.73771 10.1263 9.73965C10.007 9.7415 9.90207 9.70018 9.81156 9.61569C9.72104 9.52518 9.67579 9.4212 9.67579 9.30376C9.67579 9.18641 9.72104 9.08248 9.81156 8.99197L10.8661 7.93744Z" fill="#888888"/>
</g>
</g>
</svg>
