<svg width="16" height="17" viewBox="0 0 16 17" fill="none" xmlns="http://www.w3.org/2000/svg">
    <mask id="mask0_2478_28160" style="mask-type:alpha" maskUnits="userSpaceOnUse" x="0" y="0" width="16" height="17">
        <rect y="0.775635" width="16" height="16" fill="#D9D9D9"/>
    </mask>
    <g mask="url(#mask0_2478_28160)">
        <path d="M8.00147 11.1603C8.75691 11.1603 9.39853 10.8959 9.9263 10.3671C10.4541 9.83836 10.718 9.19625 10.718 8.4408C10.718 7.68536 10.4536 7.04375 9.9248 6.51597C9.39603 5.98819 8.75391 5.7243 7.99847 5.7243C7.24303 5.7243 6.60142 5.98869 6.07364 6.51747C5.54586 7.04625 5.28197 7.68836 5.28197 8.4438C5.28197 9.19925 5.54636 9.84086 6.07514 10.3686C6.60391 10.8964 7.24603 11.1603 8.00147 11.1603ZM7.99997 10.2423C7.49997 10.2423 7.07497 10.0673 6.72497 9.7173C6.37497 9.3673 6.19997 8.9423 6.19997 8.4423C6.19997 7.9423 6.37497 7.5173 6.72497 7.1673C7.07497 6.8173 7.49997 6.6423 7.99997 6.6423C8.49997 6.6423 8.92497 6.8173 9.27497 7.1673C9.62497 7.5173 9.79997 7.9423 9.79997 8.4423C9.79997 8.9423 9.62497 9.3673 9.27497 9.7173C8.92497 10.0673 8.49997 10.2423 7.99997 10.2423ZM7.99997 13.109C6.59653 13.109 5.31297 12.7346 4.1493 11.9858C2.98564 11.2371 2.0568 10.2521 1.3628 9.0308C1.30725 8.93502 1.26664 8.83852 1.24097 8.7413C1.21541 8.64408 1.20264 8.5443 1.20264 8.44197C1.20264 8.33963 1.21541 8.23997 1.24097 8.14297C1.26664 8.04597 1.30725 7.94958 1.3628 7.8538C2.0568 6.63247 2.98564 5.64747 4.1493 4.8988C5.31297 4.15002 6.59653 3.77563 7.99997 3.77563C9.40341 3.77563 10.687 4.15002 11.8506 4.8988C13.0143 5.64747 13.9431 6.63247 14.6371 7.8538C14.6927 7.94958 14.7333 8.04608 14.759 8.1433C14.7845 8.24052 14.7973 8.3403 14.7973 8.44263C14.7973 8.54497 14.7845 8.64463 14.759 8.74163C14.7333 8.83863 14.6927 8.93502 14.6371 9.0308C13.9431 10.2521 13.0143 11.2371 11.8506 11.9858C10.687 12.7346 9.40341 13.109 7.99997 13.109ZM7.99997 12.109C9.25553 12.109 10.4083 11.7784 11.4583 11.1173C12.5083 10.4562 13.3111 9.56452 13.8666 8.4423C13.3111 7.32008 12.5083 6.42841 11.4583 5.7673C10.4083 5.10619 9.25553 4.77563 7.99997 4.77563C6.74441 4.77563 5.59164 5.10619 4.54164 5.7673C3.49164 6.42841 2.68886 7.32008 2.1333 8.4423C2.68886 9.56452 3.49164 10.4562 4.54164 11.1173C5.59164 11.7784 6.74441 12.109 7.99997 12.109Z" fill="#888888"/>
    </g>
</svg>
