<svg width="16" height="16" viewBox="0 0 16 16" fill="none" xmlns="http://www.w3.org/2000/svg">
<g id="7916_group">
<mask id="mask0_186_69438" style="mask-type:alpha" maskUnits="userSpaceOnUse" x="0" y="0" width="16" height="16">
<rect id="Bounding box" width="16" height="16" fill="#D9D9D9"/>
</mask>
<g mask="url(#mask0_186_69438)">
<path id="search" d="M6.34636 10.4101C5.20792 10.4101 4.24381 10.0153 3.45403 9.22564C2.66436 8.43586 2.26953 7.47175 2.26953 6.3333C2.26953 5.19486 2.66436 4.23075 3.45403 3.44097C4.24381 2.6513 5.20792 2.25647 6.34636 2.25647C7.48481 2.25647 8.44892 2.6513 9.2387 3.44097C10.0284 4.23075 10.4232 5.19486 10.4232 6.3333C10.4232 6.80941 10.3433 7.26414 10.1835 7.69747C10.0236 8.1308 9.81036 8.50769 9.5437 8.82814L13.3797 12.6641C13.472 12.7564 13.5193 12.8724 13.5214 13.0121C13.5235 13.1519 13.4763 13.2701 13.3797 13.3666C13.2831 13.4632 13.166 13.5115 13.0284 13.5115C12.8908 13.5115 12.7738 13.4632 12.6772 13.3666L8.8412 9.53064C8.50786 9.80586 8.12453 10.0212 7.6912 10.1768C7.25786 10.3324 6.80959 10.4101 6.34636 10.4101ZM6.34636 9.4103C7.20536 9.4103 7.93292 9.11219 8.52903 8.51597C9.12525 7.91986 9.42336 7.1923 9.42336 6.3333C9.42336 5.4743 9.12525 4.74675 8.52903 4.15064C7.93292 3.55441 7.20536 3.2563 6.34636 3.2563C5.48736 3.2563 4.75981 3.55441 4.1637 4.15064C3.56748 4.74675 3.26936 5.4743 3.26936 6.3333C3.26936 7.1923 3.56748 7.91986 4.1637 8.51597C4.75981 9.11219 5.48736 9.4103 6.34636 9.4103Z" fill="#888888"/>
</g>
</g>
</svg>
