<svg width="16" height="17" viewBox="0 0 16 17" fill="none" xmlns="http://www.w3.org/2000/svg">
    <mask id="mask0_1725_1655" style="mask-type:alpha" maskUnits="userSpaceOnUse" x="0" y="0" width="16" height="17">
        <rect y="0.75" width="16" height="16" fill="#D9D9D9"/>
    </mask>
    <g mask="url(#mask0_1725_1655)">
        <path d="M7.5 8.8935L6.6115 9.77183C6.52028 9.86406 6.40622 9.91017 6.26933 9.91017C6.13256 9.91017 6.01456 9.86061 5.91533 9.7615C5.81878 9.66917 5.77156 9.55211 5.77367 9.41033C5.77589 9.26845 5.82311 9.15133 5.91533 9.059L7.57817 7.39617C7.69872 7.27561 7.83933 7.21533 8 7.21533C8.16067 7.21533 8.30128 7.27561 8.42183 7.39617L10.0847 9.059C10.1769 9.15133 10.2258 9.2665 10.2313 9.4045C10.2369 9.5425 10.188 9.66167 10.0847 9.762C9.99233 9.854 9.87694 9.90061 9.7385 9.90183C9.60006 9.90317 9.48122 9.85767 9.382 9.76533L8.5 8.8935V12.5448C8.5 12.5962 8.52139 12.6432 8.56417 12.6858C8.60683 12.7286 8.65383 12.75 8.70517 12.75H12.3333C12.8 12.75 13.1944 12.5889 13.5167 12.2667C13.8389 11.9444 14 11.55 14 11.0833C14 10.6167 13.8389 10.2222 13.5167 9.9C13.1944 9.57778 12.8 9.41667 12.3333 9.41667H11.3333V8.08333C11.3333 7.16111 11.0083 6.375 10.3583 5.725C9.70833 5.075 8.92222 4.75 8 4.75C7.07778 4.75 6.29167 5.075 5.64167 5.725C4.99167 6.375 4.66667 7.16111 4.66667 8.08333H4.3205C3.68883 8.08333 3.14417 8.31111 2.6865 8.76667C2.22883 9.22222 2 9.77222 2 10.4167C2 11.0611 2.22778 11.6111 2.68333 12.0667C3.13889 12.5222 3.68889 12.75 4.33333 12.75H5.5C5.64167 12.75 5.76044 12.7979 5.85633 12.8938C5.95211 12.9897 6 13.1085 6 13.2502C6 13.3919 5.95211 13.5107 5.85633 13.6063C5.76044 13.7021 5.64167 13.75 5.5 13.75H4.33333C3.412 13.75 2.62611 13.4304 1.97567 12.7912C1.32522 12.1519 1 11.3707 1 10.4475C1 9.61928 1.26644 8.89083 1.79933 8.26217C2.33222 7.6335 2.99311 7.26106 3.782 7.14483C3.99567 6.14828 4.49678 5.33333 5.28533 4.7C6.07378 4.06667 6.97867 3.75 8 3.75C9.20711 3.75 10.2311 4.17044 11.072 5.01133C11.9129 5.85222 12.3333 6.87622 12.3333 8.08333V8.41667H12.5385C13.2411 8.47133 13.8269 8.75383 14.2962 9.26417C14.7654 9.77439 15 10.3808 15 11.0833C15 11.8269 14.7436 12.4572 14.2308 12.9743C13.7179 13.4914 13.0897 13.75 12.3462 13.75H8.70517C8.36839 13.75 8.08333 13.6333 7.85 13.4C7.61667 13.1667 7.5 12.8816 7.5 12.5448V8.8935Z" fill="#888888"/>
    </g>
</svg>
