<svg width="20" height="20" viewBox="0 0 20 20" fill="none" xmlns="http://www.w3.org/2000/svg">
<g id="13_group">
<mask id="mask0_146_31661" style="mask-type:alpha" maskUnits="userSpaceOnUse" x="0" y="0" width="20" height="20">
<rect id="Bounding box" width="20" height="20" fill="#D9D9D9"/>
</mask>
<g mask="url(#mask0_146_31661)">
<path id="space_dashboard" d="M4.42296 17.0833C4.00866 17.0833 3.654 16.9358 3.359 16.6408C3.064 16.3458 2.9165 15.9912 2.9165 15.5769V4.42314C2.9165 4.00883 3.064 3.65418 3.359 3.35918C3.654 3.06418 4.00866 2.91668 4.42296 2.91668H7.86838C8.28268 2.91668 8.63734 3.06418 8.93234 3.35918C9.22734 3.65418 9.37484 4.00883 9.37484 4.42314V15.5769C9.37484 15.9912 9.22734 16.3458 8.93234 16.6408C8.63734 16.9358 8.28268 17.0833 7.86838 17.0833H4.42296ZM12.1313 17.0833C11.717 17.0833 11.3623 16.9358 11.0673 16.6408C10.7723 16.3458 10.6248 15.9912 10.6248 15.5769V11.5065C10.6248 11.0922 10.7723 10.7375 11.0673 10.4425C11.3623 10.1475 11.717 10 12.1313 10H15.5767C15.991 10 16.3457 10.1475 16.6407 10.4425C16.9357 10.7375 17.0832 11.0922 17.0832 11.5065V15.5769C17.0832 15.9912 16.9357 16.3458 16.6407 16.6408C16.3457 16.9358 15.991 17.0833 15.5767 17.0833H12.1313ZM12.1313 8.75001C11.717 8.75001 11.3623 8.60251 11.0673 8.30751C10.7723 8.01251 10.6248 7.65786 10.6248 7.24355V4.42314C10.6248 4.00883 10.7723 3.65418 11.0673 3.35918C11.3623 3.06418 11.717 2.91668 12.1313 2.91668H15.5767C15.991 2.91668 16.3457 3.06418 16.6407 3.35918C16.9357 3.65418 17.0832 4.00883 17.0832 4.42314V7.24355C17.0832 7.65786 16.9357 8.01251 16.6407 8.30751C16.3457 8.60251 15.991 8.75001 15.5767 8.75001H12.1313Z" fill="white"/>
</g>
</g>
</svg>
