<svg width="20" height="20" viewBox="0 0 20 20" fill="none" xmlns="http://www.w3.org/2000/svg">
<g id="dashboard">
<mask id="mask0_146_25926" style="mask-type:alpha" maskUnits="userSpaceOnUse" x="0" y="0" width="20" height="20">
<rect id="Bounding box" width="20" height="20" fill="#D9D9D9"/>
</mask>
<g mask="url(#mask0_146_25926)">
<path id="dashboard_2" d="M11.7939 7.49999C11.5797 7.49999 11.4008 7.42812 11.2572 7.28437C11.1134 7.14075 11.0416 6.96027 11.0416 6.74291V3.67395C11.0416 3.45645 11.114 3.27589 11.2589 3.13228C11.4037 2.98853 11.5832 2.91666 11.7972 2.91666H16.3309C16.5451 2.91666 16.724 2.98853 16.8676 3.13228C17.0114 3.27589 17.0832 3.45645 17.0832 3.67395V6.74291C17.0832 6.96027 17.0108 7.14075 16.8659 7.28437C16.7211 7.42812 16.5416 7.49999 16.3276 7.49999H11.7939ZM3.66886 10.4167C3.45469 10.4167 3.2758 10.3448 3.13219 10.201C2.98844 10.0573 2.91656 9.87916 2.91656 9.66666V3.66645C2.91656 3.45395 2.989 3.27589 3.13386 3.13228C3.27872 2.98853 3.45816 2.91666 3.67219 2.91666H8.20594C8.42011 2.91666 8.599 2.98853 8.74261 3.13228C8.88636 3.27603 8.95823 3.45416 8.95823 3.66666V9.66686C8.95823 9.87936 8.8858 10.0574 8.74094 10.201C8.59608 10.3448 8.41663 10.4167 8.20261 10.4167H3.66886ZM11.7939 17.0833C11.5797 17.0833 11.4008 17.0114 11.2572 16.8677C11.1134 16.7239 11.0416 16.5458 11.0416 16.3333V10.3331C11.0416 10.1206 11.114 9.94256 11.2589 9.79895C11.4037 9.6552 11.5832 9.58332 11.7972 9.58332H16.3309C16.5451 9.58332 16.724 9.6552 16.8676 9.79895C17.0114 9.9427 17.0832 10.1208 17.0832 10.3333V16.3335C17.0832 16.546 17.0108 16.7241 16.8659 16.8677C16.7211 17.0114 16.5416 17.0833 16.3276 17.0833H11.7939ZM3.66886 17.0833C3.45469 17.0833 3.2758 17.0114 3.13219 16.8677C2.98844 16.7241 2.91656 16.5435 2.91656 16.326V13.2571C2.91656 13.0397 2.989 12.8592 3.13386 12.7156C3.27872 12.5719 3.45816 12.5 3.67219 12.5H8.20594C8.42011 12.5 8.599 12.5719 8.74261 12.7156C8.88636 12.8592 8.95823 13.0397 8.95823 13.2571V16.326C8.95823 16.5435 8.8858 16.7241 8.74094 16.8677C8.59608 17.0114 8.41663 17.0833 8.20261 17.0833H3.66886Z" fill="white"/>
</g>
</g>
</svg>
