<svg width="20" height="20" viewBox="0 0 20 20" fill="none" xmlns="http://www.w3.org/2000/svg">
<g id="19_group">
<mask id="mask0_146_27471" style="mask-type:alpha" maskUnits="userSpaceOnUse" x="0" y="0" width="20" height="20">
<rect id="Bounding box" width="20" height="20" fill="#D9D9D9"/>
</mask>
<g mask="url(#mask0_146_27471)">
<path id="code" d="M3.72425 10.0129L7.10571 13.3942C7.22099 13.5096 7.28002 13.6547 7.28279 13.8294C7.28543 14.004 7.2264 14.1517 7.10571 14.2725C6.98488 14.3932 6.83849 14.4536 6.66654 14.4536C6.4946 14.4536 6.34821 14.3932 6.22738 14.2725L2.48217 10.5273C2.40425 10.4493 2.34925 10.367 2.31717 10.2804C2.28508 10.1939 2.26904 10.1004 2.26904 10C2.26904 9.8996 2.28508 9.80613 2.31717 9.7196C2.34925 9.63307 2.40425 9.55078 2.48217 9.47272L6.22738 5.72751C6.3514 5.60363 6.49863 5.54036 6.66904 5.53772C6.83932 5.53508 6.98911 5.59835 7.11842 5.72751C7.24772 5.85682 7.31238 6.00536 7.31238 6.17314C7.31238 6.34078 7.24772 6.48925 7.11842 6.61856L3.72425 10.0129ZM16.2755 9.9871L12.894 6.60585C12.7788 6.49043 12.7197 6.34536 12.717 6.17064C12.7143 5.99606 12.7733 5.84835 12.894 5.72751C13.0149 5.60682 13.1613 5.54647 13.3332 5.54647C13.5052 5.54647 13.6515 5.60682 13.7724 5.72751L17.5176 9.47272C17.5955 9.55078 17.6505 9.63307 17.6826 9.7196C17.7147 9.80613 17.7307 9.8996 17.7307 10C17.7307 10.1004 17.7147 10.1939 17.6826 10.2804C17.6505 10.367 17.5955 10.4493 17.5176 10.5273L13.7724 14.2725C13.6483 14.3964 13.5033 14.4575 13.3372 14.4558C13.1711 14.4543 13.0233 14.3889 12.894 14.2596C12.7649 14.1303 12.7003 13.9818 12.7003 13.8142C12.7003 13.6464 12.7649 13.4979 12.894 13.3686L16.2755 9.9871Z" fill="white"/>
</g>
</g>
</svg>
