<svg width="16" height="16" viewBox="0 0 16 16" fill="none" xmlns="http://www.w3.org/2000/svg">
<g id="19_group">
<mask id="mask0_186_69753" style="mask-type:alpha" maskUnits="userSpaceOnUse" x="0" y="0" width="16" height="16">
<rect id="Bounding box" width="16" height="16" fill="#D9D9D9"/>
</mask>
<g mask="url(#mask0_186_69753)">
<path id="note_add" d="M7.5 9.83335V11.3334C7.5 11.475 7.54794 11.5937 7.64383 11.6895C7.73972 11.7854 7.8585 11.8334 8.00017 11.8334C8.14194 11.8334 8.26067 11.7854 8.35633 11.6895C8.45211 11.5937 8.5 11.475 8.5 11.3334V9.83335H10C10.1417 9.83335 10.2604 9.78541 10.3562 9.68952C10.4521 9.59363 10.5 9.47485 10.5 9.33319C10.5 9.19141 10.4521 9.07269 10.3562 8.97702C10.2604 8.88124 10.1417 8.83335 10 8.83335H8.5V7.33335C8.5 7.19169 8.45206 7.07297 8.35617 6.97719C8.26028 6.8813 8.1415 6.83335 7.99983 6.83335C7.85806 6.83335 7.73933 6.8813 7.64367 6.97719C7.54789 7.07297 7.5 7.19169 7.5 7.33335V8.83335H6C5.85833 8.83335 5.73961 8.8813 5.64383 8.97719C5.54794 9.07308 5.5 9.19185 5.5 9.33352C5.5 9.4753 5.54794 9.59402 5.64383 9.68969C5.73961 9.78547 5.85833 9.83335 6 9.83335H7.5ZM4.20517 14.3334C3.86839 14.3334 3.58333 14.2167 3.35 13.9834C3.11667 13.75 3 13.465 3 13.1282V2.87185C3 2.53508 3.11667 2.25002 3.35 2.01669C3.58333 1.78335 3.86839 1.66669 4.20517 1.66669H9.00133C9.16389 1.66669 9.31883 1.69791 9.46617 1.76035C9.6135 1.82269 9.74189 1.90858 9.85133 2.01802L12.6487 4.81535C12.7581 4.9248 12.844 5.05319 12.9063 5.20052C12.9688 5.34785 13 5.5028 13 5.66535V13.1282C13 13.465 12.8833 13.75 12.65 13.9834C12.4167 14.2167 12.1316 14.3334 11.7948 14.3334H4.20517ZM9 5.06669V2.66669H4.20517C4.15383 2.66669 4.10683 2.68808 4.06417 2.73085C4.02139 2.77352 4 2.82052 4 2.87185V13.1282C4 13.1795 4.02139 13.2265 4.06417 13.2692C4.10683 13.312 4.15383 13.3334 4.20517 13.3334H11.7948C11.8462 13.3334 11.8932 13.312 11.9358 13.2692C11.9786 13.2265 12 13.1795 12 13.1282V5.66669H9.59983C9.42983 5.66669 9.28739 5.60919 9.1725 5.49419C9.0575 5.37919 9 5.23669 9 5.06669Z" fill="white"/>
</g>
</g>
</svg>
