<svg width="16" height="16" viewBox="0 0 16 16" fill="none" xmlns="http://www.w3.org/2000/svg">
<g id="19_group">
<mask id="mask0_186_69330" style="mask-type:alpha" maskUnits="userSpaceOnUse" x="0" y="0" width="16" height="16">
<rect id="Bounding box" width="16" height="16" fill="#D9D9D9"/>
</mask>
<g mask="url(#mask0_186_69330)">
<path id="all_match" d="M3.6142 12.3333C3.37209 12.3333 3.19553 12.2283 3.08453 12.0185C2.97353 11.8087 2.98337 11.6031 3.11403 11.4016L5.22436 8.10896C5.24581 8.07474 5.25653 8.0384 5.25653 7.99996C5.25653 7.96151 5.24581 7.92518 5.22436 7.89096L3.11403 4.59829C2.98337 4.39685 2.97353 4.19124 3.08453 3.98146C3.19553 3.77157 3.37209 3.66663 3.6142 3.66663H9.69236C9.92392 3.66663 10.141 3.71879 10.3435 3.82313C10.5461 3.92735 10.7118 4.07296 10.8405 4.25996L12.6667 6.83713C12.759 6.97479 12.7881 7.10457 12.7539 7.22646C12.7196 7.34846 12.6513 7.44735 12.5487 7.52313C12.4453 7.59746 12.328 7.63257 12.1969 7.62846C12.0658 7.62424 11.951 7.5519 11.8525 7.41146L10.0129 4.83329C9.97442 4.78207 9.92953 4.74146 9.8782 4.71146C9.82698 4.68157 9.76503 4.66663 9.69236 4.66663H4.33087L6.0757 7.33713C6.20725 7.53801 6.27303 7.75896 6.27303 7.99996C6.27303 8.24096 6.20725 8.4619 6.0757 8.66279L4.33087 11.3333H7.08853C7.2302 11.3333 7.34892 11.3812 7.4447 11.4771C7.54059 11.573 7.58853 11.6918 7.58853 11.8335C7.58853 11.9752 7.54059 12.094 7.4447 12.1896C7.34892 12.2854 7.2302 12.3333 7.08853 12.3333H3.6142ZM11.5487 12.2371L11.1885 11.877C11.11 11.7983 11.0162 11.759 10.9072 11.759C10.7982 11.759 10.7044 11.7984 10.6257 11.8773C10.547 11.9563 10.5077 12.0484 10.5077 12.1536C10.5077 12.2588 10.547 12.3508 10.6257 12.4295L11.2372 13.041C11.3268 13.1324 11.4312 13.1781 11.5505 13.1781C11.6699 13.1781 11.7753 13.1324 11.8667 13.041L13.3744 11.5603C13.453 11.4816 13.4934 11.3888 13.4955 11.282C13.4976 11.1752 13.4573 11.0803 13.3744 10.9975C13.2947 10.9188 13.1996 10.8795 13.089 10.8795C12.9784 10.8795 12.8838 10.9188 12.8052 10.9975L11.5487 12.2371ZM12 15.0385C11.1676 15.0385 10.4595 14.7466 9.8757 14.1628C9.29192 13.579 9.00003 12.8709 9.00003 12.0385C9.00003 11.206 9.29192 10.4979 9.8757 9.91413C10.4595 9.33035 11.1676 9.03846 12 9.03846C12.8325 9.03846 13.5406 9.33035 14.1244 9.91413C14.7081 10.4979 15 11.206 15 12.0385C15 12.8709 14.7081 13.579 14.1244 14.1628C13.5406 14.7466 12.8325 15.0385 12 15.0385Z" fill="white"/>
</g>
</g>
</svg>
