<svg width="16" height="16" viewBox="0 0 16 16" fill="none" xmlns="http://www.w3.org/2000/svg">
<g id="19_group">
<mask id="mask0_186_68671" style="mask-type:alpha" maskUnits="userSpaceOnUse" x="0" y="0" width="16" height="16">
<rect id="Bounding box" width="16" height="16" fill="#D9D9D9"/>
</mask>
<g mask="url(#mask0_186_68671)">
<path id="info" d="M8.00019 11.1666C8.14197 11.1666 8.26069 11.1187 8.35635 11.0228C8.45213 10.927 8.50002 10.8083 8.50002 10.6666V7.83329C8.50002 7.69163 8.45208 7.57285 8.35619 7.47696C8.2603 7.38118 8.14152 7.33329 7.99985 7.33329C7.85808 7.33329 7.73935 7.38118 7.64369 7.47696C7.54791 7.57285 7.50002 7.69163 7.50002 7.83329V10.6666C7.50002 10.8083 7.54797 10.927 7.64385 11.0228C7.73974 11.1187 7.85852 11.1666 8.00019 11.1666ZM8.00002 6.19229C8.15258 6.19229 8.28046 6.14068 8.38369 6.03746C8.48691 5.93424 8.53852 5.80635 8.53852 5.65379C8.53852 5.50124 8.48691 5.37335 8.38369 5.27013C8.28046 5.16702 8.15258 5.11546 8.00002 5.11546C7.84747 5.11546 7.71958 5.16702 7.61635 5.27013C7.51313 5.37335 7.46152 5.50124 7.46152 5.65379C7.46152 5.80635 7.51313 5.93424 7.61635 6.03746C7.71958 6.14068 7.84747 6.19229 8.00002 6.19229ZM8.00119 14.3333C7.12519 14.3333 6.3018 14.1671 5.53102 13.8346C4.76024 13.5022 4.0898 13.051 3.51969 12.4811C2.94958 11.9112 2.49819 11.2411 2.16552 10.4706C1.83296 9.70018 1.66669 8.87702 1.66669 8.00113C1.66669 7.12513 1.83291 6.30174 2.16535 5.53096C2.4978 4.76018 2.94896 4.08974 3.51885 3.51963C4.08874 2.94951 4.75891 2.49813 5.52935 2.16546C6.2998 1.8329 7.12296 1.66663 7.99885 1.66663C8.87485 1.66663 9.69824 1.83285 10.469 2.16529C11.2398 2.49774 11.9102 2.9489 12.4804 3.51879C13.0505 4.08868 13.5019 4.75885 13.8345 5.52929C14.1671 6.29974 14.3334 7.1229 14.3334 7.99879C14.3334 8.87479 14.1671 9.69818 13.8347 10.469C13.5022 11.2397 13.0511 11.9102 12.4812 12.4803C11.9113 13.0504 11.2411 13.5018 10.4707 13.8345C9.70024 14.167 8.87708 14.3333 8.00119 14.3333ZM8.00002 13.3333C9.48891 13.3333 10.75 12.8166 11.7834 11.7833C12.8167 10.75 13.3334 9.48885 13.3334 7.99996C13.3334 6.51107 12.8167 5.24996 11.7834 4.21663C10.75 3.18329 9.48891 2.66663 8.00002 2.66663C6.51113 2.66663 5.25002 3.18329 4.21669 4.21663C3.18335 5.24996 2.66669 6.51107 2.66669 7.99996C2.66669 9.48885 3.18335 10.75 4.21669 11.7833C5.25002 12.8166 6.51113 13.3333 8.00002 13.3333Z" fill="white"/>
</g>
</g>
</svg>
