<svg width="16" height="16" viewBox="0 0 16 16" fill="none" xmlns="http://www.w3.org/2000/svg">
<g id="7916_group">
<mask id="mask0_2824_1616" style="mask-type:alpha" maskUnits="userSpaceOnUse" x="0" y="0" width="16" height="16">
<rect id="Bounding box" width="16" height="16" fill="#D9D9D9"/>
</mask>
<g mask="url(#mask0_2824_1616)">
<path id="assignment" d="M3.5385 13.6667C3.20705 13.6667 2.92333 13.5487 2.68733 13.3127C2.45133 13.0767 2.33333 12.7929 2.33333 12.4615V3.5385C2.33333 3.20706 2.45133 2.92333 2.68733 2.68733C2.92333 2.45133 3.20705 2.33333 3.5385 2.33333H6.50517C6.54705 1.96322 6.70861 1.6485 6.98983 1.38917C7.27094 1.12972 7.60872 1 8.00317 1C8.39761 1 8.73544 1.12972 9.01667 1.38917C9.29789 1.6485 9.45728 1.96322 9.49483 2.33333H12.4615C12.7929 2.33333 13.0767 2.45133 13.3127 2.68733C13.5487 2.92333 13.6667 3.20706 13.6667 3.5385V12.4615C13.6667 12.7929 13.5487 13.0767 13.3127 13.3127C13.0767 13.5487 12.7929 13.6667 12.4615 13.6667H3.5385ZM3.5385 12.6667H12.4615C12.5128 12.6667 12.5598 12.6453 12.6025 12.6025C12.6453 12.5598 12.6667 12.5128 12.6667 12.4615V3.5385C12.6667 3.48717 12.6453 3.44017 12.6025 3.3975C12.5598 3.35472 12.5128 3.33333 12.4615 3.33333H3.5385C3.48717 3.33333 3.44017 3.35472 3.3975 3.3975C3.35472 3.44017 3.33333 3.48717 3.33333 3.5385V12.4615C3.33333 12.5128 3.35472 12.5598 3.3975 12.6025C3.44017 12.6453 3.48717 12.6667 3.5385 12.6667ZM5.33333 11.0897H8.66667C8.80833 11.0897 8.92705 11.0417 9.02283 10.9458C9.11872 10.8501 9.16667 10.7313 9.16667 10.5895C9.16667 10.4478 9.11872 10.3291 9.02283 10.2333C8.92705 10.1377 8.80833 10.0898 8.66667 10.0898H5.33333C5.19167 10.0898 5.07294 10.1377 4.97717 10.2335C4.88128 10.3294 4.83333 10.4482 4.83333 10.59C4.83333 10.7317 4.88128 10.8504 4.97717 10.9462C5.07294 11.0418 5.19167 11.0897 5.33333 11.0897ZM5.33333 8.5H10.6667C10.8083 8.5 10.9271 8.45206 11.0228 8.35617C11.1187 8.26028 11.1667 8.1415 11.1667 7.99983C11.1667 7.85806 11.1187 7.73933 11.0228 7.64367C10.9271 7.54789 10.8083 7.5 10.6667 7.5H5.33333C5.19167 7.5 5.07294 7.54795 4.97717 7.64383C4.88128 7.73972 4.83333 7.8585 4.83333 8.00017C4.83333 8.14195 4.88128 8.26067 4.97717 8.35633C5.07294 8.45211 5.19167 8.5 5.33333 8.5ZM5.33333 5.91017H10.6667C10.8083 5.91017 10.9271 5.86228 11.0228 5.7665C11.1187 5.67061 11.1667 5.55178 11.1667 5.41C11.1667 5.26833 11.1187 5.14961 11.0228 5.05383C10.9271 4.95817 10.8083 4.91033 10.6667 4.91033H5.33333C5.19167 4.91033 5.07294 4.95828 4.97717 5.05417C4.88128 5.14994 4.83333 5.26872 4.83333 5.4105C4.83333 5.55217 4.88128 5.67089 4.97717 5.76667C5.07294 5.86233 5.19167 5.91017 5.33333 5.91017ZM8 2.8975C8.14444 2.8975 8.26389 2.85028 8.35833 2.75583C8.45278 2.66139 8.5 2.54194 8.5 2.3975C8.5 2.25306 8.45278 2.13361 8.35833 2.03917C8.26389 1.94472 8.14444 1.8975 8 1.8975C7.85555 1.8975 7.73611 1.94472 7.64166 2.03917C7.54722 2.13361 7.5 2.25306 7.5 2.3975C7.5 2.54194 7.54722 2.66139 7.64166 2.75583C7.73611 2.85028 7.85555 2.8975 8 2.8975Z" fill="white"/>
</g>
</g>
</svg>
