<svg width="16" height="16" viewBox="0 0 16 16" fill="none" xmlns="http://www.w3.org/2000/svg">
<g id="7916_group">
<mask id="mask0_2824_1335" style="mask-type:alpha" maskUnits="userSpaceOnUse" x="0" y="0" width="16" height="16">
<rect id="Bounding box" width="16" height="16" fill="#D9D9D9"/>
</mask>
<g mask="url(#mask0_2824_1335)">
<path id="terminal" d="M2.87179 13C2.53501 13 2.24996 12.8833 2.01663 12.65C1.78329 12.4167 1.66663 12.1316 1.66663 11.7948V4.20517C1.66663 3.86839 1.78329 3.58333 2.01663 3.35C2.24996 3.11667 2.53501 3 2.87179 3H13.1281C13.4649 3 13.75 3.11667 13.9833 3.35C14.2166 3.58333 14.3333 3.86839 14.3333 4.20517V11.7948C14.3333 12.1316 14.2166 12.4167 13.9833 12.65C13.75 12.8833 13.4649 13 13.1281 13H2.87179ZM2.87179 12H13.1281C13.1795 12 13.2265 11.9786 13.2691 11.9358C13.3119 11.8932 13.3333 11.8462 13.3333 11.7948V5.33333H2.66663V11.7948C2.66663 11.8462 2.68801 11.8932 2.73079 11.9358C2.77346 11.9786 2.82046 12 2.87179 12ZM6.02046 8.66667L4.63846 7.28467C4.53935 7.18544 4.4904 7.06833 4.49163 6.93333C4.49296 6.79833 4.54529 6.68122 4.64863 6.582C4.74785 6.48978 4.86496 6.443 4.99996 6.44167C5.13496 6.44044 5.25207 6.48939 5.35129 6.5885L7.00763 8.24483C7.12818 8.36539 7.18846 8.506 7.18846 8.66667C7.18846 8.82733 7.12818 8.96795 7.00763 9.0885L5.34479 10.7513C5.25246 10.8436 5.13818 10.8903 5.00196 10.8917C4.86563 10.8929 4.74785 10.8439 4.64863 10.7448C4.5564 10.6525 4.51029 10.5376 4.51029 10.4C4.51029 10.2624 4.5564 10.1475 4.64863 10.0552L6.02046 8.66667ZM8.66663 11.1667C8.52474 11.1667 8.40596 11.1188 8.31029 11.023C8.21452 10.9273 8.16663 10.8086 8.16663 10.6667C8.16663 10.5248 8.21452 10.406 8.31029 10.3103C8.40596 10.2146 8.52474 10.1667 8.66663 10.1667H11.3333C11.4752 10.1667 11.594 10.2146 11.6896 10.3103C11.7854 10.406 11.8333 10.5248 11.8333 10.6667C11.8333 10.8086 11.7854 10.9273 11.6896 11.023C11.594 11.1188 11.4752 11.1667 11.3333 11.1667H8.66663Z" fill="white"/>
</g>
</g>
</svg>
