<svg width="16" height="16" viewBox="0 0 16 16" fill="none" xmlns="http://www.w3.org/2000/svg">
    <mask id="mask0_2475_20749" style="mask-type:alpha" maskUnits="userSpaceOnUse" x="0" y="0" width="16" height="16">
        <rect width="16" height="16" fill="#D9D9D9"/>
    </mask>
    <g mask="url(#mask0_2475_20749)">
        <path d="M1.19873 11.3888C1.19873 11.0452 1.2874 10.7386 1.46473 10.4689C1.64206 10.1993 1.8789 9.98948 2.17523 9.83959C2.80879 9.5297 3.44584 9.29076 4.0864 9.12276C4.72706 8.95487 5.43112 8.87092 6.19856 8.87092C6.96612 8.87092 7.67018 8.95487 8.31073 9.12276C8.9514 9.29076 9.58851 9.5297 10.2221 9.83959C10.5184 9.98948 10.7552 10.1993 10.9326 10.4689C11.1099 10.7386 11.1986 11.0452 11.1986 11.3888V11.8581C11.1986 12.1264 11.1001 12.3623 10.9031 12.5658C10.7061 12.7692 10.467 12.8709 10.1857 12.8709H2.2114C1.93029 12.8709 1.69123 12.7724 1.49423 12.5754C1.29723 12.3783 1.19873 12.1392 1.19873 11.8581V11.3888ZM13.7884 12.8709H12.2742C12.358 12.7179 12.4219 12.5551 12.4659 12.3824C12.5099 12.2098 12.5319 12.035 12.5319 11.8581V11.3068C12.5319 10.8692 12.4248 10.4521 12.2106 10.0556C11.9962 9.65915 11.6922 9.31898 11.2986 9.03509C11.7456 9.10176 12.17 9.20492 12.5717 9.34459C12.9734 9.48437 13.3567 9.64954 13.7217 9.84009C14.0662 10.0239 14.3322 10.2405 14.5197 10.4899C14.7073 10.7393 14.8011 11.0115 14.8011 11.3068V11.8581C14.8011 12.1392 14.7026 12.3783 14.5056 12.5754C14.3086 12.7724 14.0695 12.8709 13.7884 12.8709ZM6.19856 7.79392C5.5569 7.79392 5.00762 7.56548 4.55073 7.10859C4.09384 6.65159 3.8654 6.10226 3.8654 5.46059C3.8654 4.81892 4.09384 4.26965 4.55073 3.81276C5.00762 3.35576 5.5569 3.12726 6.19856 3.12726C6.84023 3.12726 7.38956 3.35576 7.84656 3.81276C8.30345 4.26965 8.5319 4.81892 8.5319 5.46059C8.5319 6.10226 8.30345 6.65159 7.84656 7.10859C7.38956 7.56548 6.84023 7.79392 6.19856 7.79392ZM11.9549 5.46059C11.9549 6.10226 11.7265 6.65159 11.2696 7.10859C10.8127 7.56548 10.2634 7.79392 9.62173 7.79392C9.54651 7.79392 9.45079 7.78537 9.33456 7.76826C9.21823 7.75115 9.12251 7.73237 9.0474 7.71192C9.31029 7.39581 9.51234 7.04515 9.65356 6.65993C9.79467 6.2747 9.86523 5.8747 9.86523 5.45993C9.86523 5.04504 9.79323 4.64654 9.64923 4.26442C9.50523 3.88242 9.30462 3.53076 9.0474 3.20942C9.14306 3.1752 9.23879 3.15298 9.33456 3.14276C9.43023 3.13242 9.52595 3.12726 9.62173 3.12726C10.2634 3.12726 10.8127 3.35576 11.2696 3.81276C11.7265 4.26965 11.9549 4.81892 11.9549 5.46059ZM2.19856 11.8709H10.1986V11.3888C10.1986 11.2495 10.1637 11.1256 10.0941 11.0171C10.0245 10.9085 9.91406 10.8136 9.76273 10.7324C9.21406 10.4495 8.64912 10.2352 8.0679 10.0894C7.48668 9.94376 6.86356 9.87092 6.19856 9.87092C5.53368 9.87092 4.91062 9.94376 4.3294 10.0894C3.74817 10.2352 3.18323 10.4495 2.63456 10.7324C2.48323 10.8136 2.37273 10.9085 2.30306 11.0171C2.2334 11.1256 2.19856 11.2495 2.19856 11.3888V11.8709ZM6.19856 6.79392C6.56523 6.79392 6.87912 6.66337 7.14023 6.40226C7.40134 6.14115 7.5319 5.82726 7.5319 5.46059C7.5319 5.09392 7.40134 4.78004 7.14023 4.51892C6.87912 4.25781 6.56523 4.12726 6.19856 4.12726C5.8319 4.12726 5.51801 4.25781 5.2569 4.51892C4.99579 4.78004 4.86523 5.09392 4.86523 5.46059C4.86523 5.82726 4.99579 6.14115 5.2569 6.40226C5.51801 6.66337 5.8319 6.79392 6.19856 6.79392Z" fill="white"/>
    </g>
</svg>
