<svg width="14" height="14" viewBox="0 0 14 14" fill="none" xmlns="http://www.w3.org/2000/svg">
<g id="7916_group">
<mask id="mask0_2824_1264" style="mask-type:alpha" maskUnits="userSpaceOnUse" x="0" y="0" width="14" height="14">
<rect id="Bounding box" width="14" height="14" fill="#D9D9D9"/>
</mask>
<g mask="url(#mask0_2824_1264)">
<path id="language" d="M6.99992 12.5417C6.24013 12.5417 5.52311 12.3961 4.84888 12.1048C4.17464 11.8135 3.58664 11.4169 3.08488 10.9151C2.58302 10.4133 2.18645 9.82532 1.89517 9.15108C1.60389 8.47685 1.45825 7.75983 1.45825 7.00004C1.45825 6.23422 1.60389 5.5157 1.89517 4.84448C2.18645 4.17326 2.58302 3.58676 3.08488 3.085C3.58664 2.58314 4.17464 2.18657 4.84888 1.89529C5.52311 1.60401 6.24013 1.45837 6.99992 1.45837C7.76574 1.45837 8.48426 1.60401 9.15548 1.89529C9.8267 2.18657 10.4132 2.58314 10.915 3.085C11.4168 3.58676 11.8134 4.17326 12.1047 4.84448C12.3959 5.5157 12.5416 6.23422 12.5416 7.00004C12.5416 7.75983 12.3959 8.47685 12.1047 9.15108C11.8134 9.82532 11.4168 10.4133 10.915 10.9151C10.4132 11.4169 9.8267 11.8135 9.15548 12.1048C8.48426 12.3961 7.76574 12.5417 6.99992 12.5417ZM6.99992 11.6543C7.29761 11.2595 7.54815 10.8613 7.75154 10.4596C7.95493 10.058 8.1206 9.61901 8.24854 9.14263H5.75129C5.88672 9.63399 6.05429 10.0805 6.25398 10.4821C6.45358 10.8837 6.70222 11.2745 6.99992 11.6543ZM5.87029 11.4939C5.64668 11.1731 5.44587 10.8083 5.26786 10.3997C5.08984 9.99099 4.95149 9.57196 4.85281 9.14263H2.874C3.1821 9.74842 3.59529 10.2574 4.11359 10.6695C4.63188 11.0815 5.21745 11.3563 5.87029 11.4939ZM8.12954 11.4939C8.78239 11.3563 9.36796 11.0815 9.88625 10.6695C10.4045 10.2574 10.8177 9.74842 11.1258 9.14263H9.14702C9.02958 9.57565 8.88185 9.99653 8.70384 10.4052C8.52592 10.814 8.33449 11.1769 8.12954 11.4939ZM2.50709 8.26762H4.67563C4.63897 8.05082 4.61238 7.83824 4.59586 7.6299C4.57943 7.42165 4.57121 7.21169 4.57121 7.00004C4.57121 6.78839 4.57943 6.57844 4.59586 6.37019C4.61238 6.16184 4.63897 5.94926 4.67563 5.73246H2.50709C2.45099 5.9306 2.40802 6.13661 2.37817 6.3505C2.34822 6.56439 2.33325 6.7809 2.33325 7.00004C2.33325 7.21918 2.34822 7.43569 2.37817 7.64958C2.40802 7.86347 2.45099 8.06949 2.50709 8.26762ZM5.55048 8.26762H8.44936C8.48591 8.05082 8.51245 7.84014 8.52898 7.63558C8.54541 7.43103 8.55363 7.21918 8.55363 7.00004C8.55363 6.7809 8.54541 6.56905 8.52898 6.3645C8.51245 6.15994 8.48591 5.94926 8.44936 5.73246H5.55048C5.51393 5.94926 5.48738 6.15994 5.47086 6.3645C5.45443 6.56905 5.44621 6.7809 5.44621 7.00004C5.44621 7.21918 5.45443 7.43103 5.47086 7.63558C5.48738 7.84014 5.51393 8.05082 5.55048 8.26762ZM9.32421 8.26762H11.4928C11.5489 8.06949 11.5918 7.86347 11.6217 7.64958C11.6516 7.43569 11.6666 7.21918 11.6666 7.00004C11.6666 6.7809 11.6516 6.56439 11.6217 6.3505C11.5918 6.13661 11.5489 5.9306 11.4928 5.73246H9.32421C9.36086 5.94926 9.38745 6.16184 9.40398 6.37019C9.42041 6.57844 9.42863 6.78839 9.42863 7.00004C9.42863 7.21169 9.42041 7.42165 9.40398 7.6299C9.38745 7.83824 9.36086 8.05082 9.32421 8.26762ZM9.14702 4.85746H11.1258C10.814 4.24418 10.4037 3.73522 9.89471 3.33058C9.38575 2.92604 8.79736 2.64935 8.12954 2.5005C8.35316 2.84 8.55207 3.21134 8.72629 3.61452C8.90061 4.0176 9.04086 4.43192 9.14702 4.85746ZM5.75129 4.85746H8.24854C8.11311 4.36979 7.94278 3.92048 7.73754 3.50952C7.53221 3.09856 7.28634 2.71064 6.99992 2.34577C6.7135 2.71064 6.46763 3.09856 6.26229 3.50952C6.05706 3.92048 5.88672 4.36979 5.75129 4.85746ZM2.874 4.85746H4.85281C4.95898 4.43192 5.09922 4.0176 5.27354 3.61452C5.44777 3.21134 5.64668 2.84 5.87029 2.5005C5.19868 2.64935 4.60937 2.92701 4.10236 3.3335C3.59525 3.73989 3.18579 4.24787 2.874 4.85746Z" fill="white"/>
</g>
</g>
</svg>
