<svg width="16" height="16" viewBox="0 0 16 16" fill="none" xmlns="http://www.w3.org/2000/svg">
<g id="chat_bubble">
<mask id="mask0_186_69480" style="mask-type:alpha" maskUnits="userSpaceOnUse" x="0" y="0" width="16" height="16">
<rect id="Bounding box" width="16" height="16" fill="#D9D9D9"/>
</mask>
<g mask="url(#mask0_186_69480)">
<path id="chat_bubble_2" d="M4.02575 11.6667L2.69108 13.0012C2.50141 13.191 2.28325 13.234 2.03658 13.1302C1.79003 13.0263 1.66675 12.8393 1.66675 12.5692V2.87185C1.66675 2.53508 1.78341 2.25002 2.01675 2.01669C2.25008 1.78335 2.53514 1.66669 2.87191 1.66669H13.1282C13.465 1.66669 13.7501 1.78335 13.9834 2.01669C14.2167 2.25002 14.3334 2.53508 14.3334 2.87185V10.4615C14.3334 10.7983 14.2167 11.0834 13.9834 11.3167C13.7501 11.55 13.465 11.6667 13.1282 11.6667H4.02575ZM3.60008 10.6667H13.1282C13.1796 10.6667 13.2266 10.6453 13.2692 10.6025C13.312 10.5599 13.3334 10.5129 13.3334 10.4615V2.87185C13.3334 2.82052 13.312 2.77352 13.2692 2.73085C13.2266 2.68808 13.1796 2.66669 13.1282 2.66669H2.87191C2.82058 2.66669 2.77358 2.68808 2.73091 2.73085C2.68814 2.77352 2.66675 2.82052 2.66675 2.87185V11.5899L3.60008 10.6667Z" fill="#888888"/>
</g>
</g>
</svg>
