<svg width="14" height="15" viewBox="0 0 14 15" fill="none" xmlns="http://www.w3.org/2000/svg">
    <mask id="mask0_2608_984" style="mask-type:alpha" maskUnits="userSpaceOnUse" x="0" y="0" width="14" height="15">
        <rect y="0.5" width="14" height="14" fill="#D9D9D9"/>
    </mask>
    <g mask="url(#mask0_2608_984)">
        <path d="M6.99992 8.11485L8.7925 9.90758C8.87329 9.98827 8.97484 10.0296 9.09715 10.0315C9.21936 10.0334 9.32275 9.99206 9.40734 9.90758C9.49182 9.823 9.53406 9.72052 9.53406 9.60016C9.53406 9.4798 9.49182 9.37733 9.40734 9.29275L7.61461 7.50016L9.40734 5.70758C9.48803 5.62679 9.52935 5.52524 9.53129 5.40293C9.53314 5.28073 9.49182 5.17733 9.40734 5.09275C9.32275 5.00826 9.22028 4.96602 9.09992 4.96602C8.97956 4.96602 8.87709 5.00826 8.7925 5.09275L6.99992 6.88548L5.20733 5.09275C5.12654 5.01205 5.025 4.97073 4.90269 4.96879C4.78048 4.96694 4.67709 5.00826 4.5925 5.09275C4.50802 5.17733 4.46577 5.2798 4.46577 5.40016C4.46577 5.52052 4.50802 5.623 4.5925 5.70758L6.38523 7.50016L4.5925 9.29275C4.51181 9.37354 4.47049 9.47509 4.46854 9.59739C4.4667 9.7196 4.50802 9.823 4.5925 9.90758C4.67709 9.99206 4.77956 10.0343 4.89992 10.0343C5.02028 10.0343 5.12275 9.99206 5.20733 9.90758L6.99992 8.11485ZM7.00094 13.0418C6.23444 13.0418 5.51397 12.8964 4.83954 12.6055C4.16511 12.3146 3.57847 11.9198 3.07963 11.4212C2.58078 10.9225 2.18581 10.3361 1.89473 9.662C1.60374 8.98786 1.45825 8.26759 1.45825 7.50118C1.45825 6.73468 1.6037 6.01422 1.89459 5.33979C2.18547 4.66536 2.58025 4.07872 3.0789 3.57987C3.57755 3.08102 4.16395 2.68606 4.83809 2.39498C5.51222 2.10399 6.23249 1.9585 6.9989 1.9585C7.7654 1.9585 8.48586 2.10394 9.16029 2.39483C9.83472 2.68572 10.4214 3.08049 10.9202 3.57914C11.4191 4.07779 11.814 4.66419 12.1051 5.33833C12.3961 6.01247 12.5416 6.73274 12.5416 7.49914C12.5416 8.26564 12.3961 8.98611 12.1053 9.66054C11.8144 10.335 11.4196 10.9216 10.9209 11.4205C10.4223 11.9193 9.83589 12.3143 9.16175 12.6054C8.48761 12.8963 7.76734 13.0418 7.00094 13.0418ZM6.99992 12.1668C8.3027 12.1668 9.40617 11.7147 10.3103 10.8106C11.2145 9.90641 11.6666 8.80294 11.6666 7.50016C11.6666 6.19738 11.2145 5.09391 10.3103 4.18975C9.40617 3.28558 8.3027 2.8335 6.99992 2.8335C5.69714 2.8335 4.59367 3.28558 3.6895 4.18975C2.78534 5.09391 2.33325 6.19738 2.33325 7.50016C2.33325 8.80294 2.78534 9.90641 3.6895 10.8106C4.59367 11.7147 5.69714 12.1668 6.99992 12.1668Z" fill="#888888"/>
    </g>
</svg>
