<svg width="14" height="15" viewBox="0 0 14 15" fill="none" xmlns="http://www.w3.org/2000/svg">
    <mask id="mask0_1725_3078" style="mask-type:alpha" maskUnits="userSpaceOnUse" x="0" y="0" width="14" height="15">
        <rect y="0.5" width="14" height="14" fill="#D9D9D9"/>
    </mask>
    <g mask="url(#mask0_1725_3078)">
        <path d="M5.28369 10.7084C4.98901 10.7084 4.73958 10.6063 4.53542 10.4021C4.33125 10.198 4.22917 9.94853 4.22917 9.65385V3.01289C4.22917 2.71821 4.33125 2.46879 4.53542 2.26462C4.73958 2.06046 4.98901 1.95837 5.28369 1.95837H10.1746C10.4693 1.95837 10.7188 2.06046 10.9229 2.26462C11.1271 2.46879 11.2292 2.71821 11.2292 3.01289V9.65385C11.2292 9.94853 11.1271 10.198 10.9229 10.4021C10.7188 10.6063 10.4693 10.7084 10.1746 10.7084H5.28369ZM5.28369 9.83337H10.1746C10.2196 9.83337 10.2607 9.81466 10.298 9.77723C10.3355 9.7399 10.3542 9.69877 10.3542 9.65385V3.01289C10.3542 2.96798 10.3355 2.92685 10.298 2.88952C10.2607 2.85209 10.2196 2.83337 10.1746 2.83337H5.28369C5.23877 2.83337 5.19765 2.85209 5.16031 2.88952C5.12288 2.92685 5.10417 2.96798 5.10417 3.01289V9.65385C5.10417 9.69877 5.12288 9.7399 5.16031 9.77723C5.19765 9.81466 5.23877 9.83337 5.28369 9.83337ZM3.24202 12.75C2.94734 12.75 2.69792 12.648 2.49375 12.4438C2.28958 12.2396 2.1875 11.9902 2.1875 11.6955V4.61706C2.1875 4.49291 2.2294 4.38893 2.31321 4.30512C2.39692 4.22142 2.50085 4.17956 2.625 4.17956C2.74915 4.17956 2.85313 4.22142 2.93694 4.30512C3.02065 4.38893 3.0625 4.49291 3.0625 4.61706V11.6955C3.0625 11.7404 3.08122 11.7816 3.11865 11.8189C3.15598 11.8563 3.1971 11.875 3.24202 11.875H8.57048C8.69463 11.875 8.79861 11.9169 8.88242 12.0006C8.96613 12.0844 9.00798 12.1884 9.00798 12.3125C9.00798 12.4367 8.96613 12.5406 8.88242 12.6243C8.79861 12.7081 8.69463 12.75 8.57048 12.75H3.24202Z" fill="#888888"/>
    </g>
</svg>
