<svg width="16" height="17" viewBox="0 0 16 17" fill="none" xmlns="http://www.w3.org/2000/svg">
    <mask id="mask0_2478_28107" style="mask-type:alpha" maskUnits="userSpaceOnUse" x="0" y="0" width="16" height="17">
        <rect y="0.775635" width="16" height="16" fill="#D9D9D9"/>
    </mask>
    <g mask="url(#mask0_2478_28107)">
        <path d="M9.91805 6.52427C10.1889 6.79527 10.3983 7.12455 10.5462 7.5121C10.6941 7.89977 10.75 8.28888 10.714 8.67944C10.714 8.80766 10.6679 8.91621 10.5757 9.0051C10.4834 9.09399 10.3731 9.13843 10.2449 9.13843C10.1167 9.13843 10.0081 9.09399 9.91922 9.0051C9.83033 8.91621 9.78588 8.80766 9.78588 8.67944C9.82866 8.38632 9.80455 8.10855 9.71355 7.8461C9.62255 7.58377 9.4826 7.35816 9.29372 7.16927C9.10483 6.98038 8.87705 6.83699 8.61038 6.7391C8.34372 6.64121 8.06249 6.61577 7.76672 6.66277C7.63849 6.6671 7.52783 6.62416 7.43472 6.53394C7.34149 6.44382 7.29277 6.33466 7.28855 6.20643C7.28422 6.07821 7.32544 5.96749 7.41222 5.87427C7.49899 5.78116 7.60649 5.73249 7.73472 5.72827C8.12272 5.68382 8.51266 5.73444 8.90455 5.8801C9.29644 6.02588 9.63427 6.2406 9.91805 6.52427ZM8.00005 4.7756C7.76327 4.7756 7.53099 4.78716 7.30322 4.81027C7.07544 4.83327 6.84872 4.87127 6.62305 4.92427C6.48116 4.95338 6.35338 4.9331 6.23972 4.86344C6.12605 4.79377 6.04788 4.69355 6.00522 4.56277C5.96244 4.42777 5.97655 4.29938 6.04755 4.1776C6.11844 4.05582 6.22138 3.98038 6.35638 3.95127C6.62483 3.88716 6.89599 3.84188 7.16988 3.81544C7.44388 3.78888 7.7206 3.7756 8.00005 3.7756C9.43249 3.7756 10.7483 4.14782 11.9475 4.89227C13.1467 5.63671 14.0688 6.64399 14.714 7.9141C14.7585 7.99866 14.7908 8.08388 14.8109 8.16977C14.831 8.25566 14.841 8.34649 14.841 8.44227C14.841 8.53805 14.8327 8.62888 14.816 8.71477C14.7994 8.80066 14.7688 8.88588 14.7244 8.97044C14.5202 9.39777 14.2719 9.79627 13.9796 10.1659C13.6872 10.5356 13.3654 10.8752 13.0141 11.1846C12.9107 11.2769 12.7926 11.3152 12.6597 11.2993C12.5267 11.2835 12.4175 11.217 12.332 11.0999C12.2466 10.9828 12.2112 10.8572 12.2257 10.7231C12.2403 10.5889 12.2992 10.4756 12.4026 10.3833C12.7034 10.1106 12.9778 9.81255 13.2257 9.4891C13.4736 9.16555 13.6873 8.8166 13.8667 8.44227C13.3112 7.32005 12.5084 6.42838 11.4584 5.76727C10.4084 5.10616 9.2556 4.7756 8.00005 4.7756ZM8.00005 13.1089C6.5966 13.1089 5.31027 12.7339 4.14105 11.9839C2.97183 11.2339 2.04238 10.2461 1.35272 9.02044C1.29716 8.93588 1.25655 8.84399 1.23088 8.74477C1.20522 8.64566 1.19238 8.54482 1.19238 8.44227C1.19238 8.33971 1.20349 8.24055 1.22572 8.14477C1.24794 8.0491 1.28683 7.95555 1.34238 7.8641C1.59027 7.4111 1.87105 6.97966 2.18472 6.56977C2.49838 6.15999 2.85905 5.79271 3.26672 5.46794L1.76155 3.95244C1.66933 3.85332 1.62383 3.7356 1.62505 3.59927C1.62638 3.46294 1.67533 3.34649 1.77188 3.24994C1.86844 3.15338 1.98555 3.1051 2.12322 3.1051C2.26077 3.1051 2.37783 3.15338 2.47438 3.24994L13.5257 14.3013C13.618 14.3936 13.667 14.5079 13.6725 14.6441C13.6781 14.7804 13.6292 14.9003 13.5257 15.0038C13.4292 15.1003 13.312 15.1486 13.1744 15.1486C13.0368 15.1486 12.9198 15.1003 12.8232 15.0038L10.477 12.6781C10.0838 12.8302 9.67972 12.94 9.26472 13.0076C8.84983 13.0752 8.42827 13.1089 8.00005 13.1089ZM3.96938 6.17044C3.57872 6.47221 3.22761 6.81344 2.91605 7.1941C2.60449 7.57488 2.3436 7.99094 2.13338 8.44227C2.68894 9.56449 3.49172 10.4562 4.54172 11.1173C5.59172 11.7784 6.74449 12.1089 8.00005 12.1089C8.28638 12.1089 8.56822 12.0897 8.84555 12.0513C9.12288 12.0128 9.39833 11.9534 9.67188 11.8731L8.82822 11.0089C8.69322 11.0679 8.55838 11.1079 8.42372 11.1288C8.28916 11.1498 8.14794 11.1603 8.00005 11.1603C7.2436 11.1603 6.60149 10.8964 6.07372 10.3686C5.54594 9.84082 5.28205 9.19871 5.28205 8.44227C5.28205 8.29438 5.2936 8.15316 5.31672 8.0186C5.33983 7.88394 5.37872 7.7491 5.43338 7.6141L3.96938 6.17044Z" fill="#888888"/>
    </g>
</svg>
