<svg width="20" height="20" viewBox="0 0 20 20" fill="none" xmlns="http://www.w3.org/2000/svg">
<g id="19_group">
<mask id="mask0_146_27051" style="mask-type:alpha" maskUnits="userSpaceOnUse" x="0" y="0" width="20" height="20">
<rect id="Bounding box" width="20" height="20" fill="#D9D9D9"/>
</mask>
<g mask="url(#mask0_146_27051)">
<path id="topic" d="M3.58971 16.25C3.16874 16.25 2.81242 16.1042 2.52075 15.8125C2.22909 15.5208 2.08325 15.1645 2.08325 14.7435V5.25646C2.08325 4.83549 2.22909 4.47917 2.52075 4.1875C2.81242 3.89583 3.16874 3.75 3.58971 3.75H7.54159C7.74242 3.75 7.93554 3.78903 8.12096 3.86708C8.30624 3.945 8.46728 4.05236 8.60409 4.18917L9.83159 5.41667H16.4101C16.8311 5.41667 17.1874 5.5625 17.4791 5.85417C17.7708 6.14583 17.9166 6.50215 17.9166 6.92313V14.7435C17.9166 15.1645 17.7708 15.5208 17.4791 15.8125C17.1874 16.1042 16.8311 16.25 16.4101 16.25H3.58971ZM3.58971 15H16.4101C16.485 15 16.5464 14.976 16.5945 14.9279C16.6426 14.8799 16.6666 14.8184 16.6666 14.7435V6.92313C16.6666 6.84826 16.6426 6.78681 16.5945 6.73875C16.5464 6.69069 16.485 6.66667 16.4101 6.66667H9.32034L7.72596 5.07208C7.69916 5.04542 7.6711 5.02674 7.64179 5.01604C7.61235 5.00535 7.58159 5 7.5495 5H3.58971C3.51485 5 3.45339 5.02403 3.40534 5.07208C3.35728 5.12014 3.33325 5.1816 3.33325 5.25646V14.7435C3.33325 14.8184 3.35728 14.8799 3.40534 14.9279C3.45339 14.976 3.51485 15 3.58971 15ZM5.83325 13.125H10.8333C11.0106 13.125 11.1591 13.0651 11.2787 12.9454C11.3984 12.8258 11.4583 12.6774 11.4583 12.5C11.4583 12.3226 11.3984 12.1742 11.2787 12.0546C11.1591 11.9349 11.0106 11.875 10.8333 11.875H5.83325C5.65589 11.875 5.50742 11.9349 5.38784 12.0546C5.26811 12.1742 5.20825 12.3226 5.20825 12.5C5.20825 12.6774 5.26811 12.8258 5.38784 12.9454C5.50742 13.0651 5.65589 13.125 5.83325 13.125ZM5.83325 9.79167H14.1666C14.3439 9.79167 14.4924 9.73181 14.612 9.61208C14.7317 9.4925 14.7916 9.34403 14.7916 9.16667C14.7916 8.98931 14.7317 8.84083 14.612 8.72125C14.4924 8.60153 14.3439 8.54167 14.1666 8.54167H5.83325C5.65589 8.54167 5.50742 8.60153 5.38784 8.72125C5.26811 8.84083 5.20825 8.98931 5.20825 9.16667C5.20825 9.34403 5.26811 9.4925 5.38784 9.61208C5.50742 9.73181 5.65589 9.79167 5.83325 9.79167Z" fill="white"/>
</g>
</g>
</svg>
