<svg width="14" height="15" viewBox="0 0 14 15" fill="none" xmlns="http://www.w3.org/2000/svg">
<g id="19_group">
<mask id="mask0_1521_320" style="mask-type:alpha" maskUnits="userSpaceOnUse" x="0" y="0" width="14" height="15">
<rect id="Bounding box" y="0.5" width="14" height="14" fill="#D9D9D9"/>
</mask>
<g mask="url(#mask0_1521_320)">
<path id="settings" d="M6.35381 13.0417C6.15489 13.0417 5.9831 12.9757 5.83843 12.8436C5.69367 12.7117 5.60559 12.5492 5.57418 12.3563L5.4317 11.2647C5.27547 11.2124 5.11525 11.1391 4.95104 11.0449C4.78693 10.9506 4.64017 10.8497 4.51077 10.742L3.5 11.1717C3.31673 11.2524 3.13259 11.2603 2.94758 11.1951C2.76247 11.1301 2.61868 11.012 2.5162 10.8408L1.85879 9.70093C1.75632 9.52972 1.72681 9.34855 1.77027 9.15741C1.81363 8.96636 1.91309 8.80877 2.06864 8.68461L2.94248 8.02836C2.92906 7.94164 2.91953 7.85453 2.91389 7.76703C2.90825 7.67953 2.90543 7.59237 2.90543 7.50555C2.90543 7.42262 2.90825 7.33833 2.91389 7.25268C2.91953 7.16702 2.92906 7.07335 2.94248 6.97166L2.06864 6.31541C1.91309 6.19125 1.81455 6.03268 1.77304 5.8397C1.73152 5.64681 1.762 5.46471 1.86448 5.29341L2.5162 4.17049C2.61868 4.00298 2.76247 3.88577 2.94758 3.81889C3.13259 3.7519 3.31673 3.7588 3.5 3.83959L4.50508 4.26368C4.64576 4.15226 4.79592 4.05037 4.95556 3.95801C5.1152 3.86565 5.27207 3.79142 5.42616 3.73532L5.57418 2.64376C5.60559 2.45077 5.69367 2.28832 5.83843 2.15639C5.9831 2.02436 6.15489 1.95834 6.35381 1.95834H7.64618C7.8451 1.95834 8.01689 2.02436 8.16156 2.15639C8.30632 2.28832 8.39441 2.45077 8.42581 2.64376L8.56829 3.74086C8.74329 3.80445 8.90161 3.87868 9.04327 3.96355C9.18502 4.04843 9.32808 4.14847 9.47245 4.26368L10.5057 3.83959C10.6889 3.7588 10.873 3.7519 11.0581 3.81889C11.2432 3.88577 11.387 4.00298 11.4893 4.17049L12.1412 5.29909C12.2437 5.4703 12.2732 5.65148 12.2297 5.84261C12.1864 6.03366 12.0869 6.19125 11.9314 6.31541L11.0351 6.98843C11.056 7.08263 11.0674 7.17072 11.0693 7.25268C11.0712 7.33454 11.0721 7.41698 11.0721 7.50001C11.0721 7.57925 11.0702 7.65984 11.0664 7.7418C11.0627 7.82366 11.0493 7.91734 11.0262 8.02282L11.9055 8.68461C12.0611 8.80877 12.1615 8.96636 12.2068 9.15741C12.252 9.34855 12.2234 9.52972 12.1209 9.70093L11.4602 10.8351C11.3578 11.0064 11.2131 11.1246 11.0262 11.1896C10.8392 11.2546 10.6541 11.2468 10.4708 11.166L9.47245 10.7363C9.32808 10.8516 9.18074 10.9534 9.03043 11.042C8.88013 11.1307 8.72608 11.2031 8.56829 11.2592L8.42581 12.3563C8.39441 12.5492 8.30632 12.7117 8.16156 12.8436C8.01689 12.9757 7.8451 13.0417 7.64618 13.0417H6.35381ZM6.41666 12.1667H7.5632L7.77291 10.6041C8.07061 10.5263 8.34264 10.4158 8.589 10.2726C8.83545 10.1293 9.07311 9.9451 9.30197 9.72003L10.7513 10.3292L11.3257 9.33751L10.0603 8.38405C10.1089 8.23297 10.142 8.08485 10.1595 7.9397C10.1771 7.79464 10.1859 7.64808 10.1859 7.50001C10.1859 7.34815 10.1771 7.20159 10.1595 7.06032C10.142 6.91896 10.1089 6.77459 10.0603 6.6272L11.3368 5.66251L10.7625 4.67084L9.29629 5.28889C9.10107 5.08025 8.8672 4.89591 8.59468 4.73589C8.32207 4.57586 8.0463 4.46255 7.76737 4.39595L7.58333 2.83334H6.4257L6.23262 4.39041C5.93502 4.4607 5.66023 4.56837 5.40823 4.71343C5.15613 4.85858 4.91565 5.04554 4.68679 5.2743L3.2375 4.67084L2.6632 5.66251L3.92291 6.60139C3.8743 6.73983 3.84027 6.88382 3.82083 7.03334C3.80139 7.18287 3.79166 7.34027 3.79166 7.50555C3.79166 7.65741 3.80139 7.80626 3.82083 7.95209C3.84027 8.09793 3.87245 8.24191 3.91737 8.38405L2.6632 9.33751L3.2375 10.3292L4.68125 9.71668C4.90262 9.94398 5.13931 10.1302 5.39131 10.2754C5.64341 10.4204 5.922 10.5318 6.22708 10.6096L6.41666 12.1667ZM7.0067 9.25001C7.49204 9.25001 7.90504 9.07968 8.2457 8.73901C8.58637 8.39834 8.7567 7.98534 8.7567 7.50001C8.7567 7.01468 8.58637 6.60168 8.2457 6.26101C7.90504 5.92034 7.49204 5.75001 7.0067 5.75001C6.51534 5.75001 6.10084 5.92034 5.76318 6.26101C5.42553 6.60168 5.2567 7.01468 5.2567 7.50001C5.2567 7.98534 5.42553 8.39834 5.76318 8.73901C6.10084 9.07968 6.51534 9.25001 7.0067 9.25001Z" fill="#888888"/>
</g>
</g>
</svg>
