<svg width="16" height="16" viewBox="0 0 16 16" fill="none" xmlns="http://www.w3.org/2000/svg">
    <mask id="mask0_2475_20904" style="mask-type:alpha" maskUnits="userSpaceOnUse" x="0" y="0" width="16" height="16">
        <rect width="16" height="16" fill="#D9D9D9"/>
    </mask>
    <g mask="url(#mask0_2475_20904)">
        <path d="M11.7514 9.17952H5.10904C4.33804 9.17952 3.68265 8.91241 3.14287 8.37819C2.60321 7.84408 2.33337 7.19241 2.33337 6.42319C2.33337 5.65385 2.60321 5.00213 3.14287 4.46802C3.68265 3.9338 4.33804 3.66669 5.10904 3.66669C5.25071 3.66669 5.36943 3.71463 5.46521 3.81052C5.5611 3.90641 5.60904 4.02519 5.60904 4.16685C5.60904 4.30863 5.5611 4.42735 5.46521 4.52302C5.36943 4.6188 5.25071 4.66669 5.10904 4.66669C4.61671 4.66669 4.19771 4.83652 3.85204 5.17619C3.50626 5.51585 3.33337 5.93169 3.33337 6.42369C3.33337 6.91558 3.50626 7.33119 3.85204 7.67052C4.19771 8.00985 4.61671 8.17952 5.10904 8.17952H11.7514L9.62954 6.06669C9.53476 5.97435 9.48521 5.85896 9.48087 5.72052C9.47654 5.58208 9.52543 5.46291 9.62754 5.36302C9.72121 5.27147 9.83826 5.22569 9.97871 5.22569C10.1192 5.22569 10.2348 5.27185 10.3257 5.36419L13.2385 8.25135C13.359 8.37302 13.4192 8.51497 13.4192 8.67719C13.4192 8.83941 13.359 8.9808 13.2385 9.10135L10.3257 11.9885C10.2265 12.0876 10.1105 12.1351 9.97787 12.131C9.84521 12.127 9.7291 12.0761 9.62954 11.9782C9.53299 11.8791 9.48299 11.762 9.47954 11.6269C9.4761 11.4919 9.5261 11.3748 9.62954 11.2757L11.7514 9.17952Z" fill="#605915"/>
    </g>
</svg>
