<svg width="20" height="20" viewBox="0 0 20 20" fill="none" xmlns="http://www.w3.org/2000/svg">
<mask id="mask0_146_27465" style="mask-type:alpha" maskUnits="userSpaceOnUse" x="0" y="0" width="20" height="20">
<rect width="20" height="20" fill="#D9D9D9"/>
</mask>
<g mask="url(#mask0_146_27465)">
<path d="M4.42321 17.0833C4.00223 17.0833 3.64591 16.9375 3.35425 16.6458C3.06258 16.3542 2.91675 15.9979 2.91675 15.5769V4.42314C2.91675 4.00217 3.06258 3.64585 3.35425 3.35418C3.64591 3.06251 4.00223 2.91668 4.42321 2.91668H15.577C15.9979 2.91668 16.3542 3.06251 16.6459 3.35418C16.9376 3.64585 17.0834 4.00217 17.0834 4.42314V15.5769C17.0834 15.9979 16.9376 16.3542 16.6459 16.6458C16.3542 16.9375 15.9979 17.0833 15.577 17.0833H4.42321ZM4.42321 15.8333H9.37508V4.16668H4.42321C4.35904 4.16668 4.30029 4.19342 4.24696 4.24689C4.19348 4.30022 4.16675 4.35897 4.16675 4.42314V15.5769C4.16675 15.6411 4.19348 15.6998 4.24696 15.7531C4.30029 15.8066 4.35904 15.8333 4.42321 15.8333ZM10.6251 15.8333H15.577C15.6411 15.8333 15.6999 15.8066 15.7532 15.7531C15.8067 15.6998 15.8334 15.6411 15.8334 15.5769V10H10.6251V15.8333ZM10.6251 8.75001H15.8334V4.42314C15.8334 4.35897 15.8067 4.30022 15.7532 4.24689C15.6999 4.19342 15.6411 4.16668 15.577 4.16668H10.6251V8.75001Z" fill="white"/>
</g>
</svg>
