<svg width="20" height="20" viewBox="0 0 20 20" fill="none" xmlns="http://www.w3.org/2000/svg">
<g id="19_group">
<mask id="mask0_146_25783" style="mask-type:alpha" maskUnits="userSpaceOnUse" x="0" y="0" width="20" height="20">
<rect id="Bounding box" width="20" height="20" fill="#D9D9D9"/>
</mask>
<g mask="url(#mask0_146_25783)">
<path id="code" d="M3.72474 10.0129L7.1062 13.3942C7.22148 13.5096 7.2805 13.6547 7.28328 13.8294C7.28592 14.004 7.22689 14.1517 7.1062 14.2725C6.98536 14.3932 6.83898 14.4536 6.66703 14.4536C6.49509 14.4536 6.3487 14.3932 6.22787 14.2725L2.48266 10.5273C2.40474 10.4493 2.34974 10.367 2.31766 10.2804C2.28557 10.1939 2.26953 10.1004 2.26953 10C2.26953 9.8996 2.28557 9.80613 2.31766 9.7196C2.34974 9.63307 2.40474 9.55078 2.48266 9.47272L6.22787 5.72751C6.35189 5.60363 6.49911 5.54036 6.66953 5.53772C6.83981 5.53508 6.9896 5.59835 7.11891 5.72751C7.24821 5.85682 7.31286 6.00536 7.31286 6.17314C7.31286 6.34078 7.24821 6.48925 7.11891 6.61856L3.72474 10.0129ZM16.276 9.9871L12.8945 6.60585C12.7793 6.49043 12.7202 6.34536 12.7174 6.17064C12.7148 5.99606 12.7738 5.84835 12.8945 5.72751C13.0154 5.60682 13.1618 5.54647 13.3337 5.54647C13.5056 5.54647 13.652 5.60682 13.7729 5.72751L17.5181 9.47272C17.596 9.55078 17.651 9.63307 17.6831 9.7196C17.7152 9.80613 17.7312 9.8996 17.7312 10C17.7312 10.1004 17.7152 10.1939 17.6831 10.2804C17.651 10.367 17.596 10.4493 17.5181 10.5273L13.7729 14.2725C13.6488 14.3964 13.5038 14.4575 13.3377 14.4558C13.1715 14.4543 13.0238 14.3889 12.8945 14.2596C12.7654 14.1303 12.7008 13.9818 12.7008 13.8142C12.7008 13.6464 12.7654 13.4979 12.8945 13.3686L16.276 9.9871Z" fill="white"/>
</g>
</g>
</svg>
