<svg width="16" height="16" viewBox="0 0 16 16" fill="none" xmlns="http://www.w3.org/2000/svg">
<g id="19_group">
<mask id="mask0_186_69761" style="mask-type:alpha" maskUnits="userSpaceOnUse" x="0" y="0" width="16" height="16">
<rect id="Bounding box" width="16" height="16" fill="#D9D9D9"/>
</mask>
<g mask="url(#mask0_186_69761)">
<path id="commit" d="M8.00008 11.1666C7.20608 11.1666 6.52019 10.9139 5.94242 10.4083C5.36464 9.90276 5.00653 9.26665 4.86808 8.49998H2.16675C2.02508 8.49998 1.90636 8.45204 1.81058 8.35615C1.71469 8.26026 1.66675 8.14148 1.66675 7.99981C1.66675 7.85804 1.71469 7.73931 1.81058 7.64365C1.90636 7.54787 2.02508 7.49998 2.16675 7.49998H4.86808C5.00653 6.73331 5.36464 6.0972 5.94242 5.59165C6.52019 5.08609 7.20608 4.83331 8.00008 4.83331C8.79408 4.83331 9.48103 5.08609 10.0609 5.59165C10.6409 6.0972 10.998 6.73331 11.1321 7.49998H13.8334C13.9751 7.49998 14.0938 7.54792 14.1896 7.64381C14.2855 7.7397 14.3334 7.85848 14.3334 8.00015C14.3334 8.14192 14.2855 8.26065 14.1896 8.35631C14.0938 8.45209 13.9751 8.49998 13.8334 8.49998H11.1321C10.998 9.26665 10.6409 9.90276 10.0609 10.4083C9.48103 10.9139 8.79408 11.1666 8.00008 11.1666ZM8.00008 10.1666C8.59841 10.1666 9.10908 9.95509 9.53208 9.53198C9.95519 9.10898 10.1667 8.59831 10.1667 7.99998C10.1667 7.40165 9.95519 6.89098 9.53208 6.46798C9.10908 6.04487 8.59841 5.83331 8.00008 5.83331C7.40175 5.83331 6.89108 6.04487 6.46808 6.46798C6.04497 6.89098 5.83342 7.40165 5.83342 7.99998C5.83342 8.59831 6.04497 9.10898 6.46808 9.53198C6.89108 9.95509 7.40175 10.1666 8.00008 10.1666Z" fill="#888888"/>
</g>
</g>
</svg>
