<svg width="20" height="20" viewBox="0 0 20 20" fill="none" xmlns="http://www.w3.org/2000/svg">
<g id="205_group">
<mask id="mask0_146_31691" style="mask-type:alpha" maskUnits="userSpaceOnUse" x="0" y="0" width="20" height="20">
<rect id="Bounding box" width="20" height="20" fill="#D9D9D9"/>
</mask>
<g mask="url(#mask0_146_31691)">
<path id="deployed_code" d="M9.37484 16.3077V10.3589L4.16648 7.34293V13.1474C4.16648 13.1902 4.17717 13.2302 4.19855 13.2676C4.21991 13.305 4.25196 13.3371 4.29469 13.3638L9.37484 16.3077ZM10.6248 16.3077L15.7049 13.3638C15.7477 13.3371 15.7797 13.305 15.8011 13.2676C15.8225 13.2302 15.8332 13.1902 15.8332 13.1474V7.34293L10.6248 10.3589V16.3077ZM9.99982 9.28205L15.1457 6.3077L10.128 3.40545C10.0853 3.37874 10.0426 3.36539 9.99982 3.36539C9.95708 3.36539 9.91434 3.37874 9.87161 3.40545L4.85396 6.3077L9.99982 9.28205ZM3.66971 14.4615C3.43253 14.3248 3.24771 14.1421 3.11523 13.9134C2.98275 13.6848 2.9165 13.4337 2.9165 13.1602V6.83974C2.9165 6.56624 2.98275 6.31518 3.11523 6.08655C3.24771 5.85792 3.43253 5.67522 3.66971 5.53847L9.24661 2.32855C9.48379 2.1918 9.73486 2.12343 9.99982 2.12343C10.2648 2.12343 10.5158 2.1918 10.753 2.32855L16.3299 5.53847C16.5671 5.67522 16.7519 5.85792 16.8844 6.08655C17.0169 6.31518 17.0831 6.56624 17.0831 6.83974V13.1602C17.0831 13.4337 17.0169 13.6848 16.8844 13.9134C16.7519 14.1421 16.5671 14.3248 16.3299 14.4615L10.753 17.6714C10.5158 17.8082 10.2648 17.8766 9.99982 17.8766C9.73486 17.8766 9.48379 17.8082 9.24661 17.6714L3.66971 14.4615Z" fill="white"/>
</g>
</g>
</svg>
