<svg width="16" height="16" viewBox="0 0 16 16" fill="none" xmlns="http://www.w3.org/2000/svg">
<g id="19_group">
<mask id="mask0_186_68683" style="mask-type:alpha" maskUnits="userSpaceOnUse" x="0" y="0" width="16" height="16">
<rect id="Bounding box" width="16" height="16" fill="#D9D9D9"/>
</mask>
<g mask="url(#mask0_186_68683)">
<path id="all_match" d="M3.61414 12.3333C3.37203 12.3333 3.19547 12.2283 3.08447 12.0185C2.97347 11.8087 2.9833 11.6031 3.11397 11.4016L5.2243 8.10896C5.24575 8.07474 5.25647 8.0384 5.25647 7.99996C5.25647 7.96151 5.24575 7.92518 5.2243 7.89096L3.11397 4.59829C2.9833 4.39685 2.97347 4.19124 3.08447 3.98146C3.19547 3.77157 3.37203 3.66663 3.61414 3.66663H9.6923C9.92386 3.66663 10.1409 3.71879 10.3435 3.82313C10.546 3.92735 10.7117 4.07296 10.8405 4.25996L12.6666 6.83713C12.759 6.97479 12.788 7.10457 12.7538 7.22646C12.7196 7.34846 12.6512 7.44735 12.5486 7.52313C12.4452 7.59746 12.3279 7.63257 12.1968 7.62846C12.0657 7.62424 11.9509 7.5519 11.8525 7.41146L10.0128 4.83329C9.97436 4.78207 9.92947 4.74146 9.87814 4.71146C9.82691 4.68157 9.76497 4.66663 9.6923 4.66663H4.3308L6.07564 7.33713C6.20719 7.53801 6.27297 7.75896 6.27297 7.99996C6.27297 8.24096 6.20719 8.4619 6.07564 8.66279L4.3308 11.3333H7.08847C7.23014 11.3333 7.34886 11.3812 7.44464 11.4771C7.54053 11.573 7.58847 11.6918 7.58847 11.8335C7.58847 11.9752 7.54053 12.094 7.44464 12.1896C7.34886 12.2854 7.23014 12.3333 7.08847 12.3333H3.61414ZM11.5486 12.2371L11.1885 11.877C11.1099 11.7983 11.0161 11.759 10.9071 11.759C10.7981 11.759 10.7043 11.7984 10.6256 11.8773C10.547 11.9563 10.5076 12.0484 10.5076 12.1536C10.5076 12.2588 10.547 12.3508 10.6256 12.4295L11.2371 13.041C11.3267 13.1324 11.4311 13.1781 11.5505 13.1781C11.6698 13.1781 11.7752 13.1324 11.8666 13.041L13.3743 11.5603C13.453 11.4816 13.4934 11.3888 13.4955 11.282C13.4976 11.1752 13.4572 11.0803 13.3743 10.9975C13.2946 10.9188 13.1995 10.8795 13.089 10.8795C12.9783 10.8795 12.8837 10.9188 12.8051 10.9975L11.5486 12.2371ZM12 15.0385C11.1675 15.0385 10.4594 14.7466 9.87564 14.1628C9.29186 13.579 8.99997 12.8709 8.99997 12.0385C8.99997 11.206 9.29186 10.4979 9.87564 9.91413C10.4594 9.33035 11.1675 9.03846 12 9.03846C12.8324 9.03846 13.5405 9.33035 14.1243 9.91413C14.7081 10.4979 15 11.206 15 12.0385C15 12.8709 14.7081 13.579 14.1243 14.1628C13.5405 14.7466 12.8324 15.0385 12 15.0385Z" fill="#888888"/>
</g>
</g>
</svg>
