<svg width="16" height="16" viewBox="0 0 16 16" fill="none" xmlns="http://www.w3.org/2000/svg">
<g id="19_group">
<mask id="mask0_1561_11566" style="mask-type:alpha" maskUnits="userSpaceOnUse" x="0" y="0" width="16" height="16">
<rect id="Bounding box" width="16" height="16" fill="#D9D9D9"/>
</mask>
<g mask="url(#mask0_1561_11566)">
<path id="settings_applications" d="M7.36433 10.1659L7.45783 10.7006C7.48261 10.8134 7.53627 10.9041 7.61883 10.9729C7.70127 11.0417 7.79889 11.0761 7.91166 11.0761H8.08866C8.20144 11.0761 8.29905 11.04 8.3815 10.9677C8.46405 10.8955 8.51772 10.803 8.5425 10.6902L8.636 10.1659C8.82922 10.1104 8.99589 10.0445 9.136 9.96841C9.27622 9.89241 9.41383 9.79069 9.54883 9.66325L10.0772 9.85175C10.1831 9.88764 10.2862 9.88425 10.3867 9.84158C10.4871 9.7988 10.5656 9.73341 10.622 9.64541L10.7103 9.48891C10.7668 9.39414 10.7871 9.28925 10.7713 9.17425C10.7554 9.05925 10.7035 8.96675 10.6155 8.89675L10.2103 8.56075C10.2582 8.36252 10.2822 8.17536 10.2822 7.99925C10.2822 7.82314 10.2582 7.63597 10.2103 7.43775L10.6155 7.10175C10.7035 7.03175 10.7554 6.94097 10.7713 6.82941C10.7871 6.71786 10.7668 6.61464 10.7103 6.51975L10.6117 6.35308C10.5552 6.26508 10.4785 6.19969 10.3815 6.15691C10.2845 6.11425 10.1831 6.11086 10.0772 6.14675L9.54883 6.33525C9.41383 6.2078 9.27622 6.10608 9.136 6.03008C8.99589 5.95397 8.82922 5.88814 8.636 5.83258L8.5425 5.29791C8.51772 5.18514 8.46405 5.09436 8.3815 5.02558C8.29905 4.9568 8.20144 4.92241 8.08866 4.92241H7.91166C7.79889 4.92241 7.70127 4.95853 7.61883 5.03075C7.53627 5.10297 7.48261 5.19547 7.45783 5.30825L7.36433 5.83258C7.17111 5.88814 7.00444 5.95397 6.86433 6.03008C6.72411 6.10608 6.5865 6.2078 6.4515 6.33525L5.92316 6.14675C5.81727 6.11086 5.71411 6.11425 5.61366 6.15691C5.51322 6.19969 5.43477 6.26508 5.37833 6.35308L5.29 6.50958C5.23355 6.60436 5.21322 6.70925 5.229 6.82425C5.24489 6.93925 5.29683 7.03175 5.38483 7.10175L5.79 7.43775C5.74211 7.63597 5.71816 7.82314 5.71816 7.99925C5.71816 8.17536 5.74211 8.36252 5.79 8.56075L5.38483 8.89675C5.29683 8.96675 5.24489 9.05753 5.229 9.16908C5.21322 9.28064 5.23355 9.38386 5.29 9.47875L5.38866 9.64541C5.44511 9.73341 5.52183 9.7988 5.61883 9.84158C5.71583 9.88425 5.81727 9.88764 5.92316 9.85175L6.4515 9.66325C6.5865 9.79069 6.72411 9.89241 6.86433 9.96841C7.00444 10.0445 7.17111 10.1104 7.36433 10.1659ZM8.00016 9.33258C7.6335 9.33258 7.31961 9.20203 7.0585 8.94091C6.79739 8.6798 6.66683 8.36591 6.66683 7.99925C6.66683 7.63258 6.79739 7.31869 7.0585 7.05758C7.31961 6.79647 7.6335 6.66591 8.00016 6.66591C8.36683 6.66591 8.68072 6.79647 8.94183 7.05758C9.20294 7.31869 9.3335 7.63258 9.3335 7.99925C9.3335 8.36591 9.20294 8.6798 8.94183 8.94091C8.68072 9.20203 8.36683 9.33258 8.00016 9.33258ZM3.53866 13.6659C3.20188 13.6659 2.91683 13.5492 2.6835 13.3159C2.45016 13.0826 2.3335 12.7975 2.3335 12.4607V3.53775C2.3335 3.20097 2.45016 2.91591 2.6835 2.68258C2.91683 2.44925 3.20188 2.33258 3.53866 2.33258H12.4617C12.7984 2.33258 13.0835 2.44925 13.3168 2.68258C13.5502 2.91591 13.6668 3.20097 13.6668 3.53775V12.4607C13.6668 12.7975 13.5502 13.0826 13.3168 13.3159C13.0835 13.5492 12.7984 13.6659 12.4617 13.6659H3.53866ZM3.53866 12.6659H12.4617C12.513 12.6659 12.56 12.6445 12.6027 12.6017C12.6454 12.5591 12.6668 12.5121 12.6668 12.4607V3.53775C12.6668 3.48641 12.6454 3.43941 12.6027 3.39675C12.56 3.35397 12.513 3.33258 12.4617 3.33258H3.53866C3.48733 3.33258 3.44033 3.35397 3.39766 3.39675C3.35489 3.43941 3.3335 3.48641 3.3335 3.53775V12.4607C3.3335 12.5121 3.35489 12.5591 3.39766 12.6017C3.44033 12.6445 3.48733 12.6659 3.53866 12.6659Z" fill="#888888"/>
</g>
</g>
</svg>
