<svg width="20" height="20" viewBox="0 0 20 20" fill="none" xmlns="http://www.w3.org/2000/svg">
<g id="finance">
<mask id="mask0_146_31697" style="mask-type:alpha" maskUnits="userSpaceOnUse" x="0" y="0" width="20" height="20">
<rect id="Bounding box" width="20" height="20" fill="#D9D9D9"/>
</mask>
<g mask="url(#mask0_146_31697)">
<path id="finance_2" d="M4.21495 17.0833C3.79398 17.0833 3.43766 16.9375 3.146 16.6458C2.85433 16.3542 2.7085 15.9978 2.7085 15.5769V3.125C2.7085 2.94792 2.76843 2.79944 2.88829 2.67958C3.00815 2.55986 3.15662 2.5 3.3337 2.5C3.51093 2.5 3.65933 2.55986 3.77891 2.67958C3.89864 2.79944 3.9585 2.94792 3.9585 3.125V15.5769C3.9585 15.641 3.98523 15.6998 4.0387 15.7531C4.09204 15.8066 4.15079 15.8333 4.21495 15.8333H16.6668C16.8439 15.8333 16.9923 15.8933 17.112 16.0131C17.2319 16.133 17.2918 16.2815 17.2918 16.4585C17.2918 16.6358 17.2319 16.7842 17.112 16.9038C16.9923 17.0235 16.8439 17.0833 16.6668 17.0833H4.21495ZM6.29829 14.375C6.09398 14.375 5.92273 14.3059 5.78454 14.1677C5.6462 14.0294 5.57704 13.8581 5.57704 13.6538V8.30125C5.57704 8.09695 5.6462 7.92569 5.78454 7.7875C5.92273 7.64931 6.09398 7.58021 6.29829 7.58021H7.32391C7.53725 7.58021 7.71614 7.65257 7.86058 7.79729C8.00489 7.94201 8.07704 8.12139 8.07704 8.33542V13.6229C8.07704 13.8369 8.00489 14.0158 7.86058 14.1594C7.71614 14.3031 7.53725 14.375 7.32391 14.375H6.29829ZM10.2566 14.375C10.0523 14.375 9.88107 14.3059 9.74287 14.1677C9.60454 14.0294 9.53537 13.8581 9.53537 13.6538V4.16667C9.53537 3.95319 9.60759 3.77431 9.75204 3.63C9.89634 3.48569 10.0752 3.41354 10.2887 3.41354H11.3143C11.5186 3.41354 11.6899 3.48264 11.8281 3.62083C11.9663 3.75903 12.0354 3.93028 12.0354 4.13458V13.6217C12.0354 13.8351 11.9632 14.014 11.8189 14.1583C11.6745 14.3028 11.4956 14.375 11.2822 14.375H10.2566ZM14.215 14.375C14.0106 14.375 13.8393 14.3059 13.701 14.1677C13.5628 14.0294 13.4937 13.8581 13.4937 13.6538V11.6667C13.4937 11.4532 13.5659 11.2743 13.7104 11.13C13.8547 10.9857 14.0336 10.9135 14.247 10.9135H15.2725C15.4769 10.9135 15.6482 10.9826 15.7864 11.1208C15.9246 11.259 15.9937 11.4303 15.9937 11.6346V13.6217C15.9937 13.8351 15.9216 14.014 15.7772 14.1583C15.6328 14.3028 15.4539 14.375 15.2406 14.375H14.215Z" fill="white"/>
</g>
</g>
</svg>
