<svg width="14" height="14" viewBox="0 0 14 14" fill="none" xmlns="http://www.w3.org/2000/svg">
    <mask id="mask0_1725_3051" style="mask-type:alpha" maskUnits="userSpaceOnUse" x="0" y="0" width="14" height="14">
        <rect width="14" height="14" fill="#D9D9D9"/>
    </mask>
    <g mask="url(#mask0_1725_3051)">
        <path d="M7.00131 9.08658C7.66232 9.08658 8.22373 8.85524 8.68554 8.39256C9.14734 7.92988 9.37825 7.36804 9.37825 6.70702C9.37825 6.04601 9.14691 5.4846 8.68423 5.02279C8.22154 4.56099 7.6597 4.33008 6.99868 4.33008C6.33767 4.33008 5.77626 4.56142 5.31446 5.0241C4.85265 5.48679 4.62175 6.04863 4.62175 6.70965C4.62175 7.37066 4.85309 7.93207 5.31577 8.39388C5.77845 8.85568 6.34029 9.08658 7.00131 9.08658ZM7 8.28333C6.5625 8.28333 6.19062 8.13021 5.88437 7.82396C5.57812 7.51771 5.425 7.14583 5.425 6.70833C5.425 6.27083 5.57812 5.89896 5.88437 5.59271C6.19062 5.28646 6.5625 5.13333 7 5.13333C7.4375 5.13333 7.80937 5.28646 8.11562 5.59271C8.42187 5.89896 8.575 6.27083 8.575 6.70833C8.575 7.14583 8.42187 7.51771 8.11562 7.82396C7.80937 8.13021 7.4375 8.28333 7 8.28333ZM7 10.7917C5.77198 10.7917 4.64887 10.4641 3.63066 9.8089C2.61246 9.15381 1.79973 8.29194 1.19248 7.22327C1.14386 7.13947 1.10833 7.05503 1.08587 6.96996C1.06351 6.88489 1.05233 6.79758 1.05233 6.70804C1.05233 6.6185 1.06351 6.53129 1.08587 6.44642C1.10833 6.36154 1.14386 6.2772 1.19248 6.1934C1.79973 5.12473 2.61246 4.26285 3.63066 3.60777C4.64887 2.95259 5.77198 2.625 7 2.625C8.22801 2.625 9.35112 2.95259 10.3693 3.60777C11.3875 4.26285 12.2003 5.12473 12.8075 6.1934C12.8561 6.2772 12.8917 6.36164 12.9141 6.44671C12.9365 6.53178 12.9477 6.61908 12.9477 6.70863C12.9477 6.79817 12.9365 6.88538 12.9141 6.97025C12.8917 7.05513 12.8561 7.13947 12.8075 7.22327C12.2003 8.29194 11.3875 9.15381 10.3693 9.8089C9.35112 10.4641 8.22801 10.7917 7 10.7917ZM7 9.91667C8.09861 9.91667 9.10729 9.62743 10.026 9.04896C10.9448 8.47049 11.6472 7.69028 12.1333 6.70833C11.6472 5.72639 10.9448 4.94618 10.026 4.36771C9.10729 3.78924 8.09861 3.5 7 3.5C5.90139 3.5 4.8927 3.78924 3.97395 4.36771C3.0552 4.94618 2.35277 5.72639 1.86666 6.70833C2.35277 7.69028 3.0552 8.47049 3.97395 9.04896C4.8927 9.62743 5.90139 9.91667 7 9.91667Z" fill="#888888"/>
    </g>
</svg>
