<svg width="390" height="232" viewBox="0 0 390 232" fill="none" xmlns="http://www.w3.org/2000/svg">
<g opacity="0.5">
<path d="M223.748 1.86537C226.587 -1.40758 231.898 1.40833 230.781 5.59444L204.263 105.035L136.996 112.721C133.295 113.144 131.006 108.8 133.446 105.986L223.748 1.86537Z" fill="url(#paint0_linear_510_30643)"/>
<path d="M223.748 1.86537C226.587 -1.40758 231.898 1.40833 230.781 5.59444L204.263 105.035L136.996 112.721C133.295 113.144 131.006 108.8 133.446 105.986L223.748 1.86537Z" fill="url(#paint1_linear_510_30643)"/>
<path d="M223.748 1.86537C226.587 -1.40758 231.898 1.40833 230.781 5.59444L204.263 105.035L136.996 112.721C133.295 113.144 131.006 108.8 133.446 105.986L223.748 1.86537Z" stroke="url(#paint2_linear_510_30643)" stroke-width="0.867549"/>
<path d="M165.88 229.91C163.041 233.183 157.73 230.367 158.846 226.181L185.364 126.741L252.632 119.054C256.332 118.631 258.622 122.976 256.182 125.789L165.88 229.91Z" fill="url(#paint3_linear_510_30643)"/>
<path d="M165.88 229.91C163.041 233.183 157.73 230.367 158.846 226.181L185.364 126.741L252.632 119.054C256.332 118.631 258.622 122.976 256.182 125.789L165.88 229.91Z" fill="url(#paint4_linear_510_30643)"/>
<path d="M165.88 229.91C163.041 233.183 157.73 230.367 158.846 226.181L185.364 126.741L252.632 119.054C256.332 118.631 258.622 122.976 256.182 125.789L165.88 229.91Z" stroke="url(#paint5_linear_510_30643)" stroke-width="0.867549"/>
</g>
<path d="M84.308 97.588C84.308 96.412 83.846 95.39 82.922 94.522C82.026 93.654 80.752 93.22 79.1 93.22C77.7 93.22 76.594 93.514 75.782 94.102C74.97 94.662 74.564 95.432 74.564 96.412C74.564 96.916 74.662 97.378 74.858 97.798C75.054 98.19 75.39 98.554 75.866 98.89C76.37 99.198 77.014 99.478 77.798 99.73C78.61 99.982 79.632 100.22 80.864 100.444C83.944 101.004 86.296 101.942 87.92 103.258C89.544 104.574 90.356 106.52 90.356 109.096V109.6C90.356 110.972 90.104 112.218 89.6 113.338C89.124 114.43 88.424 115.368 87.5 116.152C86.576 116.936 85.456 117.538 84.14 117.958C82.824 118.378 81.34 118.588 79.688 118.588C77.756 118.588 76.048 118.322 74.564 117.79C73.108 117.23 71.89 116.474 70.91 115.522C69.93 114.542 69.188 113.408 68.684 112.12C68.18 110.804 67.928 109.376 67.928 107.836V106.576H73.472V107.584C73.472 109.348 73.976 110.762 74.984 111.826C76.02 112.862 77.616 113.38 79.772 113.38C81.452 113.38 82.698 113.016 83.51 112.288C84.322 111.56 84.728 110.692 84.728 109.684C84.728 109.208 84.644 108.76 84.476 108.34C84.308 107.892 84.014 107.5 83.594 107.164C83.174 106.8 82.6 106.478 81.872 106.198C81.144 105.918 80.22 105.68 79.1 105.484C77.616 105.232 76.258 104.91 75.026 104.518C73.794 104.098 72.716 103.552 71.792 102.88C70.896 102.208 70.196 101.368 69.692 100.36C69.188 99.352 68.936 98.12 68.936 96.664V96.412C68.936 95.208 69.174 94.102 69.65 93.094C70.154 92.058 70.84 91.162 71.708 90.406C72.604 89.65 73.668 89.062 74.9 88.642C76.16 88.222 77.56 88.012 79.1 88.012C80.836 88.012 82.376 88.264 83.72 88.768C85.064 89.244 86.184 89.902 87.08 90.742C88.004 91.582 88.69 92.548 89.138 93.64C89.614 94.732 89.852 95.88 89.852 97.084V98.596H84.308V97.588ZM109.521 97.168H114.813V118H109.521V114.976H108.765C107.841 117.384 105.853 118.588 102.801 118.588C101.765 118.588 100.799 118.42 99.9028 118.084C99.0068 117.748 98.2228 117.23 97.5508 116.53C96.8788 115.83 96.3468 114.962 95.9548 113.926C95.5908 112.862 95.4088 111.616 95.4088 110.188V97.168H100.701V109.096C100.701 110.58 101.051 111.742 101.751 112.582C102.451 113.394 103.501 113.8 104.901 113.8C106.497 113.8 107.659 113.296 108.387 112.288C109.143 111.252 109.521 109.852 109.521 108.088V97.168ZM125.326 126.4H120.034V97.168H125.326V100.192H126.082C126.642 99.044 127.454 98.162 128.518 97.546C129.582 96.902 130.94 96.58 132.592 96.58C133.824 96.58 134.986 96.818 136.078 97.294C137.198 97.77 138.164 98.47 138.976 99.394C139.816 100.29 140.474 101.396 140.95 102.712C141.454 104.028 141.706 105.526 141.706 107.206V107.962C141.706 109.67 141.468 111.182 140.992 112.498C140.516 113.814 139.872 114.934 139.06 115.858C138.248 116.754 137.282 117.44 136.162 117.916C135.07 118.364 133.88 118.588 132.592 118.588C131.64 118.588 130.814 118.49 130.114 118.294C129.414 118.098 128.798 117.832 128.266 117.496C127.762 117.16 127.328 116.782 126.964 116.362C126.628 115.914 126.334 115.452 126.082 114.976H125.326V126.4ZM130.87 113.548C132.522 113.548 133.852 113.044 134.86 112.036C135.896 111 136.414 109.6 136.414 107.836V107.332C136.414 105.568 135.896 104.182 134.86 103.174C133.852 102.138 132.522 101.62 130.87 101.62C129.218 101.62 127.874 102.152 126.838 103.216C125.83 104.252 125.326 105.624 125.326 107.332V107.836C125.326 109.544 125.83 110.93 126.838 111.994C127.874 113.03 129.218 113.548 130.87 113.548ZM151.504 109.306C151.532 109.922 151.672 110.496 151.924 111.028C152.204 111.532 152.568 111.98 153.016 112.372C153.492 112.736 154.024 113.03 154.612 113.254C155.228 113.45 155.872 113.548 156.544 113.548C157.86 113.548 158.868 113.324 159.568 112.876C160.268 112.4 160.772 111.84 161.08 111.196L165.616 113.716C165.364 114.248 165.014 114.808 164.566 115.396C164.118 115.956 163.53 116.474 162.802 116.95C162.102 117.426 161.234 117.818 160.198 118.126C159.19 118.434 158 118.588 156.628 118.588C155.06 118.588 153.632 118.336 152.344 117.832C151.056 117.328 149.936 116.6 148.984 115.648C148.06 114.696 147.332 113.534 146.8 112.162C146.296 110.79 146.044 109.236 146.044 107.5V107.248C146.044 105.652 146.31 104.196 146.842 102.88C147.402 101.564 148.158 100.444 149.11 99.52C150.062 98.596 151.168 97.882 152.428 97.378C153.716 96.846 155.088 96.58 156.544 96.58C158.336 96.58 159.876 96.902 161.164 97.546C162.452 98.162 163.516 98.96 164.356 99.94C165.196 100.892 165.812 101.956 166.204 103.132C166.596 104.28 166.792 105.4 166.792 106.492V109.306H151.504ZM156.502 101.368C155.158 101.368 154.066 101.718 153.226 102.418C152.386 103.09 151.84 103.874 151.588 104.77H161.416C161.248 103.79 160.716 102.978 159.82 102.334C158.952 101.69 157.846 101.368 156.502 101.368ZM171.551 97.168H180.371V100.192H181.127C181.519 99.044 182.177 98.162 183.101 97.546C184.053 96.902 185.187 96.58 186.503 96.58C188.575 96.58 190.241 97.238 191.501 98.554C192.761 99.842 193.391 101.816 193.391 104.476V105.4L187.931 105.904V105.316C187.931 104.168 187.637 103.258 187.049 102.586C186.461 101.886 185.579 101.536 184.403 101.536C183.227 101.536 182.303 101.942 181.631 102.754C180.959 103.566 180.623 104.728 180.623 106.24V112.96H185.411V118H171.047V112.96H175.331V102.208H171.551V97.168ZM207.936 113.548C209 113.548 209.868 113.394 210.54 113.086C211.24 112.75 211.772 112.316 212.136 111.784C212.528 111.224 212.794 110.594 212.934 109.894C213.074 109.166 213.144 108.424 213.144 107.668V106.912H218.688V107.668C218.688 111.168 217.764 113.87 215.916 115.774C214.096 117.65 211.436 118.588 207.936 118.588C204.576 118.588 201.916 117.566 199.956 115.522C197.996 113.478 197.016 110.496 197.016 106.576V100.024C197.016 98.148 197.268 96.468 197.772 94.984C198.276 93.472 199.004 92.212 199.956 91.204C200.908 90.168 202.056 89.384 203.4 88.852C204.744 88.292 206.256 88.012 207.936 88.012C209.672 88.012 211.212 88.264 212.556 88.768C213.9 89.272 215.02 90 215.916 90.952C216.84 91.904 217.526 93.052 217.974 94.396C218.45 95.74 218.688 97.252 218.688 98.932V99.688H213.144V98.932C213.144 98.232 213.06 97.532 212.892 96.832C212.724 96.132 212.444 95.502 212.052 94.942C211.66 94.382 211.128 93.934 210.456 93.598C209.784 93.234 208.944 93.052 207.936 93.052C207.012 93.052 206.214 93.234 205.542 93.598C204.87 93.934 204.31 94.41 203.862 95.026C203.414 95.614 203.078 96.314 202.854 97.126C202.658 97.91 202.56 98.736 202.56 99.604V106.996C202.56 107.948 202.658 108.83 202.854 109.642C203.05 110.426 203.358 111.112 203.778 111.7C204.198 112.288 204.744 112.75 205.416 113.086C206.116 113.394 206.956 113.548 207.936 113.548ZM244.405 107.836C244.405 109.572 244.111 111.112 243.523 112.456C242.935 113.772 242.137 114.892 241.129 115.816C240.121 116.712 238.959 117.398 237.643 117.874C236.355 118.35 234.997 118.588 233.569 118.588C232.141 118.588 230.769 118.35 229.453 117.874C228.165 117.398 227.017 116.712 226.009 115.816C225.001 114.892 224.203 113.772 223.615 112.456C223.027 111.112 222.733 109.572 222.733 107.836V107.332C222.733 105.624 223.027 104.112 223.615 102.796C224.203 101.452 225.001 100.318 226.009 99.394C227.017 98.47 228.165 97.77 229.453 97.294C230.769 96.818 232.141 96.58 233.569 96.58C234.997 96.58 236.355 96.818 237.643 97.294C238.959 97.77 240.121 98.47 241.129 99.394C242.137 100.318 242.935 101.452 243.523 102.796C244.111 104.112 244.405 105.624 244.405 107.332V107.836ZM233.569 113.548C234.325 113.548 235.039 113.422 235.711 113.17C236.383 112.918 236.971 112.554 237.475 112.078C237.979 111.602 238.371 111.028 238.651 110.356C238.959 109.656 239.113 108.872 239.113 108.004V107.164C239.113 106.296 238.959 105.526 238.651 104.854C238.371 104.154 237.979 103.566 237.475 103.09C236.971 102.614 236.383 102.25 235.711 101.998C235.039 101.746 234.325 101.62 233.569 101.62C232.813 101.62 232.099 101.746 231.427 101.998C230.755 102.25 230.167 102.614 229.663 103.09C229.159 103.566 228.753 104.154 228.445 104.854C228.165 105.526 228.025 106.296 228.025 107.164V108.004C228.025 108.872 228.165 109.656 228.445 110.356C228.753 111.028 229.159 111.602 229.663 112.078C230.167 112.554 230.755 112.918 231.427 113.17C232.099 113.422 232.813 113.548 233.569 113.548ZM264.662 114.976H263.906C263.682 115.452 263.402 115.914 263.066 116.362C262.758 116.782 262.338 117.16 261.806 117.496C261.302 117.832 260.686 118.098 259.958 118.294C259.258 118.49 258.404 118.588 257.396 118.588C256.108 118.588 254.904 118.364 253.784 117.916C252.692 117.44 251.726 116.754 250.886 115.858C250.074 114.934 249.43 113.814 248.954 112.498C248.506 111.182 248.282 109.67 248.282 107.962V107.206C248.282 105.526 248.52 104.028 248.996 102.712C249.5 101.396 250.172 100.29 251.012 99.394C251.88 98.47 252.874 97.77 253.994 97.294C255.142 96.818 256.346 96.58 257.606 96.58C259.286 96.58 260.616 96.902 261.596 97.546C262.576 98.162 263.346 99.044 263.906 100.192H264.662V88.6H269.954V118H264.662V114.976ZM259.118 113.548C260.77 113.548 262.1 113.03 263.108 111.994C264.144 110.93 264.662 109.544 264.662 107.836V107.332C264.662 105.624 264.144 104.252 263.108 103.216C262.1 102.152 260.77 101.62 259.118 101.62C257.466 101.62 256.122 102.138 255.086 103.174C254.078 104.182 253.574 105.568 253.574 107.332V107.836C253.574 109.6 254.078 111 255.086 112.036C256.122 113.044 257.466 113.548 259.118 113.548ZM280.088 109.306C280.116 109.922 280.256 110.496 280.508 111.028C280.788 111.532 281.152 111.98 281.6 112.372C282.076 112.736 282.608 113.03 283.196 113.254C283.812 113.45 284.456 113.548 285.128 113.548C286.444 113.548 287.452 113.324 288.152 112.876C288.852 112.4 289.356 111.84 289.664 111.196L294.2 113.716C293.948 114.248 293.598 114.808 293.15 115.396C292.702 115.956 292.114 116.474 291.386 116.95C290.686 117.426 289.818 117.818 288.782 118.126C287.774 118.434 286.584 118.588 285.212 118.588C283.644 118.588 282.216 118.336 280.928 117.832C279.64 117.328 278.52 116.6 277.568 115.648C276.644 114.696 275.916 113.534 275.384 112.162C274.88 110.79 274.628 109.236 274.628 107.5V107.248C274.628 105.652 274.894 104.196 275.426 102.88C275.986 101.564 276.742 100.444 277.694 99.52C278.646 98.596 279.752 97.882 281.012 97.378C282.3 96.846 283.672 96.58 285.128 96.58C286.92 96.58 288.46 96.902 289.748 97.546C291.036 98.162 292.1 98.96 292.94 99.94C293.78 100.892 294.396 101.956 294.788 103.132C295.18 104.28 295.376 105.4 295.376 106.492V109.306H280.088ZM285.086 101.368C283.742 101.368 282.65 101.718 281.81 102.418C280.97 103.09 280.424 103.874 280.172 104.77H290C289.832 103.79 289.3 102.978 288.404 102.334C287.536 101.69 286.43 101.368 285.086 101.368ZM300.135 97.168H308.955V100.192H309.711C310.103 99.044 310.761 98.162 311.685 97.546C312.637 96.902 313.771 96.58 315.087 96.58C317.159 96.58 318.825 97.238 320.085 98.554C321.345 99.842 321.975 101.816 321.975 104.476V105.4L316.515 105.904V105.316C316.515 104.168 316.221 103.258 315.633 102.586C315.045 101.886 314.163 101.536 312.987 101.536C311.811 101.536 310.887 101.942 310.215 102.754C309.543 103.566 309.207 104.728 309.207 106.24V112.96H313.995V118H299.631V112.96H303.915V102.208H300.135V97.168Z" fill="white"/>
<path d="M41.2337 156L46.1657 142.59H47.3717L52.3037 156H51.0437L49.8197 152.58H43.7177L42.4757 156H41.2337ZM44.0957 151.5H49.4237L46.5437 143.49H46.9757L44.0957 151.5ZM57.3018 156.216C56.6538 156.216 56.0538 156.066 55.5018 155.766C54.9618 155.466 54.5298 155.046 54.2058 154.506C53.8818 153.954 53.7198 153.3 53.7198 152.544V146.442H54.7998V152.454C54.7998 153.018 54.9138 153.504 55.1418 153.912C55.3818 154.308 55.6998 154.614 56.0958 154.83C56.5038 155.046 56.9598 155.154 57.4638 155.154C58.0158 155.154 58.4898 155.028 58.8858 154.776C59.2938 154.524 59.6058 154.176 59.8218 153.732C60.0378 153.276 60.1458 152.76 60.1458 152.184V146.442H61.2258V156H60.1458V154.056L60.4158 154.146C60.1998 154.77 59.8158 155.274 59.2638 155.658C58.7118 156.03 58.0578 156.216 57.3018 156.216ZM67.6926 156.108C66.9006 156.108 66.2886 155.886 65.8566 155.442C65.4246 154.986 65.2086 154.326 65.2086 153.462V147.468H63.4086V146.442H64.0926C64.4526 146.442 64.7286 146.334 64.9206 146.118C65.1126 145.902 65.2086 145.608 65.2086 145.236V144.21H66.2886V146.442H68.3766V147.468H66.2886V153.462C66.2886 153.726 66.3246 153.984 66.3966 154.236C66.4806 154.488 66.6366 154.692 66.8646 154.848C67.0926 155.004 67.4226 155.082 67.8546 155.082C67.9506 155.082 68.0646 155.076 68.1966 155.064C68.3406 155.052 68.4546 155.04 68.5386 155.028V156C68.4066 156.036 68.2566 156.06 68.0886 156.072C67.9206 156.096 67.7886 156.108 67.6926 156.108ZM75.2213 156.216C74.3093 156.216 73.4873 156 72.7553 155.568C72.0233 155.136 71.4412 154.542 71.0093 153.786C70.5893 153.018 70.3793 152.16 70.3793 151.212C70.3793 150.264 70.5893 149.412 71.0093 148.656C71.4412 147.9 72.0173 147.306 72.7373 146.874C73.4693 146.442 74.2973 146.226 75.2213 146.226C76.1333 146.226 76.9553 146.442 77.6873 146.874C78.4193 147.306 78.9953 147.9 79.4153 148.656C79.8353 149.4 80.0453 150.252 80.0453 151.212C80.0453 152.172 79.8293 153.03 79.3973 153.786C78.9653 154.542 78.3833 155.136 77.6513 155.568C76.9313 156 76.1213 156.216 75.2213 156.216ZM75.2213 155.154C75.9053 155.154 76.5233 154.986 77.0753 154.65C77.6393 154.302 78.0833 153.828 78.4073 153.228C78.7313 152.628 78.8933 151.956 78.8933 151.212C78.8933 150.468 78.7313 149.802 78.4073 149.214C78.0833 148.626 77.6453 148.158 77.0933 147.81C76.5413 147.462 75.9173 147.288 75.2213 147.288C74.5253 147.288 73.8953 147.462 73.3313 147.81C72.7793 148.146 72.3413 148.614 72.0173 149.214C71.6933 149.802 71.5312 150.468 71.5312 151.212C71.5312 151.956 71.6933 152.628 72.0173 153.228C72.3533 153.828 72.7973 154.302 73.3493 154.65C73.9013 154.986 74.5253 155.154 75.2213 155.154ZM82.6405 156V146.442H83.7205V148.368L83.4505 148.296C83.6665 147.66 84.0505 147.156 84.6025 146.784C85.1665 146.412 85.8205 146.226 86.5645 146.226C87.2245 146.226 87.8245 146.376 88.3645 146.676C88.9045 146.976 89.3365 147.396 89.6605 147.936C89.9845 148.464 90.1465 149.07 90.1465 149.754V156H89.0665V150.06C89.0665 149.484 88.9525 148.992 88.7245 148.584C88.4965 148.164 88.1785 147.846 87.7705 147.63C87.3745 147.402 86.9185 147.288 86.4025 147.288C85.8625 147.288 85.3885 147.414 84.9805 147.666C84.5725 147.918 84.2605 148.266 84.0445 148.71C83.8285 149.154 83.7205 149.664 83.7205 150.24V156H82.6405ZM97.3873 156.216C96.4753 156.216 95.6533 156 94.9213 155.568C94.1893 155.136 93.6073 154.542 93.1753 153.786C92.7553 153.018 92.5453 152.16 92.5453 151.212C92.5453 150.264 92.7553 149.412 93.1753 148.656C93.6073 147.9 94.1833 147.306 94.9033 146.874C95.6353 146.442 96.4633 146.226 97.3873 146.226C98.2993 146.226 99.1213 146.442 99.8533 146.874C100.585 147.306 101.161 147.9 101.581 148.656C102.001 149.4 102.211 150.252 102.211 151.212C102.211 152.172 101.995 153.03 101.563 153.786C101.131 154.542 100.549 155.136 99.8173 155.568C99.0973 156 98.2873 156.216 97.3873 156.216ZM97.3873 155.154C98.0713 155.154 98.6893 154.986 99.2413 154.65C99.8053 154.302 100.249 153.828 100.573 153.228C100.897 152.628 101.059 151.956 101.059 151.212C101.059 150.468 100.897 149.802 100.573 149.214C100.249 148.626 99.8113 148.158 99.2593 147.81C98.7073 147.462 98.0833 147.288 97.3873 147.288C96.6913 147.288 96.0613 147.462 95.4973 147.81C94.9453 148.146 94.5073 148.614 94.1833 149.214C93.8593 149.802 93.6973 150.468 93.6973 151.212C93.6973 151.956 93.8593 152.628 94.1833 153.228C94.5193 153.828 94.9633 154.302 95.5153 154.65C96.0673 154.986 96.6913 155.154 97.3873 155.154ZM104.807 156V146.442H105.887V148.368L105.688 148.098C105.929 147.522 106.313 147.066 106.841 146.73C107.381 146.394 107.981 146.226 108.641 146.226C109.385 146.226 110.063 146.442 110.675 146.874C111.287 147.294 111.713 147.858 111.953 148.566L111.611 148.584C111.815 147.852 112.217 147.276 112.816 146.856C113.429 146.436 114.107 146.226 114.851 146.226C115.487 146.226 116.069 146.376 116.597 146.676C117.137 146.976 117.569 147.396 117.893 147.936C118.229 148.464 118.397 149.07 118.397 149.754V156H117.317V150.06C117.317 149.484 117.197 148.992 116.957 148.584C116.729 148.164 116.423 147.846 116.039 147.63C115.655 147.402 115.223 147.288 114.743 147.288C114.227 147.288 113.771 147.414 113.375 147.666C112.991 147.918 112.685 148.266 112.457 148.71C112.241 149.154 112.133 149.664 112.133 150.24V156H111.053V150.06C111.053 149.484 110.939 148.992 110.711 148.584C110.483 148.164 110.171 147.846 109.775 147.63C109.391 147.402 108.959 147.288 108.479 147.288C107.963 147.288 107.507 147.414 107.111 147.666C106.727 147.918 106.427 148.266 106.211 148.71C105.995 149.154 105.887 149.664 105.887 150.24V156H104.807ZM125.618 156.216C124.706 156.216 123.884 156 123.152 155.568C122.42 155.136 121.838 154.542 121.406 153.786C120.986 153.018 120.776 152.16 120.776 151.212C120.776 150.264 120.986 149.412 121.406 148.656C121.838 147.9 122.414 147.306 123.134 146.874C123.866 146.442 124.694 146.226 125.618 146.226C126.53 146.226 127.352 146.442 128.084 146.874C128.816 147.306 129.392 147.9 129.812 148.656C130.232 149.4 130.442 150.252 130.442 151.212C130.442 152.172 130.226 153.03 129.794 153.786C129.362 154.542 128.78 155.136 128.048 155.568C127.328 156 126.518 156.216 125.618 156.216ZM125.618 155.154C126.302 155.154 126.92 154.986 127.472 154.65C128.036 154.302 128.48 153.828 128.804 153.228C129.128 152.628 129.29 151.956 129.29 151.212C129.29 150.468 129.128 149.802 128.804 149.214C128.48 148.626 128.042 148.158 127.49 147.81C126.938 147.462 126.314 147.288 125.618 147.288C124.922 147.288 124.292 147.462 123.728 147.81C123.176 148.146 122.738 148.614 122.414 149.214C122.09 149.802 121.928 150.468 121.928 151.212C121.928 151.956 122.09 152.628 122.414 153.228C122.75 153.828 123.194 154.302 123.746 154.65C124.298 154.986 124.922 155.154 125.618 155.154ZM136.421 156.216C135.773 156.216 135.173 156.066 134.621 155.766C134.081 155.466 133.649 155.046 133.325 154.506C133.001 153.954 132.839 153.3 132.839 152.544V146.442H133.919V152.454C133.919 153.018 134.033 153.504 134.261 153.912C134.501 154.308 134.819 154.614 135.215 154.83C135.623 155.046 136.079 155.154 136.583 155.154C137.135 155.154 137.609 155.028 138.005 154.776C138.413 154.524 138.725 154.176 138.941 153.732C139.157 153.276 139.265 152.76 139.265 152.184V146.442H140.345V156H139.265V154.056L139.535 154.146C139.319 154.77 138.935 155.274 138.383 155.658C137.831 156.03 137.177 156.216 136.421 156.216ZM146.56 156.216C145.672 156.216 144.892 155.994 144.22 155.55C143.548 155.106 143.056 154.5 142.744 153.732L143.68 153.3C143.98 153.888 144.382 154.356 144.886 154.704C145.39 155.04 145.948 155.208 146.56 155.208C147.184 155.208 147.706 155.058 148.126 154.758C148.558 154.446 148.774 154.038 148.774 153.534C148.774 153.222 148.69 152.958 148.522 152.742C148.366 152.526 148.162 152.352 147.91 152.22C147.658 152.076 147.388 151.968 147.1 151.896L145.624 151.482C144.796 151.254 144.184 150.918 143.788 150.474C143.404 150.03 143.212 149.508 143.212 148.908C143.212 148.368 143.35 147.9 143.626 147.504C143.902 147.096 144.274 146.784 144.742 146.568C145.21 146.34 145.726 146.226 146.29 146.226C147.082 146.226 147.802 146.43 148.45 146.838C149.098 147.246 149.554 147.798 149.818 148.494L148.846 148.944C148.594 148.404 148.24 147.984 147.784 147.684C147.328 147.372 146.824 147.216 146.272 147.216C145.696 147.216 145.228 147.372 144.868 147.684C144.508 147.984 144.328 148.368 144.328 148.836C144.328 149.136 144.4 149.388 144.544 149.592C144.688 149.784 144.874 149.946 145.102 150.078C145.342 150.198 145.588 150.294 145.84 150.366L147.442 150.834C148.222 151.05 148.822 151.392 149.242 151.86C149.674 152.328 149.89 152.88 149.89 153.516C149.89 154.032 149.746 154.494 149.458 154.902C149.17 155.31 148.774 155.634 148.27 155.874C147.766 156.102 147.196 156.216 146.56 156.216ZM158.671 156.216C157.783 156.216 157.003 155.994 156.331 155.55C155.659 155.106 155.167 154.5 154.855 153.732L155.791 153.3C156.091 153.888 156.493 154.356 156.997 154.704C157.501 155.04 158.059 155.208 158.671 155.208C159.295 155.208 159.817 155.058 160.237 154.758C160.669 154.446 160.885 154.038 160.885 153.534C160.885 153.222 160.801 152.958 160.633 152.742C160.477 152.526 160.273 152.352 160.021 152.22C159.769 152.076 159.499 151.968 159.211 151.896L157.735 151.482C156.907 151.254 156.295 150.918 155.899 150.474C155.515 150.03 155.323 149.508 155.323 148.908C155.323 148.368 155.461 147.9 155.737 147.504C156.013 147.096 156.385 146.784 156.853 146.568C157.321 146.34 157.837 146.226 158.401 146.226C159.193 146.226 159.913 146.43 160.561 146.838C161.209 147.246 161.665 147.798 161.929 148.494L160.957 148.944C160.705 148.404 160.351 147.984 159.895 147.684C159.439 147.372 158.935 147.216 158.383 147.216C157.807 147.216 157.339 147.372 156.979 147.684C156.619 147.984 156.439 148.368 156.439 148.836C156.439 149.136 156.511 149.388 156.655 149.592C156.799 149.784 156.985 149.946 157.213 150.078C157.453 150.198 157.699 150.294 157.951 150.366L159.553 150.834C160.333 151.05 160.933 151.392 161.353 151.86C161.785 152.328 162.001 152.88 162.001 153.516C162.001 154.032 161.857 154.494 161.569 154.902C161.281 155.31 160.885 155.634 160.381 155.874C159.877 156.102 159.307 156.216 158.671 156.216ZM169.036 156.216C168.124 156.216 167.302 156 166.57 155.568C165.838 155.136 165.256 154.542 164.824 153.786C164.404 153.018 164.194 152.16 164.194 151.212C164.194 150.264 164.404 149.412 164.824 148.656C165.256 147.9 165.832 147.306 166.552 146.874C167.284 146.442 168.112 146.226 169.036 146.226C169.948 146.226 170.77 146.442 171.502 146.874C172.234 147.306 172.81 147.9 173.23 148.656C173.65 149.4 173.86 150.252 173.86 151.212C173.86 152.172 173.644 153.03 173.212 153.786C172.78 154.542 172.198 155.136 171.466 155.568C170.746 156 169.936 156.216 169.036 156.216ZM169.036 155.154C169.72 155.154 170.338 154.986 170.89 154.65C171.454 154.302 171.898 153.828 172.222 153.228C172.546 152.628 172.708 151.956 172.708 151.212C172.708 150.468 172.546 149.802 172.222 149.214C171.898 148.626 171.46 148.158 170.908 147.81C170.356 147.462 169.732 147.288 169.036 147.288C168.34 147.288 167.71 147.462 167.146 147.81C166.594 148.146 166.156 148.614 165.832 149.214C165.508 149.802 165.346 150.468 165.346 151.212C165.346 151.956 165.508 152.628 165.832 153.228C166.168 153.828 166.612 154.302 167.164 154.65C167.716 154.986 168.34 155.154 169.036 155.154ZM177.005 156V147.468H175.061V146.442H177.005V145.524C177.005 144.852 177.137 144.282 177.401 143.814C177.677 143.346 178.049 142.992 178.517 142.752C178.985 142.5 179.501 142.374 180.065 142.374C180.197 142.374 180.329 142.386 180.461 142.41C180.605 142.422 180.725 142.44 180.821 142.464V143.436C180.725 143.412 180.611 143.4 180.479 143.4C180.347 143.388 180.245 143.382 180.173 143.382C179.549 143.382 179.045 143.562 178.661 143.922C178.277 144.27 178.085 144.804 178.085 145.524V146.442H180.461V147.468H178.085V156H177.005ZM186.679 156.108C185.887 156.108 185.275 155.886 184.843 155.442C184.411 154.986 184.195 154.326 184.195 153.462V147.468H182.395V146.442H183.079C183.439 146.442 183.715 146.334 183.907 146.118C184.099 145.902 184.195 145.608 184.195 145.236V144.21H185.275V146.442H187.363V147.468H185.275V153.462C185.275 153.726 185.311 153.984 185.383 154.236C185.467 154.488 185.623 154.692 185.851 154.848C186.079 155.004 186.409 155.082 186.841 155.082C186.937 155.082 187.051 155.076 187.183 155.064C187.327 155.052 187.441 155.04 187.525 155.028V156C187.393 156.036 187.243 156.06 187.075 156.072C186.907 156.096 186.775 156.108 186.679 156.108ZM192.201 156L188.925 146.442H190.131L192.993 155.1H192.525L195.117 146.442H196.215L198.807 155.1H198.339L201.219 146.442H202.425L199.131 156H198.033L195.531 147.648H195.801L193.299 156H192.201ZM206.595 156.216C205.995 156.216 205.461 156.102 204.993 155.874C204.525 155.646 204.153 155.328 203.877 154.92C203.601 154.512 203.463 154.044 203.463 153.516C203.463 153.048 203.565 152.61 203.769 152.202C203.973 151.794 204.303 151.446 204.759 151.158C205.215 150.858 205.809 150.648 206.541 150.528L210.411 149.88V150.888L206.829 151.482C206.013 151.614 205.437 151.86 205.101 152.22C204.765 152.58 204.597 153 204.597 153.48C204.597 153.996 204.789 154.416 205.173 154.74C205.569 155.064 206.067 155.226 206.667 155.226C207.363 155.226 207.969 155.07 208.485 154.758C209.001 154.434 209.403 154.014 209.691 153.498C209.979 152.97 210.123 152.394 210.123 151.77V149.394C210.123 148.758 209.895 148.242 209.439 147.846C208.983 147.45 208.389 147.252 207.657 147.252C207.057 147.252 206.517 147.402 206.037 147.702C205.557 148.002 205.191 148.392 204.939 148.872L203.967 148.35C204.147 147.966 204.423 147.612 204.795 147.288C205.167 146.964 205.599 146.706 206.091 146.514C206.583 146.322 207.105 146.226 207.657 146.226C208.353 146.226 208.965 146.364 209.493 146.64C210.033 146.904 210.453 147.276 210.753 147.756C211.053 148.224 211.203 148.77 211.203 149.394V156H210.123V154.002L210.249 154.092C210.093 154.476 209.835 154.83 209.475 155.154C209.115 155.466 208.689 155.724 208.197 155.928C207.717 156.12 207.183 156.216 206.595 156.216ZM214.178 156V146.442H215.258V148.224L215.06 148.062C215.264 147.522 215.612 147.096 216.104 146.784C216.608 146.472 217.202 146.316 217.886 146.316H218.498V147.396H217.76C216.98 147.396 216.368 147.648 215.924 148.152C215.48 148.644 215.258 149.31 215.258 150.15V156H214.178ZM224.651 156.216C223.751 156.216 222.941 156 222.221 155.568C221.501 155.124 220.931 154.524 220.511 153.768C220.091 153 219.881 152.142 219.881 151.194C219.881 150.246 220.085 149.4 220.493 148.656C220.901 147.9 221.453 147.306 222.149 146.874C222.845 146.442 223.625 146.226 224.489 146.226C225.149 146.226 225.743 146.346 226.271 146.586C226.811 146.826 227.273 147.162 227.657 147.594C228.053 148.014 228.353 148.5 228.557 149.052C228.773 149.592 228.881 150.162 228.881 150.762C228.881 150.882 228.875 151.008 228.863 151.14C228.851 151.272 228.833 151.41 228.809 151.554H220.511V150.564H228.197L227.711 150.942C227.783 150.246 227.681 149.622 227.405 149.07C227.129 148.506 226.733 148.062 226.217 147.738C225.713 147.402 225.137 147.234 224.489 147.234C223.841 147.234 223.247 147.408 222.707 147.756C222.167 148.092 221.741 148.56 221.429 149.16C221.117 149.748 220.973 150.432 220.997 151.212C220.973 151.992 221.123 152.682 221.447 153.282C221.771 153.882 222.215 154.356 222.779 154.704C223.343 155.04 223.967 155.208 224.651 155.208C225.347 155.208 225.953 155.046 226.469 154.722C226.985 154.386 227.405 153.942 227.729 153.39L228.647 153.876C228.431 154.32 228.125 154.722 227.729 155.082C227.333 155.43 226.871 155.706 226.343 155.91C225.827 156.114 225.263 156.216 224.651 156.216ZM238.73 156.216C237.842 156.216 237.038 156 236.318 155.568C235.61 155.124 235.052 154.524 234.644 153.768C234.236 153.012 234.032 152.16 234.032 151.212C234.032 150.264 234.236 149.412 234.644 148.656C235.052 147.9 235.61 147.306 236.318 146.874C237.038 146.442 237.842 146.226 238.73 146.226C239.606 146.226 240.386 146.436 241.07 146.856C241.754 147.264 242.27 147.816 242.618 148.512L242.438 148.854V142.374H243.518V156H242.438V153.57L242.618 153.822C242.282 154.566 241.766 155.154 241.07 155.586C240.386 156.006 239.606 156.216 238.73 156.216ZM238.766 155.136C239.462 155.136 240.08 154.968 240.62 154.632C241.172 154.284 241.61 153.816 241.934 153.228C242.258 152.628 242.42 151.956 242.42 151.212C242.42 150.468 242.258 149.802 241.934 149.214C241.61 148.626 241.172 148.164 240.62 147.828C240.08 147.48 239.462 147.306 238.766 147.306C238.082 147.306 237.47 147.48 236.93 147.828C236.39 148.164 235.964 148.626 235.652 149.214C235.34 149.802 235.184 150.468 235.184 151.212C235.184 151.956 235.34 152.628 235.652 153.228C235.964 153.816 236.39 154.284 236.93 154.632C237.47 154.968 238.082 155.136 238.766 155.136ZM250.878 156.216C249.978 156.216 249.168 156 248.448 155.568C247.728 155.124 247.158 154.524 246.738 153.768C246.318 153 246.108 152.142 246.108 151.194C246.108 150.246 246.312 149.4 246.72 148.656C247.128 147.9 247.68 147.306 248.376 146.874C249.072 146.442 249.852 146.226 250.716 146.226C251.376 146.226 251.97 146.346 252.498 146.586C253.038 146.826 253.5 147.162 253.884 147.594C254.28 148.014 254.58 148.5 254.784 149.052C255 149.592 255.108 150.162 255.108 150.762C255.108 150.882 255.102 151.008 255.09 151.14C255.078 151.272 255.06 151.41 255.036 151.554H246.738V150.564H254.424L253.938 150.942C254.01 150.246 253.908 149.622 253.632 149.07C253.356 148.506 252.96 148.062 252.444 147.738C251.94 147.402 251.364 147.234 250.716 147.234C250.068 147.234 249.474 147.408 248.934 147.756C248.394 148.092 247.968 148.56 247.656 149.16C247.344 149.748 247.2 150.432 247.224 151.212C247.2 151.992 247.35 152.682 247.674 153.282C247.998 153.882 248.442 154.356 249.006 154.704C249.57 155.04 250.194 155.208 250.878 155.208C251.574 155.208 252.18 155.046 252.696 154.722C253.212 154.386 253.632 153.942 253.956 153.39L254.874 153.876C254.658 154.32 254.352 154.722 253.956 155.082C253.56 155.43 253.098 155.706 252.57 155.91C252.054 156.114 251.49 156.216 250.878 156.216ZM260.1 156L256.32 146.442H257.526L260.874 155.046H260.46L263.808 146.442H265.05L261.216 156H260.1ZM271.022 156.216C270.122 156.216 269.312 156 268.592 155.568C267.872 155.124 267.302 154.524 266.882 153.768C266.462 153 266.252 152.142 266.252 151.194C266.252 150.246 266.456 149.4 266.864 148.656C267.272 147.9 267.824 147.306 268.52 146.874C269.216 146.442 269.996 146.226 270.86 146.226C271.52 146.226 272.114 146.346 272.642 146.586C273.182 146.826 273.644 147.162 274.028 147.594C274.424 148.014 274.724 148.5 274.928 149.052C275.144 149.592 275.252 150.162 275.252 150.762C275.252 150.882 275.246 151.008 275.234 151.14C275.222 151.272 275.204 151.41 275.18 151.554H266.882V150.564H274.568L274.082 150.942C274.154 150.246 274.052 149.622 273.776 149.07C273.5 148.506 273.104 148.062 272.588 147.738C272.084 147.402 271.508 147.234 270.86 147.234C270.212 147.234 269.618 147.408 269.078 147.756C268.538 148.092 268.112 148.56 267.8 149.16C267.488 149.748 267.344 150.432 267.368 151.212C267.344 151.992 267.494 152.682 267.818 153.282C268.142 153.882 268.586 154.356 269.15 154.704C269.714 155.04 270.338 155.208 271.022 155.208C271.718 155.208 272.324 155.046 272.84 154.722C273.356 154.386 273.776 153.942 274.1 153.39L275.018 153.876C274.802 154.32 274.496 154.722 274.1 155.082C273.704 155.43 273.242 155.706 272.714 155.91C272.198 156.114 271.634 156.216 271.022 156.216ZM277.828 156V142.374H278.908V156H277.828ZM286.317 156.216C285.405 156.216 284.583 156 283.851 155.568C283.119 155.136 282.537 154.542 282.105 153.786C281.685 153.018 281.475 152.16 281.475 151.212C281.475 150.264 281.685 149.412 282.105 148.656C282.537 147.9 283.113 147.306 283.833 146.874C284.565 146.442 285.393 146.226 286.317 146.226C287.229 146.226 288.051 146.442 288.783 146.874C289.515 147.306 290.091 147.9 290.511 148.656C290.931 149.4 291.141 150.252 291.141 151.212C291.141 152.172 290.925 153.03 290.493 153.786C290.061 154.542 289.479 155.136 288.747 155.568C288.027 156 287.217 156.216 286.317 156.216ZM286.317 155.154C287.001 155.154 287.619 154.986 288.171 154.65C288.735 154.302 289.179 153.828 289.503 153.228C289.827 152.628 289.989 151.956 289.989 151.212C289.989 150.468 289.827 149.802 289.503 149.214C289.179 148.626 288.741 148.158 288.189 147.81C287.637 147.462 287.013 147.288 286.317 147.288C285.621 147.288 284.991 147.462 284.427 147.81C283.875 148.146 283.437 148.614 283.113 149.214C282.789 149.802 282.627 150.468 282.627 151.212C282.627 151.956 282.789 152.628 283.113 153.228C283.449 153.828 283.893 154.302 284.445 154.65C284.997 154.986 285.621 155.154 286.317 155.154ZM293.736 159.6V146.442H294.816V148.854L294.636 148.512C294.996 147.816 295.512 147.264 296.184 146.856C296.868 146.436 297.648 146.226 298.524 146.226C299.424 146.226 300.228 146.442 300.936 146.874C301.644 147.306 302.202 147.9 302.61 148.656C303.018 149.412 303.222 150.27 303.222 151.23C303.222 152.166 303.018 153.012 302.61 153.768C302.202 154.524 301.644 155.124 300.936 155.568C300.228 156 299.424 156.216 298.524 156.216C297.648 156.216 296.862 156.006 296.166 155.586C295.482 155.154 294.972 154.566 294.636 153.822L294.816 153.57V159.6H293.736ZM298.488 155.136C299.172 155.136 299.784 154.968 300.324 154.632C300.864 154.284 301.29 153.816 301.602 153.228C301.914 152.628 302.07 151.956 302.07 151.212C302.07 150.468 301.914 149.802 301.602 149.214C301.29 148.626 300.864 148.164 300.324 147.828C299.784 147.48 299.172 147.306 298.488 147.306C297.804 147.306 297.186 147.48 296.634 147.828C296.082 148.164 295.644 148.626 295.32 149.214C294.996 149.802 294.834 150.468 294.834 151.212C294.834 151.956 294.996 152.628 295.32 153.228C295.644 153.816 296.076 154.284 296.616 154.632C297.168 154.968 297.792 155.136 298.488 155.136ZM305.812 156V146.442H306.892V148.368L306.694 148.098C306.934 147.522 307.318 147.066 307.846 146.73C308.386 146.394 308.986 146.226 309.646 146.226C310.39 146.226 311.068 146.442 311.68 146.874C312.292 147.294 312.718 147.858 312.958 148.566L312.616 148.584C312.82 147.852 313.222 147.276 313.822 146.856C314.434 146.436 315.112 146.226 315.856 146.226C316.492 146.226 317.074 146.376 317.602 146.676C318.142 146.976 318.574 147.396 318.898 147.936C319.234 148.464 319.402 149.07 319.402 149.754V156H318.322V150.06C318.322 149.484 318.202 148.992 317.962 148.584C317.734 148.164 317.428 147.846 317.044 147.63C316.66 147.402 316.228 147.288 315.748 147.288C315.232 147.288 314.776 147.414 314.38 147.666C313.996 147.918 313.69 148.266 313.462 148.71C313.246 149.154 313.138 149.664 313.138 150.24V156H312.058V150.06C312.058 149.484 311.944 148.992 311.716 148.584C311.488 148.164 311.176 147.846 310.78 147.63C310.396 147.402 309.964 147.288 309.484 147.288C308.968 147.288 308.512 147.414 308.116 147.666C307.732 147.918 307.432 148.266 307.216 148.71C307 149.154 306.892 149.664 306.892 150.24V156H305.812ZM326.552 156.216C325.652 156.216 324.842 156 324.122 155.568C323.402 155.124 322.832 154.524 322.412 153.768C321.992 153 321.782 152.142 321.782 151.194C321.782 150.246 321.986 149.4 322.394 148.656C322.802 147.9 323.354 147.306 324.05 146.874C324.746 146.442 325.526 146.226 326.39 146.226C327.05 146.226 327.644 146.346 328.172 146.586C328.712 146.826 329.174 147.162 329.558 147.594C329.954 148.014 330.254 148.5 330.458 149.052C330.674 149.592 330.782 150.162 330.782 150.762C330.782 150.882 330.776 151.008 330.764 151.14C330.752 151.272 330.734 151.41 330.71 151.554H322.412V150.564H330.098L329.612 150.942C329.684 150.246 329.582 149.622 329.306 149.07C329.03 148.506 328.634 148.062 328.118 147.738C327.614 147.402 327.038 147.234 326.39 147.234C325.742 147.234 325.148 147.408 324.608 147.756C324.068 148.092 323.642 148.56 323.33 149.16C323.018 149.748 322.874 150.432 322.898 151.212C322.874 151.992 323.024 152.682 323.348 153.282C323.672 153.882 324.116 154.356 324.68 154.704C325.244 155.04 325.868 155.208 326.552 155.208C327.248 155.208 327.854 155.046 328.37 154.722C328.886 154.386 329.306 153.942 329.63 153.39L330.548 153.876C330.332 154.32 330.026 154.722 329.63 155.082C329.234 155.43 328.772 155.706 328.244 155.91C327.728 156.114 327.164 156.216 326.552 156.216ZM333.357 156V146.442H334.437V148.368L334.167 148.296C334.383 147.66 334.767 147.156 335.319 146.784C335.883 146.412 336.537 146.226 337.281 146.226C337.941 146.226 338.541 146.376 339.081 146.676C339.621 146.976 340.053 147.396 340.377 147.936C340.701 148.464 340.863 149.07 340.863 149.754V156H339.783V150.06C339.783 149.484 339.669 148.992 339.441 148.584C339.213 148.164 338.895 147.846 338.487 147.63C338.091 147.402 337.635 147.288 337.119 147.288C336.579 147.288 336.105 147.414 335.697 147.666C335.289 147.918 334.977 148.266 334.761 148.71C334.545 149.154 334.437 149.664 334.437 150.24V156H333.357ZM347.132 156.108C346.34 156.108 345.728 155.886 345.296 155.442C344.864 154.986 344.648 154.326 344.648 153.462V147.468H342.848V146.442H343.532C343.892 146.442 344.168 146.334 344.36 146.118C344.552 145.902 344.648 145.608 344.648 145.236V144.21H345.728V146.442H347.816V147.468H345.728V153.462C345.728 153.726 345.764 153.984 345.836 154.236C345.92 154.488 346.076 154.692 346.304 154.848C346.532 155.004 346.862 155.082 347.294 155.082C347.39 155.082 347.504 155.076 347.636 155.064C347.78 155.052 347.894 155.04 347.978 155.028V156C347.846 156.036 347.696 156.06 347.528 156.072C347.36 156.096 347.228 156.108 347.132 156.108Z" fill="white" fill-opacity="0.7"/>
<defs>
<linearGradient id="paint0_linear_510_30643" x1="149.102" y1="210.829" x2="226.765" y2="0.0015722" gradientUnits="userSpaceOnUse">
<stop stop-color="#B343CB"/>
<stop offset="1" stop-color="#7095EB"/>
</linearGradient>
<linearGradient id="paint1_linear_510_30643" x1="227.322" y1="-661.224" x2="227.322" y2="106.256" gradientUnits="userSpaceOnUse">
<stop stop-opacity="0"/>
<stop offset="1" stop-color="#141414"/>
</linearGradient>
<linearGradient id="paint2_linear_510_30643" x1="229.564" y1="-1.12143" x2="229.564" y2="110.601" gradientUnits="userSpaceOnUse">
<stop stop-color="#F2F2FF"/>
<stop offset="1" stop-opacity="0"/>
</linearGradient>
<linearGradient id="paint3_linear_510_30643" x1="161.156" y1="231.743" x2="238.819" y2="20.916" gradientUnits="userSpaceOnUse">
<stop stop-color="#B343CB"/>
<stop offset="1" stop-color="#7095EB"/>
</linearGradient>
<linearGradient id="paint4_linear_510_30643" x1="159.614" y1="799.3" x2="159.614" y2="137.683" gradientUnits="userSpaceOnUse">
<stop stop-opacity="0"/>
<stop offset="1" stop-color="#141414"/>
</linearGradient>
<linearGradient id="paint5_linear_510_30643" x1="207.944" y1="118.592" x2="207.944" y2="231.776" gradientUnits="userSpaceOnUse">
<stop stop-opacity="0"/>
<stop offset="1" stop-color="white" stop-opacity="0.46"/>
</linearGradient>
</defs>
</svg>
