<svg width="19" height="18" viewBox="0 0 19 18" fill="none" xmlns="http://www.w3.org/2000/svg">
<g id="bi:github" clip-path="url(#clip0_380_26296)">
<path id="Vector" d="M9.5 0C4.5275 0 0.5 4.0275 0.5 9C0.5 12.9825 3.07625 16.3463 6.65375 17.5387C7.10375 17.6175 7.2725 17.3475 7.2725 17.1112C7.2725 16.8975 7.26125 16.1888 7.26125 15.435C5 15.8513 4.415 14.8837 4.235 14.3775C4.13375 14.1187 3.695 13.32 3.3125 13.1062C2.9975 12.9375 2.5475 12.5212 3.30125 12.51C4.01 12.4987 4.51625 13.1625 4.685 13.4325C5.495 14.7937 6.78875 14.4113 7.30625 14.175C7.385 13.59 7.62125 13.1962 7.88 12.9712C5.8775 12.7463 3.785 11.97 3.785 8.5275C3.785 7.54875 4.13375 6.73875 4.7075 6.10875C4.6175 5.88375 4.3025 4.96125 4.7975 3.72375C4.7975 3.72375 5.55125 3.4875 7.2725 4.64625C7.9925 4.44375 8.7575 4.3425 9.5225 4.3425C10.2875 4.3425 11.0525 4.44375 11.7725 4.64625C13.4938 3.47625 14.2475 3.72375 14.2475 3.72375C14.7425 4.96125 14.4275 5.88375 14.3375 6.10875C14.9113 6.73875 15.26 7.5375 15.26 8.5275C15.26 11.9812 13.1562 12.7463 11.1538 12.9712C11.48 13.2525 11.7613 13.7925 11.7613 14.6363C11.7613 15.84 11.75 16.8075 11.75 17.1112C11.75 17.3475 11.9187 17.6287 12.3688 17.5387C14.1555 16.9357 15.7081 15.7875 16.808 14.2557C17.9079 12.7239 18.4997 10.8858 18.5 9C18.5 4.0275 14.4725 0 9.5 0Z" fill="black"/>
</g>
<defs>
<clipPath id="clip0_380_26296">
<rect width="18" height="18" fill="white" transform="translate(0.5)"/>
</clipPath>
</defs>
</svg>
