<svg width="40" height="24" viewBox="0 0 40 24" fill="none" xmlns="http://www.w3.org/2000/svg">
<g id="8_group">
<g id="9_vector">
<path d="M24.3746 1.59726C24.4789 1.20613 23.9826 0.943032 23.7174 1.24884L14.2426 12.1738C14.0146 12.4366 14.2286 12.8425 14.5743 12.803L21.6005 12.0002L24.3746 1.59726Z" fill="url(#paint0_linear_146_26999)"/>
<path d="M15.6261 22.4027C15.5218 22.7939 16.0181 23.057 16.2833 22.7512L25.7581 11.8262C25.9861 11.5634 25.7721 11.1575 25.4264 11.197L18.4002 11.9998L15.6261 22.4027Z" fill="url(#paint1_linear_146_26999)"/>
</g>
<g id="10_vector">
<path d="M12.5445 18.7557C12.5445 19.0336 12.257 19.2183 12.0042 19.1029L0.276595 13.7472C0.140668 13.6851 0.0534668 13.5494 0.0534668 13.4V11.3158C0.0534668 11.1666 0.14036 11.0311 0.275923 10.9689L12.0036 5.58573C12.2564 5.46967 12.5445 5.65441 12.5445 5.93261V7.98558C12.5445 8.13634 12.4557 8.27298 12.318 8.33428L2.62737 12.6473C2.40748 12.7452 2.15968 12.5842 2.15968 12.3435C2.15968 12.1028 2.40748 11.9419 2.62737 12.0398L12.318 16.3528C12.4557 16.4141 12.5445 16.5507 12.5445 16.7015V18.7557Z" fill="white"/>
<path d="M28.0252 19.1022C27.7724 19.2179 27.4847 19.0332 27.4847 18.7551V16.7012C27.4847 16.5506 27.5733 16.414 27.7108 16.3526L37.3728 12.0402C37.5924 11.9422 37.8402 12.103 37.8402 12.3435C37.8402 12.5841 37.5924 12.7449 37.3728 12.6468L27.7108 8.33441C27.5733 8.27302 27.4847 8.13648 27.4847 7.98586V5.93319C27.4847 5.65484 27.7731 5.47011 28.0259 5.58645L39.7243 10.9688C39.8597 11.0311 39.9465 11.1665 39.9465 11.3156V13.4002C39.9465 13.5495 39.8594 13.6851 39.7236 13.7473L28.0252 19.1022Z" fill="white"/>
</g>
</g>
<defs>
<linearGradient id="paint0_linear_146_26999" x1="28.2277" y1="24.3992" x2="16.3437" y2="5.20195" gradientUnits="userSpaceOnUse">
<stop stop-color="#B343CB"/>
<stop offset="1" stop-color="#7095EB"/>
</linearGradient>
<linearGradient id="paint1_linear_146_26999" x1="28.2277" y1="24.3992" x2="16.3437" y2="5.20195" gradientUnits="userSpaceOnUse">
<stop stop-color="#B343CB"/>
<stop offset="1" stop-color="#7095EB"/>
</linearGradient>
</defs>
</svg>
