<svg width="16" height="17" viewBox="0 0 16 17" fill="none" xmlns="http://www.w3.org/2000/svg">
<g id="octicon:git-pull-request-24">
<path id="Vector" d="M10.6667 13.3333C10.6667 12.7587 10.8949 12.2076 11.3013 11.8013C11.7076 11.3949 12.2587 11.1667 12.8333 11.1667C13.408 11.1667 13.9591 11.3949 14.3654 11.8013C14.7717 12.2076 15 12.7587 15 13.3333C15 13.908 14.7717 14.4591 14.3654 14.8654C13.9591 15.2717 13.408 15.5 12.8333 15.5C12.2587 15.5 11.7076 15.2717 11.3013 14.8654C10.8949 14.4591 10.6667 13.908 10.6667 13.3333ZM1 13.3333C1 12.7587 1.22827 12.2076 1.6346 11.8013C2.04093 11.3949 2.59203 11.1667 3.16667 11.1667C3.7413 11.1667 4.2924 11.3949 4.69873 11.8013C5.10506 12.2076 5.33333 12.7587 5.33333 13.3333C5.33333 13.908 5.10506 14.4591 4.69873 14.8654C4.2924 15.2717 3.7413 15.5 3.16667 15.5C2.59203 15.5 2.04093 15.2717 1.6346 14.8654C1.22827 14.4591 1 13.908 1 13.3333ZM1 3.66667C1 3.09203 1.22827 2.54093 1.6346 2.1346C2.04093 1.72827 2.59203 1.5 3.16667 1.5C3.7413 1.5 4.2924 1.72827 4.69873 2.1346C5.10506 2.54093 5.33333 3.09203 5.33333 3.66667C5.33333 4.2413 5.10506 4.7924 4.69873 5.19873C4.2924 5.60506 3.7413 5.83333 3.16667 5.83333C2.59203 5.83333 2.04093 5.60506 1.6346 5.19873C1.22827 4.7924 1 4.2413 1 3.66667ZM3.16667 2.5C3.01341 2.50004 2.86167 2.53027 2.7201 2.58896C2.57853 2.64765 2.44991 2.73365 2.34157 2.84204C2.23324 2.95044 2.14731 3.07911 2.08871 3.22072C2.0301 3.36232 1.99996 3.51408 2 3.66733C2.00004 3.82059 2.03027 3.97233 2.08896 4.1139C2.14765 4.25547 2.23365 4.38409 2.34204 4.49243C2.45044 4.60076 2.57911 4.68669 2.72072 4.7453C2.86232 4.8039 3.01408 4.83404 3.16733 4.834C3.47684 4.83391 3.77364 4.71088 3.99243 4.49196C4.21122 4.27304 4.33409 3.97617 4.334 3.66667C4.33391 3.35716 4.21088 3.06036 3.99196 2.84157C3.77304 2.62278 3.47617 2.49991 3.16667 2.5ZM3.16667 12.1667C2.85716 12.1668 2.56036 12.2898 2.34157 12.5087C2.12278 12.7276 1.99991 13.0245 2 13.334C2.00009 13.6435 2.12312 13.9403 2.34204 14.1591C2.56096 14.3779 2.85783 14.5008 3.16733 14.5007C3.32059 14.5006 3.47233 14.4704 3.6139 14.4117C3.75547 14.353 3.88409 14.267 3.99243 14.1586C4.10076 14.0502 4.18669 13.9216 4.2453 13.78C4.3039 13.6383 4.33404 13.4866 4.334 13.3333C4.33396 13.1801 4.30373 13.0283 4.24504 12.8868C4.18635 12.7452 4.10035 12.6166 3.99196 12.5082C3.88356 12.3999 3.75489 12.314 3.61328 12.2554C3.47168 12.1968 3.31992 12.1666 3.16667 12.1667ZM12.8333 12.1667C12.6801 12.1667 12.5283 12.1969 12.3868 12.2556C12.2452 12.3143 12.1166 12.4003 12.0082 12.5087C11.8999 12.6171 11.814 12.7458 11.7554 12.8874C11.6968 13.029 11.6666 13.1807 11.6667 13.334C11.6667 13.4873 11.6969 13.639 11.7556 13.7806C11.8143 13.9221 11.9003 14.0508 12.0087 14.1591C12.1171 14.2674 12.2458 14.3534 12.3874 14.412C12.529 14.4706 12.6807 14.5007 12.834 14.5007C13.1435 14.5006 13.4403 14.3775 13.6591 14.1586C13.8779 13.9397 14.0008 13.6428 14.0007 13.3333C14.0006 13.0238 13.8775 12.727 13.6586 12.5082C13.4397 12.2894 13.1428 12.1666 12.8333 12.1667Z" fill="white"/>
<path id="Vector_2" d="M8.93663 1.64665C9.03026 1.7404 9.08285 1.86749 9.08285 1.99999C9.08285 2.13249 9.03026 2.25957 8.93663 2.35332L8.12329 3.16665H10.8333C11.4963 3.16665 12.1322 3.43005 12.6011 3.89889C13.0699 4.36773 13.3333 5.00361 13.3333 5.66665V11.5C13.3333 11.6326 13.2806 11.7598 13.1868 11.8535C13.0931 11.9473 12.9659 12 12.8333 12C12.7007 12 12.5735 11.9473 12.4797 11.8535C12.386 11.7598 12.3333 11.6326 12.3333 11.5V5.66665C12.3333 5.26883 12.1753 4.8873 11.894 4.60599C11.6126 4.32469 11.2311 4.16665 10.8333 4.16665H8.12396L8.93729 4.97999C9.02833 5.07433 9.07867 5.20066 9.07747 5.33175C9.07627 5.46285 9.02362 5.58824 8.93087 5.6809C8.83813 5.77356 8.71269 5.82608 8.58159 5.82716C8.4505 5.82824 8.32422 5.77778 8.22996 5.68665L6.56329 4.01999C6.46966 3.92624 6.41707 3.79915 6.41707 3.66665C6.41707 3.53415 6.46966 3.40707 6.56329 3.31332L8.22996 1.64665C8.32371 1.55302 8.45079 1.50043 8.58329 1.50043C8.71579 1.50043 8.84288 1.55302 8.93663 1.64665ZM3.16663 5.33332C3.29923 5.33332 3.42641 5.386 3.52018 5.47977C3.61395 5.57354 3.66663 5.70071 3.66663 5.83332V11.1667C3.66663 11.2993 3.61395 11.4264 3.52018 11.5202C3.42641 11.614 3.29923 11.6667 3.16663 11.6667C3.03402 11.6667 2.90684 11.614 2.81307 11.5202C2.7193 11.4264 2.66663 11.2993 2.66663 11.1667V5.83332C2.66663 5.70071 2.7193 5.57354 2.81307 5.47977C2.90684 5.386 3.03402 5.33332 3.16663 5.33332Z" fill="white"/>
</g>
</svg>
