<svg width="20" height="20" viewBox="0 0 20 20" fill="none" xmlns="http://www.w3.org/2000/svg">
<g id="octicon:git-pull-request-24">
<path id="Vector" d="M13.3333 16.0417C13.3333 15.3234 13.6187 14.6345 14.1266 14.1266C14.6345 13.6187 15.3234 13.3333 16.0417 13.3333C16.76 13.3333 17.4488 13.6187 17.9567 14.1266C18.4647 14.6345 18.75 15.3234 18.75 16.0417C18.75 16.76 18.4647 17.4488 17.9567 17.9567C17.4488 18.4647 16.76 18.75 16.0417 18.75C15.3234 18.75 14.6345 18.4647 14.1266 17.9567C13.6187 17.4488 13.3333 16.76 13.3333 16.0417ZM1.25 16.0417C1.25 15.3234 1.53534 14.6345 2.04325 14.1266C2.55116 13.6187 3.24004 13.3333 3.95833 13.3333C4.67663 13.3333 5.3655 13.6187 5.87341 14.1266C6.38133 14.6345 6.66667 15.3234 6.66667 16.0417C6.66667 16.76 6.38133 17.4488 5.87341 17.9567C5.3655 18.4647 4.67663 18.75 3.95833 18.75C3.24004 18.75 2.55116 18.4647 2.04325 17.9567C1.53534 17.4488 1.25 16.76 1.25 16.0417ZM1.25 3.95833C1.25 3.24004 1.53534 2.55116 2.04325 2.04325C2.55116 1.53534 3.24004 1.25 3.95833 1.25C4.67663 1.25 5.3655 1.53534 5.87341 2.04325C6.38133 2.55116 6.66667 3.24004 6.66667 3.95833C6.66667 4.67663 6.38133 5.3655 5.87341 5.87341C5.3655 6.38133 4.67663 6.66667 3.95833 6.66667C3.24004 6.66667 2.55116 6.38133 2.04325 5.87341C1.53534 5.3655 1.25 4.67663 1.25 3.95833ZM3.95833 2.5C3.76677 2.50005 3.57709 2.53784 3.40013 2.6112C3.22316 2.68456 3.06238 2.79206 2.92696 2.92755C2.79154 3.06305 2.68414 3.22389 2.61088 3.4009C2.53762 3.5779 2.49995 3.7676 2.5 3.95917C2.50005 4.15073 2.53784 4.34041 2.6112 4.51737C2.68456 4.69434 2.79206 4.85512 2.92755 4.99054C3.06305 5.12596 3.22389 5.23336 3.4009 5.30662C3.5779 5.37988 3.7676 5.41755 3.95917 5.4175C4.34605 5.41739 4.71705 5.26359 4.99054 4.98995C5.26403 4.7163 5.41761 4.34522 5.4175 3.95833C5.41739 3.57145 5.26359 3.20045 4.98995 2.92696C4.7163 2.65347 4.34522 2.49989 3.95833 2.5ZM3.95833 14.5833C3.57145 14.5834 3.20045 14.7372 2.92696 15.0109C2.65347 15.2845 2.49989 15.6556 2.5 16.0425C2.50011 16.4294 2.65391 16.8004 2.92755 17.0739C3.2012 17.3474 3.57228 17.5009 3.95917 17.5008C4.15073 17.5008 4.34041 17.463 4.51737 17.3896C4.69434 17.3163 4.85512 17.2088 4.99054 17.0733C5.12596 16.9378 5.23336 16.7769 5.30662 16.5999C5.37988 16.4229 5.41755 16.2332 5.4175 16.0417C5.41745 15.8501 5.37966 15.6604 5.3063 15.4835C5.23294 15.3065 5.12544 15.1457 4.98995 15.0103C4.85445 14.8749 4.69361 14.7675 4.5166 14.6942C4.3396 14.621 4.1499 14.5833 3.95833 14.5833ZM16.0417 14.5833C15.8501 14.5834 15.6604 14.6212 15.4835 14.6945C15.3065 14.7679 15.1457 14.8754 15.0103 15.0109C14.8749 15.1464 14.7675 15.3072 14.6942 15.4842C14.621 15.6612 14.5833 15.8509 14.5833 16.0425C14.5834 16.2341 14.6212 16.4237 14.6945 16.6007C14.7679 16.7777 14.8754 16.9385 15.0109 17.0739C15.1464 17.2093 15.3072 17.3167 15.4842 17.39C15.6612 17.4632 15.8509 17.5009 16.0425 17.5008C16.4294 17.5007 16.8004 17.3469 17.0739 17.0733C17.3474 16.7996 17.5009 16.4286 17.5008 16.0417C17.5007 15.6548 17.3469 15.2838 17.0733 15.0103C16.7996 14.7368 16.4286 14.5832 16.0417 14.5833Z" fill="#4BAC1C"/>
<path id="Vector_2" d="M11.171 1.43333C11.288 1.55052 11.3538 1.70937 11.3538 1.875C11.3538 2.04062 11.288 2.19948 11.171 2.31667L10.1543 3.33333H13.5418C14.3706 3.33333 15.1655 3.66257 15.7515 4.24862C16.3376 4.83468 16.6668 5.62953 16.6668 6.45833V13.75C16.6668 13.9158 16.601 14.0747 16.4838 14.1919C16.3666 14.3092 16.2076 14.375 16.0418 14.375C15.8761 14.375 15.7171 14.3092 15.5999 14.1919C15.4827 14.0747 15.4168 13.9158 15.4168 13.75V6.45833C15.4168 5.96105 15.2193 5.48414 14.8677 5.13251C14.516 4.78088 14.0391 4.58333 13.5418 4.58333H10.1552L11.1718 5.6C11.2856 5.71793 11.3485 5.87584 11.347 6.03971C11.3455 6.20358 11.2797 6.36031 11.1638 6.47614C11.0479 6.59196 10.8911 6.65762 10.7272 6.65896C10.5633 6.66031 10.4055 6.59724 10.2877 6.48333L8.20433 4.4C8.08729 4.28281 8.02155 4.12396 8.02155 3.95833C8.02155 3.79271 8.08729 3.63385 8.20433 3.51667L10.2877 1.43333C10.4049 1.31629 10.5637 1.25055 10.7293 1.25055C10.895 1.25055 11.0538 1.31629 11.171 1.43333ZM3.9585 6.04167C4.12426 6.04167 4.28323 6.10751 4.40044 6.22472C4.51765 6.34193 4.5835 6.50091 4.5835 6.66667V13.3333C4.5835 13.4991 4.51765 13.6581 4.40044 13.7753C4.28323 13.8925 4.12426 13.9583 3.9585 13.9583C3.79274 13.9583 3.63376 13.8925 3.51655 13.7753C3.39934 13.6581 3.3335 13.4991 3.3335 13.3333V6.66667C3.3335 6.50091 3.39934 6.34193 3.51655 6.22472C3.63376 6.10751 3.79274 6.04167 3.9585 6.04167Z" fill="#4BAC1C"/>
</g>
</svg>
