<svg width="16" height="16" viewBox="0 0 16 16" fill="none" xmlns="http://www.w3.org/2000/svg">
<g id="19_group">
<mask id="mask0_186_70448" style="mask-type:alpha" maskUnits="userSpaceOnUse" x="0" y="0" width="16" height="16">
<rect id="Bounding box" width="16" height="16" fill="#D9D9D9"/>
</mask>
<g mask="url(#mask0_186_70448)">
<path id="commit" d="M7.99996 11.1666C7.20596 11.1666 6.52007 10.9139 5.94229 10.4083C5.36452 9.90276 5.0064 9.26665 4.86796 8.49998H2.16663C2.02496 8.49998 1.90624 8.45204 1.81046 8.35615C1.71457 8.26026 1.66663 8.14148 1.66663 7.99981C1.66663 7.85804 1.71457 7.73931 1.81046 7.64365C1.90624 7.54787 2.02496 7.49998 2.16663 7.49998H4.86796C5.0064 6.73331 5.36452 6.0972 5.94229 5.59165C6.52007 5.08609 7.20596 4.83331 7.99996 4.83331C8.79396 4.83331 9.4809 5.08609 10.0608 5.59165C10.6408 6.0972 10.9978 6.73331 11.132 7.49998H13.8333C13.975 7.49998 14.0937 7.54792 14.1895 7.64381C14.2853 7.7397 14.3333 7.85848 14.3333 8.00015C14.3333 8.14192 14.2853 8.26065 14.1895 8.35631C14.0937 8.45209 13.975 8.49998 13.8333 8.49998H11.132C10.9978 9.26665 10.6408 9.90276 10.0608 10.4083C9.4809 10.9139 8.79396 11.1666 7.99996 11.1666ZM7.99996 10.1666C8.59829 10.1666 9.10896 9.95509 9.53196 9.53198C9.95507 9.10898 10.1666 8.59831 10.1666 7.99998C10.1666 7.40165 9.95507 6.89098 9.53196 6.46798C9.10896 6.04487 8.59829 5.83331 7.99996 5.83331C7.40163 5.83331 6.89096 6.04487 6.46796 6.46798C6.04485 6.89098 5.83329 7.40165 5.83329 7.99998C5.83329 8.59831 6.04485 9.10898 6.46796 9.53198C6.89096 9.95509 7.40163 10.1666 7.99996 10.1666Z" fill="white"/>
</g>
</g>
</svg>
