<svg width="20" height="20" viewBox="0 0 20 20" fill="none" xmlns="http://www.w3.org/2000/svg">
    <mask id="mask0_1725_737" style="mask-type:alpha" maskUnits="userSpaceOnUse" x="0" y="0" width="20" height="20">
        <rect width="20" height="20" fill="#D9D9D9"/>
    </mask>
    <g mask="url(#mask0_1725_737)">
        <path d="M7.46146 9.46169L9.30938 7.60106L7.87021 6.14898L7.36854 6.65065C7.25313 6.76606 7.11021 6.82724 6.93979 6.83419C6.76951 6.84113 6.61972 6.77995 6.49042 6.65065C6.36111 6.52134 6.29646 6.37287 6.29646 6.20523C6.29646 6.03745 6.36111 5.88891 6.49042 5.75961L6.97917 5.27085L5.69708 3.98877L3.83646 5.8494L7.46146 9.46169ZM14.1427 16.1554L16.0031 14.2948L14.721 13.0127L14.2196 13.5017C14.0956 13.6256 13.9505 13.6888 13.7844 13.6915C13.6183 13.6941 13.4706 13.6309 13.3413 13.5017C13.2121 13.3724 13.1475 13.226 13.1475 13.0625C13.1475 12.899 13.2121 12.7527 13.3413 12.6234L13.8302 12.1219L12.3863 10.6906L10.5383 12.5386L14.1427 16.1554ZM13.2323 5.49044L14.5352 6.79335L15.8463 5.48231L14.5304 4.16669L13.2323 5.49044ZM3.67 17.0834C3.45514 17.0834 3.2759 17.0115 3.13229 16.8677C2.98854 16.7241 2.91667 16.5449 2.91667 16.33V14.3125C2.91667 14.2121 2.93486 14.1165 2.97125 14.0256C3.0075 13.9348 3.06465 13.8504 3.14271 13.7725L6.57063 10.3446L2.79 6.55606C2.59667 6.36273 2.5 6.12717 2.5 5.8494C2.5 5.57162 2.59667 5.33606 2.79 5.14273L4.99042 2.94231C5.18375 2.74898 5.41931 2.65447 5.69708 2.65877C5.97486 2.66294 6.21042 2.76176 6.40375 2.95523L10.2131 6.74356L13.6475 3.29648C13.7768 3.16717 13.9189 3.07155 14.0738 3.0096C14.2286 2.94766 14.3905 2.91669 14.5594 2.91669C14.7281 2.91669 14.8899 2.94766 15.0448 3.0096C15.1998 3.07155 15.3419 3.16717 15.471 3.29648L16.7035 4.56585C16.8328 4.69502 16.9271 4.8371 16.9863 4.9921C17.0456 5.14697 17.0752 5.30877 17.0752 5.47752C17.0752 5.64641 17.0456 5.80481 16.9863 5.95273C16.9271 6.10065 16.8328 6.23926 16.7035 6.36856L13.2852 9.80773L17.0577 13.5963C17.251 13.7896 17.3477 14.0252 17.3477 14.3029C17.3477 14.5807 17.251 14.8163 17.0577 15.0096L14.8573 17.21C14.664 17.4034 14.4284 17.5 14.1506 17.5C13.8728 17.5 13.6373 17.4034 13.444 17.21L9.65542 13.4294L6.2275 16.8573C6.14958 16.9354 6.06521 16.9925 5.97438 17.0288C5.88354 17.0652 5.78792 17.0834 5.6875 17.0834H3.67Z" fill="white"/>
    </g>
</svg>
