<svg width="20" height="20" viewBox="0 0 20 20" fill="none" xmlns="http://www.w3.org/2000/svg">
<g id="13_group">
<mask id="mask0_2710_2185" style="mask-type:alpha" maskUnits="userSpaceOnUse" x="0" y="0" width="20" height="20">
<rect id="Bounding box" width="20" height="20" fill="#D9D9D9"/>
</mask>
<g mask="url(#mask0_2710_2185)">
<path id="newsmode" d="M3.58983 17.0833C3.16886 17.0833 2.81254 16.9375 2.52087 16.6458C2.22921 16.3542 2.08337 15.9978 2.08337 15.5769V4.42311C2.08337 4.00214 2.22921 3.64582 2.52087 3.35416C2.81254 3.06249 3.16886 2.91666 3.58983 2.91666H16.4102C16.8312 2.91666 17.1875 3.06249 17.4792 3.35416C17.7709 3.64582 17.9167 4.00214 17.9167 4.42311V15.5769C17.9167 15.9978 17.7709 16.3542 17.4792 16.6458C17.1875 16.9375 16.8312 17.0833 16.4102 17.0833H3.58983ZM5.94567 13.846H14.0544C14.2315 13.846 14.38 13.7862 14.4998 13.6664C14.6196 13.5466 14.6794 13.398 14.6794 13.2208C14.6794 13.0437 14.6196 12.8953 14.4998 12.7756C14.38 12.656 14.2315 12.5962 14.0544 12.5962H5.94567C5.76858 12.5962 5.62011 12.6561 5.50025 12.7758C5.38053 12.8957 5.32067 13.0442 5.32067 13.2214C5.32067 13.3985 5.38053 13.5469 5.50025 13.6667C5.62011 13.7862 5.76858 13.846 5.94567 13.846ZM5.94567 10.625H7.77254C7.94962 10.625 8.09803 10.5651 8.21775 10.4452C8.33761 10.3255 8.39754 10.1771 8.39754 9.99999V6.77895C8.39754 6.60187 8.33761 6.45339 8.21775 6.33353C8.09803 6.21381 7.94962 6.15395 7.77254 6.15395H5.94567C5.76858 6.15395 5.62011 6.21381 5.50025 6.33353C5.38053 6.45339 5.32067 6.60187 5.32067 6.77895V9.99999C5.32067 10.1771 5.38053 10.3255 5.50025 10.4452C5.62011 10.5651 5.76858 10.625 5.94567 10.625ZM10.8494 10.625H14.0544C14.2315 10.625 14.38 10.5651 14.4998 10.4452C14.6196 10.3253 14.6794 10.1769 14.6794 9.99978C14.6794 9.82256 14.6196 9.67416 14.4998 9.55457C14.38 9.43485 14.2315 9.37499 14.0544 9.37499H10.8494C10.6723 9.37499 10.5239 9.43492 10.404 9.55478C10.2843 9.67464 10.2244 9.82312 10.2244 10.0002C10.2244 10.1774 10.2843 10.3258 10.404 10.4454C10.5239 10.5651 10.6723 10.625 10.8494 10.625ZM10.8494 7.40374H14.0544C14.2315 7.40374 14.38 7.34388 14.4998 7.22416C14.6196 7.1043 14.6794 6.95575 14.6794 6.77853C14.6794 6.60145 14.6196 6.45305 14.4998 6.33332C14.38 6.21374 14.2315 6.15395 14.0544 6.15395H10.8494C10.6723 6.15395 10.5239 6.21381 10.404 6.33353C10.2843 6.45339 10.2244 6.60193 10.2244 6.77916C10.2244 6.95624 10.2843 7.10464 10.404 7.22437C10.5239 7.34395 10.6723 7.40374 10.8494 7.40374Z" fill="white"/>
</g>
</g>
</svg>
