<svg width="16" height="16" viewBox="0 0 16 16" fill="none" xmlns="http://www.w3.org/2000/svg">
<g id="19_group">
<mask id="mask0_1521_703" style="mask-type:alpha" maskUnits="userSpaceOnUse" x="0" y="0" width="16" height="16">
<rect id="Bounding box" width="16" height="16" fill="#D9D9D9"/>
</mask>
<g mask="url(#mask0_1521_703)">
<path id="settings_applications" d="M7.36409 10.1659L7.45759 10.7006C7.48236 10.8134 7.53603 10.9041 7.61859 10.9729C7.70103 11.0417 7.79864 11.0761 7.91142 11.0761H8.08842C8.2012 11.0761 8.29881 11.04 8.38125 10.9677C8.46381 10.8955 8.51747 10.803 8.54225 10.6902L8.63575 10.1659C8.82897 10.1104 8.99564 10.0445 9.13575 9.96841C9.27597 9.89241 9.41359 9.79069 9.54859 9.66325L10.0769 9.85175C10.1828 9.88764 10.286 9.88425 10.3864 9.84158C10.4869 9.7988 10.5653 9.73341 10.6218 9.64541L10.7101 9.48891C10.7665 9.39414 10.7869 9.28925 10.7711 9.17425C10.7552 9.05925 10.7033 8.96675 10.6153 8.89675L10.2101 8.56075C10.258 8.36252 10.2819 8.17536 10.2819 7.99925C10.2819 7.82314 10.258 7.63597 10.2101 7.43775L10.6153 7.10175C10.7033 7.03175 10.7552 6.94097 10.7711 6.82941C10.7869 6.71786 10.7665 6.61464 10.7101 6.51975L10.6114 6.35308C10.555 6.26508 10.4783 6.19969 10.3813 6.15691C10.2843 6.11425 10.1828 6.11086 10.0769 6.14675L9.54859 6.33525C9.41359 6.2078 9.27597 6.10608 9.13575 6.03008C8.99564 5.95397 8.82897 5.88814 8.63575 5.83258L8.54225 5.29791C8.51747 5.18514 8.46381 5.09436 8.38125 5.02558C8.29881 4.9568 8.2012 4.92241 8.08842 4.92241H7.91142C7.79864 4.92241 7.70103 4.95853 7.61859 5.03075C7.53603 5.10297 7.48236 5.19547 7.45759 5.30825L7.36409 5.83258C7.17086 5.88814 7.0042 5.95397 6.86409 6.03008C6.72386 6.10608 6.58625 6.2078 6.45125 6.33525L5.92292 6.14675C5.81703 6.11086 5.71386 6.11425 5.61342 6.15691C5.51297 6.19969 5.43453 6.26508 5.37809 6.35308L5.28975 6.50958C5.23331 6.60436 5.21297 6.70925 5.22875 6.82425C5.24464 6.93925 5.29659 7.03175 5.38459 7.10175L5.78975 7.43775C5.74186 7.63597 5.71792 7.82314 5.71792 7.99925C5.71792 8.17536 5.74186 8.36252 5.78975 8.56075L5.38459 8.89675C5.29659 8.96675 5.24464 9.05753 5.22875 9.16908C5.21297 9.28064 5.23331 9.38386 5.28975 9.47875L5.38842 9.64541C5.44486 9.73341 5.52159 9.7988 5.61859 9.84158C5.71559 9.88425 5.81703 9.88764 5.92292 9.85175L6.45125 9.66325C6.58625 9.79069 6.72386 9.89241 6.86409 9.96841C7.0042 10.0445 7.17086 10.1104 7.36409 10.1659ZM7.99992 9.33258C7.63325 9.33258 7.31936 9.20203 7.05825 8.94091C6.79714 8.6798 6.66659 8.36591 6.66659 7.99925C6.66659 7.63258 6.79714 7.31869 7.05825 7.05758C7.31936 6.79647 7.63325 6.66591 7.99992 6.66591C8.36659 6.66591 8.68047 6.79647 8.94159 7.05758C9.2027 7.31869 9.33325 7.63258 9.33325 7.99925C9.33325 8.36591 9.2027 8.6798 8.94159 8.94091C8.68047 9.20203 8.36659 9.33258 7.99992 9.33258ZM3.53842 13.6659C3.20164 13.6659 2.91659 13.5492 2.68325 13.3159C2.44992 13.0826 2.33325 12.7975 2.33325 12.4607V3.53775C2.33325 3.20097 2.44992 2.91591 2.68325 2.68258C2.91659 2.44925 3.20164 2.33258 3.53842 2.33258H12.4614C12.7982 2.33258 13.0833 2.44925 13.3166 2.68258C13.5499 2.91591 13.6666 3.20097 13.6666 3.53775V12.4607C13.6666 12.7975 13.5499 13.0826 13.3166 13.3159C13.0833 13.5492 12.7982 13.6659 12.4614 13.6659H3.53842ZM3.53842 12.6659H12.4614C12.5128 12.6659 12.5598 12.6445 12.6024 12.6017C12.6452 12.5591 12.6666 12.5121 12.6666 12.4607V3.53775C12.6666 3.48641 12.6452 3.43941 12.6024 3.39675C12.5598 3.35397 12.5128 3.33258 12.4614 3.33258H3.53842C3.48709 3.33258 3.44009 3.35397 3.39742 3.39675C3.35464 3.43941 3.33325 3.48641 3.33325 3.53775V12.4607C3.33325 12.5121 3.35464 12.5591 3.39742 12.6017C3.44009 12.6445 3.48709 12.6659 3.53842 12.6659Z" fill="white"/>
</g>
</g>
</svg>
