<svg width="16" height="16" viewBox="0 0 16 16" fill="none" xmlns="http://www.w3.org/2000/svg">
<g id="finance">
<mask id="mask0_146_27042" style="mask-type:alpha" maskUnits="userSpaceOnUse" x="0" y="0" width="16" height="16">
<rect id="Bounding box" width="16" height="16" fill="#D9D9D9"/>
</mask>
<g mask="url(#mask0_146_27042)">
<path id="finance_2" d="M3.37191 13.6667C3.03514 13.6667 2.75008 13.55 2.51675 13.3167C2.28341 13.0833 2.16675 12.7983 2.16675 12.4615V2.5C2.16675 2.35833 2.21469 2.23956 2.31058 2.14367C2.40647 2.04789 2.52525 2 2.66691 2C2.80869 2 2.92741 2.04789 3.02308 2.14367C3.11886 2.23956 3.16675 2.35833 3.16675 2.5V12.4615C3.16675 12.5128 3.18814 12.5598 3.23091 12.6025C3.27358 12.6453 3.32058 12.6667 3.37191 12.6667H13.3334C13.4751 12.6667 13.5938 12.7146 13.6896 12.8105C13.7855 12.9064 13.8334 13.0252 13.8334 13.1668C13.8334 13.3086 13.7855 13.4273 13.6896 13.523C13.5938 13.6188 13.4751 13.6667 13.3334 13.6667H3.37191ZM5.03858 11.5C4.87514 11.5 4.73814 11.4447 4.62758 11.3342C4.51691 11.2235 4.46158 11.0864 4.46158 10.923V6.641C4.46158 6.47756 4.51691 6.34056 4.62758 6.23C4.73814 6.11944 4.87514 6.06417 5.03858 6.06417H5.85908C6.02975 6.06417 6.17286 6.12206 6.28841 6.23783C6.40386 6.35361 6.46158 6.49711 6.46158 6.66833V10.8983C6.46158 11.0696 6.40386 11.2126 6.28841 11.3275C6.17286 11.4425 6.02975 11.5 5.85908 11.5H5.03858ZM8.20525 11.5C8.0418 11.5 7.9048 11.4447 7.79425 11.3342C7.68358 11.2235 7.62825 11.0864 7.62825 10.923V3.33333C7.62825 3.16256 7.68603 3.01944 7.80158 2.904C7.91703 2.78856 8.06014 2.73083 8.23092 2.73083H9.05142C9.21486 2.73083 9.35186 2.78611 9.46241 2.89667C9.57297 3.00722 9.62825 3.14422 9.62825 3.30767V10.8973C9.62825 11.0681 9.57053 11.2112 9.45508 11.3267C9.33953 11.4422 9.19641 11.5 9.02575 11.5H8.20525ZM11.3719 11.5C11.2085 11.5 11.0714 11.4447 10.9607 11.3342C10.8502 11.2235 10.7949 11.0864 10.7949 10.923V9.33333C10.7949 9.16256 10.8527 9.01944 10.9682 8.904C11.0837 8.78856 11.2268 8.73083 11.3976 8.73083H12.2179C12.3815 8.73083 12.5185 8.78611 12.6291 8.89667C12.7396 9.00722 12.7949 9.14422 12.7949 9.30767V10.8973C12.7949 11.0681 12.7372 11.2112 12.6217 11.3267C12.5062 11.4422 12.3631 11.5 12.1924 11.5H11.3719Z" fill="white"/>
</g>
</g>
</svg>
