<svg width="14" height="14" viewBox="0 0 14 14" fill="none" xmlns="http://www.w3.org/2000/svg">
    <mask id="mask0_1725_2917" style="mask-type:alpha" maskUnits="userSpaceOnUse" x="0" y="0" width="14" height="14">
        <rect width="14" height="14" fill="#D9D9D9"/>
    </mask>
    <g mask="url(#mask0_1725_2917)">
        <path d="M7.00135 9.08658C7.66236 9.08658 8.22377 8.85524 8.68558 8.39256C9.14738 7.92988 9.37829 7.36804 9.37829 6.70702C9.37829 6.04601 9.14694 5.4846 8.68426 5.02279C8.22158 4.56099 7.65974 4.33008 6.99872 4.33008C6.33771 4.33008 5.7763 4.56142 5.31449 5.0241C4.85269 5.48679 4.62178 6.04863 4.62178 6.70965C4.62178 7.37066 4.85313 7.93207 5.31581 8.39388C5.77849 8.85568 6.34033 9.08658 7.00135 9.08658ZM7.00003 8.28333C6.56253 8.28333 6.19066 8.13021 5.88441 7.82396C5.57816 7.51771 5.42503 7.14583 5.42503 6.70833C5.42503 6.27083 5.57816 5.89896 5.88441 5.59271C6.19066 5.28646 6.56253 5.13333 7.00003 5.13333C7.43753 5.13333 7.80941 5.28646 8.11566 5.59271C8.42191 5.89896 8.57503 6.27083 8.57503 6.70833C8.57503 7.14583 8.42191 7.51771 8.11566 7.82396C7.80941 8.13021 7.43753 8.28333 7.00003 8.28333ZM7.00003 10.7917C5.77202 10.7917 4.64891 10.4641 3.6307 9.8089C2.61249 9.15381 1.79976 8.29194 1.19251 7.22327C1.1439 7.13947 1.10837 7.05503 1.08591 6.96996C1.06355 6.88489 1.05237 6.79758 1.05237 6.70804C1.05237 6.6185 1.06355 6.53129 1.08591 6.44642C1.10837 6.36154 1.1439 6.2772 1.19251 6.1934C1.79976 5.12473 2.61249 4.26285 3.6307 3.60777C4.64891 2.95259 5.77202 2.625 7.00003 2.625C8.22805 2.625 9.35116 2.95259 10.3694 3.60777C11.3876 4.26285 12.2003 5.12473 12.8076 6.1934C12.8562 6.2772 12.8917 6.36164 12.9142 6.44671C12.9365 6.53178 12.9477 6.61908 12.9477 6.70863C12.9477 6.79817 12.9365 6.88538 12.9142 6.97025C12.8917 7.05513 12.8562 7.13947 12.8076 7.22327C12.2003 8.29194 11.3876 9.15381 10.3694 9.8089C9.35116 10.4641 8.22805 10.7917 7.00003 10.7917ZM7.00003 9.91667C8.09865 9.91667 9.10733 9.62743 10.0261 9.04896C10.9448 8.47049 11.6473 7.69028 12.1334 6.70833C11.6473 5.72639 10.9448 4.94618 10.0261 4.36771C9.10733 3.78924 8.09865 3.5 7.00003 3.5C5.90142 3.5 4.89274 3.78924 3.97399 4.36771C3.05524 4.94618 2.35281 5.72639 1.8667 6.70833C2.35281 7.69028 3.05524 8.47049 3.97399 9.04896C4.89274 9.62743 5.90142 9.91667 7.00003 9.91667Z" fill="white"/>
    </g>
</svg>
