<svg width="20" height="20" viewBox="0 0 20 20" fill="none" xmlns="http://www.w3.org/2000/svg">
<g id="dashboard">
<mask id="mask0_146_31679" style="mask-type:alpha" maskUnits="userSpaceOnUse" x="0" y="0" width="20" height="20">
<rect id="Bounding box" width="20" height="20" fill="#D9D9D9"/>
</mask>
<g mask="url(#mask0_146_31679)">
<path id="dashboard_2" d="M11.0415 6.74291V3.67395C11.0415 3.45645 11.1139 3.27589 11.2588 3.13228C11.4037 2.98853 11.5831 2.91666 11.7971 2.91666H16.3309C16.545 2.91666 16.7239 2.98853 16.8675 3.13228C17.0113 3.27589 17.0832 3.45645 17.0832 3.67395V6.74291C17.0832 6.96027 17.0107 7.14075 16.8659 7.28437C16.721 7.42812 16.5416 7.49999 16.3275 7.49999H11.7938C11.5796 7.49999 11.4007 7.42812 11.2571 7.28437C11.1134 7.14075 11.0415 6.96027 11.0415 6.74291ZM2.9165 9.66666V3.66645C2.9165 3.45395 2.98893 3.27589 3.1338 3.13228C3.27866 2.98853 3.4581 2.91666 3.67213 2.91666H8.20588C8.42005 2.91666 8.59893 2.98853 8.74255 3.13228C8.8863 3.27603 8.95817 3.45416 8.95817 3.66666V9.66686C8.95817 9.87936 8.88574 10.0574 8.74088 10.201C8.59602 10.3448 8.41657 10.4167 8.20255 10.4167H3.6688C3.45463 10.4167 3.27574 10.3448 3.13213 10.201C2.98838 10.0573 2.9165 9.87916 2.9165 9.66666ZM11.0415 16.3333V10.3331C11.0415 10.1206 11.1139 9.94256 11.2588 9.79895C11.4037 9.6552 11.5831 9.58332 11.7971 9.58332H16.3309C16.545 9.58332 16.7239 9.6552 16.8675 9.79895C17.0113 9.9427 17.0832 10.1208 17.0832 10.3333V16.3335C17.0832 16.546 17.0107 16.7241 16.8659 16.8677C16.721 17.0114 16.5416 17.0833 16.3275 17.0833H11.7938C11.5796 17.0833 11.4007 17.0114 11.2571 16.8677C11.1134 16.7239 11.0415 16.5458 11.0415 16.3333ZM2.9165 16.326V13.2571C2.9165 13.0397 2.98893 12.8592 3.1338 12.7156C3.27866 12.5719 3.4581 12.5 3.67213 12.5H8.20588C8.42005 12.5 8.59893 12.5719 8.74255 12.7156C8.8863 12.8592 8.95817 13.0397 8.95817 13.2571V16.326C8.95817 16.5435 8.88574 16.7241 8.74088 16.8677C8.59602 17.0114 8.41657 17.0833 8.20255 17.0833H3.6688C3.45463 17.0833 3.27574 17.0114 3.13213 16.8677C2.98838 16.7241 2.9165 16.5435 2.9165 16.326ZM4.1665 9.16666H7.70817V4.16666H4.1665V9.16666ZM12.2915 15.8333H15.8332V10.8333H12.2915V15.8333ZM12.2915 6.24999H15.8332V4.16666H12.2915V6.24999ZM4.1665 15.8333H7.70817V13.75H4.1665V15.8333Z" fill="white"/>
</g>
</g>
</svg>
