<svg width="20" height="20" viewBox="0 0 20 20" fill="none" xmlns="http://www.w3.org/2000/svg">
    <mask id="mask0_1725_2188" style="mask-type:alpha" maskUnits="userSpaceOnUse" x="0" y="0" width="20" height="20">
        <rect width="20" height="20" fill="#D9D9D9"/>
    </mask>
    <g mask="url(#mask0_1725_2188)">
        <path d="M7.46146 9.46166L9.30938 7.60103L7.87021 6.14895L7.36854 6.65062C7.25313 6.76603 7.11021 6.82721 6.93979 6.83416C6.76951 6.8411 6.61972 6.77992 6.49042 6.65062C6.36111 6.52131 6.29646 6.37284 6.29646 6.2052C6.29646 6.03742 6.36111 5.88888 6.49042 5.75957L6.97917 5.27082L5.69708 3.98874L3.83646 5.84937L7.46146 9.46166ZM14.1427 16.1554L16.0031 14.2948L14.721 13.0127L14.2196 13.5017C14.0956 13.6255 13.9505 13.6888 13.7844 13.6915C13.6183 13.6941 13.4706 13.6308 13.3413 13.5017C13.2121 13.3724 13.1475 13.226 13.1475 13.0625C13.1475 12.899 13.2121 12.7526 13.3413 12.6233L13.8302 12.1219L12.3863 10.6906L10.5383 12.5385L14.1427 16.1554ZM13.2323 5.49041L14.5352 6.79332L15.8463 5.48228L14.5304 4.16666L13.2323 5.49041ZM3.67 17.0833C3.45514 17.0833 3.2759 17.0114 3.13229 16.8677C2.98854 16.7241 2.91667 16.5449 2.91667 16.33V14.3125C2.91667 14.2121 2.93486 14.1164 2.97125 14.0256C3.0075 13.9348 3.06465 13.8504 3.14271 13.7725L6.57063 10.3446L2.79 6.55603C2.59667 6.3627 2.5 6.12714 2.5 5.84937C2.5 5.57159 2.59667 5.33603 2.79 5.1427L4.99042 2.94228C5.18375 2.74895 5.41931 2.65443 5.69708 2.65874C5.97486 2.66291 6.21042 2.76173 6.40375 2.9552L10.2131 6.74353L13.6475 3.29645C13.7768 3.16714 13.9189 3.07152 14.0738 3.00957C14.2286 2.94763 14.3905 2.91666 14.5594 2.91666C14.7281 2.91666 14.8899 2.94763 15.0448 3.00957C15.1998 3.07152 15.3419 3.16714 15.471 3.29645L16.7035 4.56582C16.8328 4.69499 16.9271 4.83707 16.9863 4.99207C17.0456 5.14693 17.0752 5.30874 17.0752 5.47749C17.0752 5.64638 17.0456 5.80478 16.9863 5.9527C16.9271 6.10062 16.8328 6.23923 16.7035 6.36853L13.2852 9.8077L17.0577 13.5962C17.251 13.7896 17.3477 14.0251 17.3477 14.3029C17.3477 14.5807 17.251 14.8162 17.0577 15.0096L14.8573 17.21C14.664 17.4033 14.4284 17.5 14.1506 17.5C13.8728 17.5 13.6373 17.4033 13.444 17.21L9.65542 13.4294L6.2275 16.8573C6.14958 16.9353 6.06521 16.9925 5.97438 17.0287C5.88354 17.0651 5.78792 17.0833 5.6875 17.0833H3.67Z" fill="white"/>
    </g>
</svg>
