<svg width="20" height="20" viewBox="0 0 20 20" fill="none" xmlns="http://www.w3.org/2000/svg">
<g id="13_group">
<mask id="mask0_2710_1715" style="mask-type:alpha" maskUnits="userSpaceOnUse" x="0" y="0" width="20" height="20">
<rect id="Bounding box" width="20" height="20" fill="#D9D9D9"/>
</mask>
<g mask="url(#mask0_2710_1715)">
<path id="newsmode" d="M3.58983 17.0834C3.16886 17.0834 2.81254 16.9376 2.52087 16.6459C2.22921 16.3542 2.08337 15.9979 2.08337 15.577V4.42321C2.08337 4.00223 2.22921 3.64591 2.52087 3.35425C2.81254 3.06258 3.16886 2.91675 3.58983 2.91675H16.4102C16.8312 2.91675 17.1875 3.06258 17.4792 3.35425C17.7709 3.64591 17.9167 4.00223 17.9167 4.42321V15.577C17.9167 15.9979 17.7709 16.3542 17.4792 16.6459C17.1875 16.9376 16.8312 17.0834 16.4102 17.0834H3.58983ZM3.58983 15.8334H16.4102C16.4744 15.8334 16.5332 15.8067 16.5865 15.7532C16.64 15.6999 16.6667 15.6411 16.6667 15.577V4.42321C16.6667 4.35904 16.64 4.30029 16.5865 4.24696C16.5332 4.19348 16.4744 4.16675 16.4102 4.16675H3.58983C3.52567 4.16675 3.46692 4.19348 3.41358 4.24696C3.36011 4.30029 3.33337 4.35904 3.33337 4.42321V15.577C3.33337 15.6411 3.36011 15.6999 3.41358 15.7532C3.46692 15.8067 3.52567 15.8334 3.58983 15.8334ZM5.94567 13.8461H14.0544C14.2318 13.8461 14.3803 13.7863 14.5 13.6667C14.6196 13.547 14.6794 13.3985 14.6794 13.2211C14.6794 13.0439 14.6196 12.8954 14.5 12.7757C14.3803 12.6561 14.2318 12.5963 14.0544 12.5963H5.94567C5.7683 12.5963 5.61976 12.6561 5.50004 12.7757C5.38046 12.8954 5.32067 13.0439 5.32067 13.2211C5.32067 13.3985 5.38046 13.547 5.50004 13.6667C5.61976 13.7863 5.7683 13.8461 5.94567 13.8461ZM5.94567 10.6251H7.77254C7.9499 10.6251 8.09837 10.5652 8.21796 10.4455C8.33768 10.3259 8.39754 10.1774 8.39754 10.0001V6.77904C8.39754 6.60168 8.33768 6.45314 8.21796 6.33341C8.09837 6.21383 7.9499 6.15404 7.77254 6.15404H5.94567C5.7683 6.15404 5.61976 6.21383 5.50004 6.33341C5.38046 6.45314 5.32067 6.60168 5.32067 6.77904V10.0001C5.32067 10.1774 5.38046 10.3259 5.50004 10.4455C5.61976 10.5652 5.7683 10.6251 5.94567 10.6251ZM10.8494 10.6251H14.0544C14.2318 10.6251 14.3803 10.5652 14.5 10.4455C14.6196 10.3259 14.6794 10.1774 14.6794 10.0001C14.6794 9.82272 14.6196 9.67425 14.5 9.55467C14.3803 9.43494 14.2318 9.37508 14.0544 9.37508H10.8494C10.6721 9.37508 10.5236 9.43494 10.404 9.55467C10.2843 9.67425 10.2244 9.82272 10.2244 10.0001C10.2244 10.1774 10.2843 10.3259 10.404 10.4455C10.5236 10.5652 10.6721 10.6251 10.8494 10.6251ZM10.8494 7.40383H14.0544C14.2318 7.40383 14.3803 7.34404 14.5 7.22446C14.6196 7.10473 14.6794 6.95626 14.6794 6.77904C14.6794 6.60168 14.6196 6.45314 14.5 6.33341C14.3803 6.21383 14.2318 6.15404 14.0544 6.15404H10.8494C10.6721 6.15404 10.5236 6.21383 10.404 6.33341C10.2843 6.45314 10.2244 6.60168 10.2244 6.77904C10.2244 6.95626 10.2843 7.10473 10.404 7.22446C10.5236 7.34404 10.6721 7.40383 10.8494 7.40383Z" fill="white"/>
</g>
</g>
</svg>
