<svg width="16" height="16" viewBox="0 0 16 16" fill="none" xmlns="http://www.w3.org/2000/svg">
<g id="19_group">
<mask id="mask0_186_69318" style="mask-type:alpha" maskUnits="userSpaceOnUse" x="0" y="0" width="16" height="16">
<rect id="Bounding box" width="16" height="16" fill="#D9D9D9"/>
</mask>
<g mask="url(#mask0_186_69318)">
<path id="info" d="M8.00025 11.1666C8.14203 11.1666 8.26075 11.1187 8.35641 11.0228C8.45219 10.927 8.50008 10.8083 8.50008 10.6666V7.83329C8.50008 7.69163 8.45214 7.57285 8.35625 7.47696C8.26036 7.38118 8.14158 7.33329 7.99992 7.33329C7.85814 7.33329 7.73941 7.38118 7.64375 7.47696C7.54797 7.57285 7.50008 7.69163 7.50008 7.83329V10.6666C7.50008 10.8083 7.54803 10.927 7.64392 11.0228C7.7398 11.1187 7.85858 11.1666 8.00025 11.1666ZM8.00008 6.19229C8.15264 6.19229 8.28053 6.14068 8.38375 6.03746C8.48697 5.93424 8.53858 5.80635 8.53858 5.65379C8.53858 5.50124 8.48697 5.37335 8.38375 5.27013C8.28053 5.16702 8.15264 5.11546 8.00008 5.11546C7.84753 5.11546 7.71964 5.16702 7.61642 5.27013C7.51319 5.37335 7.46158 5.50124 7.46158 5.65379C7.46158 5.80635 7.51319 5.93424 7.61642 6.03746C7.71964 6.14068 7.84753 6.19229 8.00008 6.19229ZM8.00125 14.3333C7.12525 14.3333 6.30186 14.1671 5.53108 13.8346C4.7603 13.5022 4.08986 13.051 3.51975 12.4811C2.94964 11.9112 2.49825 11.2411 2.16558 10.4706C1.83303 9.70018 1.66675 8.87702 1.66675 8.00113C1.66675 7.12513 1.83297 6.30174 2.16541 5.53096C2.49786 4.76018 2.94903 4.08974 3.51891 3.51963C4.0888 2.94951 4.75897 2.49813 5.52941 2.16546C6.29986 1.8329 7.12303 1.66663 7.99891 1.66663C8.87492 1.66663 9.6983 1.83285 10.4691 2.16529C11.2399 2.49774 11.9103 2.9489 12.4804 3.51879C13.0505 4.08868 13.5019 4.75885 13.8346 5.52929C14.1671 6.29974 14.3334 7.1229 14.3334 7.99879C14.3334 8.87479 14.1672 9.69818 13.8347 10.469C13.5023 11.2397 13.0511 11.9102 12.4812 12.4803C11.9114 13.0504 11.2412 13.5018 10.4707 13.8345C9.7003 14.167 8.87714 14.3333 8.00125 14.3333ZM8.00008 13.3333C9.48897 13.3333 10.7501 12.8166 11.7834 11.7833C12.8167 10.75 13.3334 9.48885 13.3334 7.99996C13.3334 6.51107 12.8167 5.24996 11.7834 4.21663C10.7501 3.18329 9.48897 2.66663 8.00008 2.66663C6.51119 2.66663 5.25008 3.18329 4.21675 4.21663C3.18341 5.24996 2.66675 6.51107 2.66675 7.99996C2.66675 9.48885 3.18341 10.75 4.21675 11.7833C5.25008 12.8166 6.51119 13.3333 8.00008 13.3333Z" fill="#888888"/>
</g>
</g>
</svg>
