<svg width="16" height="16" viewBox="0 0 16 16" fill="none" xmlns="http://www.w3.org/2000/svg">
<g id="7916_group">
<mask id="mask0_2824_1351" style="mask-type:alpha" maskUnits="userSpaceOnUse" x="0" y="0" width="16" height="16">
<rect id="Bounding box" width="16" height="16" fill="#D9D9D9"/>
</mask>
<g mask="url(#mask0_2824_1351)">
<path id="assignment" d="M3.53854 13.6667C3.2071 13.6667 2.92337 13.5487 2.68737 13.3127C2.45137 13.0767 2.33337 12.7929 2.33337 12.4615V3.5385C2.33337 3.20706 2.45137 2.92333 2.68737 2.68733C2.92337 2.45133 3.2071 2.33333 3.53854 2.33333H6.50521C6.5471 1.96322 6.70865 1.6485 6.98987 1.38917C7.27099 1.12972 7.60876 1 8.00321 1C8.39765 1 8.73549 1.12972 9.01671 1.38917C9.29793 1.6485 9.45732 1.96322 9.49487 2.33333H12.4615C12.793 2.33333 13.0767 2.45133 13.3127 2.68733C13.5487 2.92333 13.6667 3.20706 13.6667 3.5385V12.4615C13.6667 12.7929 13.5487 13.0767 13.3127 13.3127C13.0767 13.5487 12.793 13.6667 12.4615 13.6667H3.53854ZM3.53854 12.6667H12.4615C12.5129 12.6667 12.5599 12.6453 12.6025 12.6025C12.6453 12.5598 12.6667 12.5128 12.6667 12.4615V3.5385C12.6667 3.48717 12.6453 3.44017 12.6025 3.3975C12.5599 3.35472 12.5129 3.33333 12.4615 3.33333H3.53854C3.48721 3.33333 3.44021 3.35472 3.39754 3.3975C3.35476 3.44017 3.33337 3.48717 3.33337 3.5385V12.4615C3.33337 12.5128 3.35476 12.5598 3.39754 12.6025C3.44021 12.6453 3.48721 12.6667 3.53854 12.6667ZM5.33337 11.0897H8.66671C8.80837 11.0897 8.9271 11.0417 9.02287 10.9458C9.11876 10.8501 9.16671 10.7313 9.16671 10.5895C9.16671 10.4478 9.11876 10.3291 9.02287 10.2333C8.9271 10.1377 8.80837 10.0898 8.66671 10.0898H5.33337C5.19171 10.0898 5.07299 10.1377 4.97721 10.2335C4.88132 10.3294 4.83337 10.4482 4.83337 10.59C4.83337 10.7317 4.88132 10.8504 4.97721 10.9462C5.07299 11.0418 5.19171 11.0897 5.33337 11.0897ZM5.33337 8.5H10.6667C10.8084 8.5 10.9271 8.45206 11.0229 8.35617C11.1188 8.26028 11.1667 8.1415 11.1667 7.99983C11.1667 7.85806 11.1188 7.73933 11.0229 7.64367C10.9271 7.54789 10.8084 7.5 10.6667 7.5H5.33337C5.19171 7.5 5.07299 7.54795 4.97721 7.64383C4.88132 7.73972 4.83337 7.8585 4.83337 8.00017C4.83337 8.14195 4.88132 8.26067 4.97721 8.35633C5.07299 8.45211 5.19171 8.5 5.33337 8.5ZM5.33337 5.91017H10.6667C10.8084 5.91017 10.9271 5.86228 11.0229 5.7665C11.1188 5.67061 11.1667 5.55178 11.1667 5.41C11.1667 5.26833 11.1188 5.14961 11.0229 5.05383C10.9271 4.95817 10.8084 4.91033 10.6667 4.91033H5.33337C5.19171 4.91033 5.07299 4.95828 4.97721 5.05417C4.88132 5.14994 4.83337 5.26872 4.83337 5.4105C4.83337 5.55217 4.88132 5.67089 4.97721 5.76667C5.07299 5.86233 5.19171 5.91017 5.33337 5.91017ZM8.00004 2.8975C8.14448 2.8975 8.26393 2.85028 8.35837 2.75583C8.45282 2.66139 8.50004 2.54194 8.50004 2.3975C8.50004 2.25306 8.45282 2.13361 8.35837 2.03917C8.26393 1.94472 8.14448 1.8975 8.00004 1.8975C7.8556 1.8975 7.73615 1.94472 7.64171 2.03917C7.54726 2.13361 7.50004 2.25306 7.50004 2.3975C7.50004 2.54194 7.54726 2.66139 7.64171 2.75583C7.73615 2.85028 7.8556 2.8975 8.00004 2.8975Z" fill="#888888"/>
</g>
</g>
</svg>
