<svg width="16" height="16" viewBox="0 0 16 16" fill="none" xmlns="http://www.w3.org/2000/svg">
<g id="7916_group">
<mask id="mask0_2824_1620" style="mask-type:alpha" maskUnits="userSpaceOnUse" x="0" y="0" width="16" height="16">
<rect id="Bounding box" width="16" height="16" fill="#D9D9D9"/>
</mask>
<g mask="url(#mask0_2824_1620)">
<path id="terminal" d="M2.87184 13C2.53506 13 2.25001 12.8833 2.01667 12.65C1.78334 12.4167 1.66667 12.1316 1.66667 11.7948V4.20517C1.66667 3.86839 1.78334 3.58333 2.01667 3.35C2.25001 3.11667 2.53506 3 2.87184 3H13.1282C13.465 3 13.75 3.11667 13.9833 3.35C14.2167 3.58333 14.3333 3.86839 14.3333 4.20517V11.7948C14.3333 12.1316 14.2167 12.4167 13.9833 12.65C13.75 12.8833 13.465 13 13.1282 13H2.87184ZM2.87184 12H13.1282C13.1795 12 13.2265 11.9786 13.2692 11.9358C13.312 11.8932 13.3333 11.8462 13.3333 11.7948V5.33333H2.66667V11.7948C2.66667 11.8462 2.68806 11.8932 2.73084 11.9358C2.77351 11.9786 2.82051 12 2.87184 12ZM6.02051 8.66667L4.6385 7.28467C4.53939 7.18544 4.49045 7.06833 4.49167 6.93333C4.49301 6.79833 4.54534 6.68122 4.64867 6.582C4.74789 6.48978 4.86501 6.443 5.00001 6.44167C5.13501 6.44044 5.25212 6.48939 5.35134 6.5885L7.00767 8.24483C7.12823 8.36539 7.18851 8.506 7.18851 8.66667C7.18851 8.82733 7.12823 8.96795 7.00767 9.0885L5.34484 10.7513C5.25251 10.8436 5.13823 10.8903 5.00201 10.8917C4.86567 10.8929 4.74789 10.8439 4.64867 10.7448C4.55645 10.6525 4.51034 10.5376 4.51034 10.4C4.51034 10.2624 4.55645 10.1475 4.64867 10.0552L6.02051 8.66667ZM8.66667 11.1667C8.52478 11.1667 8.40601 11.1188 8.31034 11.023C8.21456 10.9273 8.16667 10.8086 8.16667 10.6667C8.16667 10.5248 8.21456 10.406 8.31034 10.3103C8.40601 10.2146 8.52478 10.1667 8.66667 10.1667H11.3333C11.4752 10.1667 11.594 10.2146 11.6897 10.3103C11.7854 10.406 11.8333 10.5248 11.8333 10.6667C11.8333 10.8086 11.7854 10.9273 11.6897 11.023C11.594 11.1188 11.4752 11.1667 11.3333 11.1667H8.66667Z" fill="#888888"/>
</g>
</g>
</svg>
