<svg width="16" height="16" viewBox="0 0 16 16" fill="none" xmlns="http://www.w3.org/2000/svg">
    <mask id="mask0_2608_428" style="mask-type:alpha" maskUnits="userSpaceOnUse" x="0" y="0" width="16" height="16">
        <rect width="16" height="16" fill="#D9D9D9"/>
    </mask>
    <g mask="url(#mask0_2608_428)">
        <path d="M1.19873 11.3889C1.19873 11.0454 1.2874 10.7388 1.46473 10.4691C1.64206 10.1994 1.8789 9.98966 2.17523 9.83977C2.80879 9.52989 3.44584 9.29094 4.0864 9.12294C4.72706 8.95505 5.43112 8.87111 6.19856 8.87111C6.96612 8.87111 7.67018 8.95505 8.31073 9.12294C8.9514 9.29094 9.58851 9.52989 10.2221 9.83977C10.5184 9.98966 10.7552 10.1994 10.9326 10.4691C11.1099 10.7388 11.1986 11.0454 11.1986 11.3889V11.8583C11.1986 12.1266 11.1001 12.3625 10.9031 12.5659C10.7061 12.7694 10.467 12.8711 10.1857 12.8711H2.2114C1.93029 12.8711 1.69123 12.7726 1.49423 12.5756C1.29723 12.3785 1.19873 12.1394 1.19873 11.8583V11.3889ZM13.7884 12.8711H12.2742C12.358 12.7181 12.4219 12.5553 12.4659 12.3826C12.5099 12.2099 12.5319 12.0352 12.5319 11.8583V11.3069C12.5319 10.8694 12.4248 10.4523 12.2106 10.0558C11.9962 9.65933 11.6922 9.31916 11.2986 9.03527C11.7456 9.10194 12.17 9.20511 12.5717 9.34477C12.9734 9.48455 13.3567 9.64972 13.7217 9.84027C14.0662 10.0241 14.3322 10.2407 14.5197 10.4901C14.7073 10.7394 14.8011 11.0117 14.8011 11.3069V11.8583C14.8011 12.1394 14.7026 12.3785 14.5056 12.5756C14.3086 12.7726 14.0695 12.8711 13.7884 12.8711ZM6.19856 7.79411C5.5569 7.79411 5.00762 7.56566 4.55073 7.10877C4.09384 6.65177 3.8654 6.10244 3.8654 5.46077C3.8654 4.81911 4.09384 4.26983 4.55073 3.81294C5.00762 3.35594 5.5569 3.12744 6.19856 3.12744C6.84023 3.12744 7.38956 3.35594 7.84656 3.81294C8.30345 4.26983 8.5319 4.81911 8.5319 5.46077C8.5319 6.10244 8.30345 6.65177 7.84656 7.10877C7.38956 7.56566 6.84023 7.79411 6.19856 7.79411ZM11.9549 5.46077C11.9549 6.10244 11.7265 6.65177 11.2696 7.10877C10.8127 7.56566 10.2634 7.79411 9.62173 7.79411C9.54651 7.79411 9.45079 7.78555 9.33456 7.76844C9.21823 7.75133 9.12251 7.73255 9.0474 7.71211C9.31029 7.396 9.51234 7.04533 9.65356 6.66011C9.79467 6.27489 9.86523 5.87489 9.86523 5.46011C9.86523 5.04522 9.79323 4.64672 9.64923 4.26461C9.50523 3.88261 9.30462 3.53094 9.0474 3.20961C9.14306 3.17539 9.23879 3.15316 9.33456 3.14294C9.43023 3.13261 9.52595 3.12744 9.62173 3.12744C10.2634 3.12744 10.8127 3.35594 11.2696 3.81294C11.7265 4.26983 11.9549 4.81911 11.9549 5.46077ZM2.19856 11.8711H10.1986V11.3889C10.1986 11.2497 10.1637 11.1258 10.0941 11.0173C10.0245 10.9087 9.91406 10.8138 9.76273 10.7326C9.21406 10.4497 8.64912 10.2354 8.0679 10.0896C7.48668 9.94394 6.86356 9.87111 6.19856 9.87111C5.53368 9.87111 4.91062 9.94394 4.3294 10.0896C3.74817 10.2354 3.18323 10.4497 2.63456 10.7326C2.48323 10.8138 2.37273 10.9087 2.30306 11.0173C2.2334 11.1258 2.19856 11.2497 2.19856 11.3889V11.8711ZM6.19856 6.79411C6.56523 6.79411 6.87912 6.66355 7.14023 6.40244C7.40134 6.14133 7.5319 5.82744 7.5319 5.46077C7.5319 5.09411 7.40134 4.78022 7.14023 4.51911C6.87912 4.258 6.56523 4.12744 6.19856 4.12744C5.8319 4.12744 5.51801 4.258 5.2569 4.51911C4.99579 4.78022 4.86523 5.09411 4.86523 5.46077C4.86523 5.82744 4.99579 6.14133 5.2569 6.40244C5.51801 6.66355 5.8319 6.79411 6.19856 6.79411Z" fill="#888888"/>
    </g>
</svg>
