<svg width="16" height="16" viewBox="0 0 16 16" fill="none" xmlns="http://www.w3.org/2000/svg">
<g id="19_group">
<mask id="mask0_2582_895" style="mask-type:alpha" maskUnits="userSpaceOnUse" x="0" y="0" width="16" height="16">
<rect id="Bounding box" width="16" height="16" fill="#D9D9D9"/>
</mask>
<g mask="url(#mask0_2582_895)">
<path id="arrow_back" d="M4.91534 8.5L8.36151 11.9462C8.46062 12.0453 8.50956 12.1613 8.50834 12.2942C8.50701 12.4271 8.45468 12.5452 8.35134 12.6487C8.2479 12.7452 8.13079 12.7952 8.00001 12.7987C7.86923 12.8021 7.75212 12.7521 7.64868 12.6487L3.42184 8.42183C3.3594 8.35938 3.3154 8.29355 3.28984 8.22433C3.26418 8.15511 3.25134 8.08033 3.25134 8C3.25134 7.91966 3.26418 7.84488 3.28984 7.77566C3.3154 7.70644 3.3594 7.64061 3.42184 7.57816L7.64868 3.35133C7.74101 3.259 7.85534 3.21177 7.99168 3.20966C8.12801 3.20755 8.2479 3.25477 8.35134 3.35133C8.45468 3.45477 8.50634 3.57355 8.50634 3.70766C8.50634 3.84188 8.45468 3.96072 8.35134 4.06416L4.91534 7.5H12.5C12.6419 7.5 12.7607 7.54788 12.8563 7.64366C12.9521 7.73933 13 7.85811 13 8C13 8.14188 12.9521 8.26066 12.8563 8.35633C12.7607 8.45211 12.6419 8.5 12.5 8.5H4.91534Z" fill="#888888"/>
</g>
</g>
</svg>
