<svg width="16" height="16" viewBox="0 0 16 16" fill="none" xmlns="http://www.w3.org/2000/svg">
<g id="53_group">
<mask id="mask0_146_27056" style="mask-type:alpha" maskUnits="userSpaceOnUse" x="0" y="0" width="16" height="16">
<rect id="54_rectangle" width="16" height="16" fill="#333333"/>
</mask>
<g mask="url(#mask0_146_27056)">
<path id="55_vector" d="M8.00002 9.96667C7.91113 9.96667 7.8278 9.95278 7.75002 9.925C7.67224 9.89723 7.60002 9.85 7.53335 9.78334L4.45002 6.7C4.3278 6.57778 4.26946 6.425 4.27502 6.24167C4.28058 6.05834 4.34446 5.90556 4.46669 5.78334C4.58891 5.66112 4.74446 5.6 4.93335 5.6C5.12224 5.6 5.2778 5.66112 5.40002 5.78334L8.00002 8.38334L10.6167 5.76667C10.7389 5.64445 10.8917 5.58612 11.075 5.59167C11.2584 5.59723 11.4111 5.66112 11.5334 5.78334C11.6556 5.90556 11.7167 6.06112 11.7167 6.25C11.7167 6.43889 11.6556 6.59445 11.5334 6.71667L8.46669 9.78334C8.40002 9.85 8.3278 9.89723 8.25002 9.925C8.17224 9.95278 8.08891 9.96667 8.00002 9.96667Z" fill="#888888"/>
</g>
</g>
</svg>
