<svg width="14" height="14" viewBox="0 0 14 14" fill="none" xmlns="http://www.w3.org/2000/svg">
<g id="53_group">
<mask id="mask0_1898_17050" style="mask-type:alpha" maskUnits="userSpaceOnUse" x="0" y="0" width="14" height="14">
<rect id="Bounding box" width="14" height="14" fill="#D9D9D9"/>
</mask>
<g mask="url(#mask0_1898_17050)">
<path id="keyboard_arrow_down" d="M7.00002 8.56171C6.92973 8.56171 6.8643 8.55048 6.80373 8.52802C6.74316 8.50557 6.68556 8.46707 6.63092 8.41252L4.00927 5.79088C3.92858 5.71009 3.88726 5.60854 3.88531 5.48623C3.88347 5.36403 3.92479 5.26063 4.00927 5.17605C4.09385 5.09156 4.19633 5.04932 4.31669 5.04932C4.43705 5.04932 4.53952 5.09156 4.6241 5.17605L7.00002 7.55211L9.37594 5.17605C9.45673 5.09535 9.55828 5.05403 9.68058 5.05209C9.80279 5.05024 9.90619 5.09156 9.99077 5.17605C10.0753 5.26063 10.1175 5.3631 10.1175 5.48346C10.1175 5.60382 10.0753 5.7063 9.99077 5.79088L7.36913 8.41252C7.31449 8.46707 7.25688 8.50557 7.19631 8.52802C7.13574 8.55048 7.07031 8.56171 7.00002 8.56171Z" fill="white"/>
</g>
</g>
</svg>
