<svg width="24" height="24" viewBox="0 0 24 24" fill="none" xmlns="http://www.w3.org/2000/svg">
<mask id="mask0_5458_8261" style="mask-type:alpha" maskUnits="userSpaceOnUse" x="0" y="0" width="24" height="24">
<rect width="24" height="24" fill="#D9D9D9"/>
</mask>
<g mask="url(#mask0_5458_8261)">
<path d="M15.3501 13.6501C14.9116 13.2116 14.6924 12.6809 14.6924 12.0579C14.6924 11.4347 14.9116 10.9039 15.3501 10.4654C15.7886 10.027 16.3194 9.80788 16.9424 9.80788C17.5655 9.80788 18.0963 10.027 18.5346 10.4654C18.9731 10.9039 19.1924 11.4347 19.1924 12.0579C19.1924 12.6809 18.9731 13.2116 18.5346 13.6501C18.0963 14.0886 17.5655 14.3079 16.9424 14.3079C16.3194 14.3079 15.7886 14.0886 15.3501 13.6501ZM13.0964 19.3079C12.8387 19.3079 12.6236 19.2216 12.4511 19.0491C12.2786 18.8766 12.1924 18.6615 12.1924 18.4039V18.1579C12.1924 17.8027 12.2837 17.4767 12.4664 17.1799C12.6492 16.883 12.9066 16.6693 13.2386 16.5386C13.8258 16.295 14.4306 16.1122 15.0531 15.9904C15.6754 15.8687 16.3052 15.8079 16.9424 15.8079C17.5795 15.8079 18.2094 15.8687 18.8319 15.9904C19.4542 16.1122 20.059 16.295 20.6464 16.5386C20.9784 16.6693 21.2357 16.883 21.4184 17.1799C21.601 17.4767 21.6924 17.8027 21.6924 18.1579V18.4039C21.6924 18.6615 21.6062 18.8766 21.4339 19.0491C21.2614 19.2216 21.0463 19.3079 20.7886 19.3079H13.0964ZM7.33386 10.6664C6.64986 9.98255 6.30786 9.15788 6.30786 8.19238C6.30786 7.22705 6.64986 6.40238 7.33386 5.71838C8.01769 5.03438 8.84236 4.69238 9.80786 4.69238C10.7732 4.69238 11.5979 5.03438 12.2819 5.71838C12.9659 6.40238 13.3079 7.22705 13.3079 8.19238C13.3079 9.15788 12.9659 9.98255 12.2819 10.6664C11.5979 11.3504 10.7732 11.6924 9.80786 11.6924C8.84236 11.6924 8.01769 11.3504 7.33386 10.6664ZM2.30786 17.0846C2.30786 16.5821 2.43828 16.1222 2.69911 15.7049C2.96011 15.2875 3.31811 14.9731 3.77311 14.7616C4.71544 14.2873 5.69369 13.9264 6.70786 13.6789C7.72186 13.4315 8.75519 13.3079 9.80786 13.3079C10.2822 13.3079 10.7565 13.3419 11.2309 13.4099C11.7052 13.4777 12.1795 13.559 12.6539 13.6539L11.3481 14.9501C10.9571 15.3603 10.6026 15.7965 10.2846 16.2589C9.96678 16.7211 9.80786 17.2341 9.80786 17.7981V18.3981C9.80786 18.5725 9.83894 18.7375 9.90111 18.8934C9.96328 19.049 10.0617 19.1872 10.1964 19.3079H3.82711C3.40528 19.3079 3.04661 19.1601 2.75111 18.8646C2.45561 18.569 2.30786 18.2103 2.30786 17.7886V17.0846Z" fill="white"/>
</g>
</svg>
