<svg width="26" height="26" viewBox="0 0 26 26" fill="none" xmlns="http://www.w3.org/2000/svg">
<rect width="26" height="26" rx="13" fill="url(#paint0_linear_5676_29089)"/>
<mask id="mask0_5676_29089" style="mask-type:alpha" maskUnits="userSpaceOnUse" x="5" y="5" width="16" height="16">
<rect x="5" y="5" width="16" height="16" fill="#D9D9D9"/>
</mask>
<g mask="url(#mask0_5676_29089)">
<path d="M12.525 18.8083C12.3972 18.6806 12.3333 18.5222 12.3333 18.3333V13.6667H7.66667C7.47778 13.6667 7.31944 13.6028 7.19167 13.475C7.06389 13.3472 7 13.1889 7 13C7 12.8111 7.06389 12.6528 7.19167 12.525C7.31944 12.3972 7.47778 12.3333 7.66667 12.3333H12.3333V7.66667C12.3333 7.47778 12.3972 7.31944 12.525 7.19167C12.6528 7.06389 12.8111 7 13 7C13.1889 7 13.3472 7.06389 13.475 7.19167C13.6028 7.31944 13.6667 7.47778 13.6667 7.66667V12.3333H18.3333C18.5222 12.3333 18.6806 12.3972 18.8083 12.525C18.9361 12.6528 19 12.8111 19 13C19 13.1889 18.9361 13.3472 18.8083 13.475C18.6806 13.6028 18.5222 13.6667 18.3333 13.6667H13.6667V18.3333C13.6667 18.5222 13.6028 18.6806 13.475 18.8083C13.3472 18.9361 13.1889 19 13 19C12.8111 19 12.6528 18.9361 12.525 18.8083Z" fill="white"/>
</g>
<defs>
<linearGradient id="paint0_linear_5676_29089" x1="32.1077" y1="0.138336" x2="-0.138336" y2="32.1077" gradientUnits="userSpaceOnUse">
<stop stop-color="#B343CB"/>
<stop offset="1" stop-color="#7095EB"/>
</linearGradient>
</defs>
</svg>
