<svg width="20" height="20" viewBox="0 0 20 20" fill="none" xmlns="http://www.w3.org/2000/svg">
<g id="Frame">
<path id="Vector" d="M18.555 2.25926C18.6146 2.20158 18.6622 2.13259 18.6949 2.05632C18.7277 1.98005 18.7449 1.89803 18.7455 1.81505C18.7462 1.73206 18.7304 1.64977 18.6989 1.57297C18.6674 1.49618 18.621 1.42642 18.5623 1.36776C18.5036 1.30911 18.4338 1.26273 18.357 1.23134C18.2801 1.19995 18.1978 1.18418 18.1148 1.18494C18.0319 1.1857 17.9499 1.20298 17.8736 1.23577C17.7974 1.26856 17.7284 1.31621 17.6708 1.37593L16.0183 3.02843L14.365 1.37593C14.3078 1.31452 14.2388 1.26527 14.1621 1.23111C14.0854 1.19695 14.0027 1.17858 13.9187 1.1771C13.8348 1.17562 13.7515 1.19106 13.6736 1.22249C13.5958 1.25392 13.5251 1.30071 13.4658 1.36006C13.4064 1.41941 13.3596 1.4901 13.3282 1.56793C13.2968 1.64575 13.2813 1.72911 13.2828 1.81303C13.2843 1.89695 13.3027 1.97971 13.3368 2.05637C13.371 2.13304 13.4202 2.20204 13.4816 2.25926L15.1341 3.91176L13.4816 5.56509C13.3712 5.68357 13.3111 5.84028 13.314 6.00219C13.3169 6.16411 13.3824 6.3186 13.497 6.43311C13.6115 6.54762 13.766 6.61321 13.9279 6.61607C14.0898 6.61893 14.2465 6.55883 14.365 6.44843L16.0183 4.79593L17.6708 6.44843C17.7893 6.55883 17.946 6.61893 18.1079 6.61607C18.2698 6.61321 18.4243 6.54762 18.5388 6.43311C18.6533 6.3186 18.7189 6.16411 18.7218 6.00219C18.7246 5.84028 18.6645 5.68357 18.5541 5.56509L16.9016 3.91176L18.555 2.25926ZM3.95831 1.25009C4.62282 1.24962 5.26432 1.49347 5.76073 1.93524C6.25713 2.37701 6.5738 2.98587 6.65047 3.64595C6.72714 4.30603 6.55846 4.97125 6.17653 5.51505C5.7946 6.05884 5.22607 6.44324 4.57914 6.59509C4.58177 6.61889 4.58316 6.64281 4.58331 6.66676V13.3334C4.58316 13.3574 4.58177 13.3813 4.57914 13.4051C5.22607 13.5569 5.7946 13.9413 6.17653 14.4851C6.55846 15.0289 6.72714 15.6942 6.65047 16.3542C6.5738 17.0143 6.25713 17.6232 5.76073 18.0649C5.26432 18.5067 4.62282 18.7506 3.95831 18.7501C3.29379 18.7506 2.65229 18.5067 2.15589 18.0649C1.65948 17.6232 1.34281 17.0143 1.26614 16.3542C1.18947 15.6942 1.35815 15.0289 1.74008 14.4851C2.12202 13.9413 2.69054 13.5569 3.33747 13.4051C3.33484 13.3813 3.33345 13.3574 3.33331 13.3334V6.66676C3.33331 6.64259 3.33497 6.61926 3.33747 6.59509C2.69054 6.44324 2.12202 6.05884 1.74008 5.51505C1.35815 4.97125 1.18947 4.30603 1.26614 3.64595C1.34281 2.98587 1.65948 2.37701 2.15589 1.93524C2.65229 1.49347 3.29379 1.24962 3.95831 1.25009ZM13.3333 16.0418C13.3335 15.4321 13.5392 14.8403 13.9172 14.362C14.2953 13.8838 14.8235 13.5469 15.4166 13.4059V8.02093C15.4166 7.85517 15.4825 7.69619 15.5997 7.57898C15.7169 7.46177 15.8759 7.39593 16.0416 7.39593C16.2074 7.39593 16.3664 7.46177 16.4836 7.57898C16.6008 7.69619 16.6666 7.85517 16.6666 8.02093V13.4059C17.3104 13.5615 17.8748 13.9473 18.2535 14.4907C18.6321 15.034 18.7987 15.6971 18.7218 16.3549C18.6449 17.0127 18.3298 17.6195 17.836 18.0608C17.3422 18.5021 16.7039 18.7473 16.0416 18.7501C15.3233 18.7501 14.6345 18.4648 14.1266 17.9568C13.6186 17.4489 13.3333 16.7601 13.3333 16.0418ZM2.49997 3.95843C2.50003 4.14999 2.53781 4.33967 2.61117 4.51663C2.68453 4.6936 2.79203 4.85438 2.92753 4.9898C3.06302 5.12521 3.22386 5.23262 3.40087 5.30588C3.57787 5.37914 3.76757 5.41681 3.95914 5.41676C4.15071 5.4167 4.34038 5.37892 4.51735 5.30556C4.69431 5.2322 4.85509 5.1247 4.99051 4.98921C5.12593 4.85371 5.23333 4.69287 5.30659 4.51586C5.37985 4.33886 5.41753 4.14916 5.41747 3.95759C5.41736 3.57071 5.26357 3.19971 4.98992 2.92622C4.71627 2.65273 4.34519 2.49915 3.95831 2.49926C3.57142 2.49937 3.20043 2.65316 2.92694 2.92681C2.65345 3.20046 2.49986 3.57154 2.49997 3.95843ZM2.49997 16.0418C2.50003 16.2333 2.53781 16.423 2.61117 16.6C2.68453 16.7769 2.79203 16.9377 2.92753 17.0731C3.06302 17.2085 3.22386 17.316 3.40087 17.3892C3.57787 17.4625 3.76757 17.5001 3.95914 17.5001C4.15071 17.5 4.34038 17.4623 4.51735 17.3889C4.69431 17.3155 4.85509 17.208 4.99051 17.0725C5.12593 16.937 5.23333 16.7762 5.30659 16.5992C5.37985 16.4222 5.41753 16.2325 5.41747 16.0409C5.41736 15.654 5.26357 15.283 4.98992 15.0096C4.71627 14.7361 4.34519 14.5825 3.95831 14.5826C3.57142 14.5827 3.20043 14.7365 2.92694 15.0101C2.65345 15.2838 2.49986 15.6549 2.49997 16.0418ZM16.0416 14.5834C15.8501 14.5835 15.6604 14.6213 15.4834 14.6946C15.3065 14.768 15.1457 14.8755 15.0103 15.011C14.8749 15.1465 14.7674 15.3073 14.6942 15.4843C14.6209 15.6613 14.5833 15.851 14.5833 16.0426C14.5834 16.2342 14.6211 16.4238 14.6945 16.6008C14.7679 16.7778 14.8754 16.9385 15.0109 17.074C15.1464 17.2094 15.3072 17.3168 15.4842 17.39C15.6612 17.4633 15.8509 17.501 16.0425 17.5009C16.4294 17.5008 16.8004 17.347 17.0738 17.0734C17.3473 16.7997 17.5009 16.4286 17.5008 16.0418C17.5007 15.6549 17.3469 15.2839 17.0733 15.0104C16.7996 14.7369 16.4285 14.5833 16.0416 14.5834Z" fill="#B44646"/>
</g>
</svg>
