<svg width="20" height="20" viewBox="0 0 20 20" fill="none" xmlns="http://www.w3.org/2000/svg">
<g id="Frame">
<path id="Vector" d="M12.5002 11.0417C12.5002 10.3234 12.7855 9.6345 13.2934 9.12659C13.8013 8.61867 14.4902 8.33333 15.2085 8.33333C15.9268 8.33333 16.6157 8.61867 17.1236 9.12659C17.6315 9.6345 17.9168 10.3234 17.9168 11.0417C17.9168 11.76 17.6315 12.4488 17.1236 12.9567C16.6157 13.4647 15.9268 13.75 15.2085 13.75C14.4902 13.75 13.8013 13.4647 13.2934 12.9567C12.7855 12.4488 12.5002 11.76 12.5002 11.0417ZM2.0835 16.0417C2.0835 15.3234 2.36884 14.6345 2.87675 14.1266C3.38466 13.6187 4.07353 13.3333 4.79183 13.3333C5.51012 13.3333 6.199 13.6187 6.70691 14.1266C7.21482 14.6345 7.50016 15.3234 7.50016 16.0417C7.50016 16.76 7.21482 17.4488 6.70691 17.9567C6.199 18.4647 5.51012 18.75 4.79183 18.75C4.07353 18.75 3.38466 18.4647 2.87675 17.9567C2.36884 17.4488 2.0835 16.76 2.0835 16.0417ZM2.0835 3.95833C2.0835 3.24004 2.36884 2.55116 2.87675 2.04325C3.38466 1.53534 4.07353 1.25 4.79183 1.25C5.51012 1.25 6.199 1.53534 6.70691 2.04325C7.21482 2.55116 7.50016 3.24004 7.50016 3.95833C7.50016 4.67663 7.21482 5.3655 6.70691 5.87341C6.199 6.38133 5.51012 6.66667 4.79183 6.66667C4.07353 6.66667 3.38466 6.38133 2.87675 5.87341C2.36884 5.3655 2.0835 4.67663 2.0835 3.95833ZM4.79183 5.41667C5.17871 5.41656 5.54971 5.26276 5.8232 4.98911C6.09669 4.71547 6.25027 4.34438 6.25016 3.9575C6.25005 3.57062 6.09626 3.19962 5.82261 2.92613C5.54896 2.65264 5.17788 2.49906 4.791 2.49917C4.59943 2.49922 4.40975 2.53701 4.23279 2.61037C4.05583 2.68373 3.89504 2.79122 3.75963 2.92672C3.48614 3.20037 3.33255 3.57145 3.33266 3.95833C3.33277 4.34522 3.48657 4.71621 3.76022 4.9897C4.03386 5.26319 4.40494 5.41678 4.79183 5.41667ZM4.79183 17.5C4.9834 17.4999 5.17307 17.4622 5.35004 17.3888C5.527 17.3154 5.68778 17.2079 5.8232 17.0724C5.95862 16.937 6.06602 16.7761 6.13928 16.5991C6.21254 16.4221 6.25022 16.2324 6.25016 16.0408C6.25011 15.8493 6.21232 15.6596 6.13896 15.4826C6.0656 15.3057 5.95811 15.1449 5.82261 15.0095C5.68711 14.874 5.52627 14.7666 5.34927 14.6934C5.17226 14.6201 4.98256 14.5824 4.791 14.5825C4.40411 14.5826 4.03312 14.7364 3.75963 15.0101C3.48614 15.2837 3.33255 15.6548 3.33266 16.0417C3.33277 16.4286 3.48657 16.7995 3.76022 17.073C4.03386 17.3465 4.40494 17.5001 4.79183 17.5ZM15.2085 12.5C15.5954 12.4999 15.9664 12.3461 16.2399 12.0724C16.5134 11.7988 16.6669 11.4277 16.6668 11.0408C16.6667 10.6539 16.5129 10.283 16.2393 10.0095C15.9656 9.73597 15.5945 9.58239 15.2077 9.5825C15.0161 9.58255 14.8264 9.62034 14.6495 9.6937C14.4725 9.76706 14.3117 9.87456 14.1763 10.0101C14.0409 10.1455 13.9335 10.3064 13.8602 10.4834C13.787 10.6604 13.7493 10.8501 13.7493 11.0417C13.7494 11.2332 13.7872 11.4229 13.8605 11.5999C13.9339 11.7768 14.0414 11.9376 14.1769 12.073C14.3124 12.2085 14.4732 12.3159 14.6502 12.3891C14.8272 12.4624 15.0169 12.5001 15.2085 12.5Z" fill="#A05BD5"/>
<path id="Vector_2" d="M5.4165 6.04169C5.4165 8.45835 7.37484 10.4167 9.7915 10.4167H13.5415V11.6667H9.7915C8.29966 11.6667 6.86892 11.0741 5.81403 10.0192C4.75914 8.96427 4.1665 7.53353 4.1665 6.04169H5.4165Z" fill="#A05BD5"/>
<path id="Vector_3" d="M4.7915 13.9584C4.62574 13.9584 4.46677 13.8925 4.34956 13.7753C4.23235 13.6581 4.1665 13.4991 4.1665 13.3334V6.66669C4.1665 6.50093 4.23235 6.34196 4.34956 6.22475C4.46677 6.10753 4.62574 6.04169 4.7915 6.04169C4.95726 6.04169 5.11624 6.10753 5.23345 6.22475C5.35066 6.34196 5.4165 6.50093 5.4165 6.66669V13.3334C5.4165 13.4991 5.35066 13.6581 5.23345 13.7753C5.11624 13.8925 4.95726 13.9584 4.7915 13.9584Z" fill="#A05BD5"/>
</g>
</svg>
