<svg width="13" height="13" viewBox="0 0 13 13" fill="none" xmlns="http://www.w3.org/2000/svg">
<g id="octicon:git-pull-request-24" clip-path="url(#clip0_389_26338)">
<path id="Vector" d="M8.66667 10.4271C8.66667 9.96019 8.85214 9.51242 9.18228 9.18228C9.51242 8.85214 9.96019 8.66667 10.4271 8.66667C10.894 8.66667 11.3417 8.85214 11.6719 9.18228C12.002 9.51242 12.1875 9.96019 12.1875 10.4271C12.1875 10.894 12.002 11.3417 11.6719 11.6719C11.3417 12.002 10.894 12.1875 10.4271 12.1875C9.96019 12.1875 9.51242 12.002 9.18228 11.6719C8.85214 11.3417 8.66667 10.894 8.66667 10.4271ZM0.8125 10.4271C0.8125 9.96019 0.997972 9.51242 1.32811 9.18228C1.65826 8.85214 2.10603 8.66667 2.57292 8.66667C3.03981 8.66667 3.48758 8.85214 3.81772 9.18228C4.14786 9.51242 4.33333 9.96019 4.33333 10.4271C4.33333 10.894 4.14786 11.3417 3.81772 11.6719C3.48758 12.002 3.03981 12.1875 2.57292 12.1875C2.10603 12.1875 1.65826 12.002 1.32811 11.6719C0.997972 11.3417 0.8125 10.894 0.8125 10.4271ZM0.8125 2.57292C0.8125 2.10603 0.997972 1.65826 1.32811 1.32811C1.65826 0.997972 2.10603 0.8125 2.57292 0.8125C3.03981 0.8125 3.48758 0.997972 3.81772 1.32811C4.14786 1.65826 4.33333 2.10603 4.33333 2.57292C4.33333 3.03981 4.14786 3.48758 3.81772 3.81772C3.48758 4.14786 3.03981 4.33333 2.57292 4.33333C2.10603 4.33333 1.65826 4.14786 1.32811 3.81772C0.997972 3.48758 0.8125 3.03981 0.8125 2.57292ZM2.57292 1.625C2.4484 1.62504 2.32511 1.6496 2.21008 1.69728C2.09506 1.74496 1.99055 1.81484 1.90253 1.90291C1.8145 1.99098 1.74469 2.09553 1.69707 2.21058C1.64945 2.32564 1.62496 2.44894 1.625 2.57346C1.62504 2.69798 1.6496 2.82127 1.69728 2.93629C1.74496 3.05132 1.81484 3.15583 1.90291 3.24385C1.99098 3.33187 2.09553 3.40168 2.21058 3.4493C2.32564 3.49692 2.44894 3.52141 2.57346 3.52138C2.82493 3.5213 3.06608 3.42134 3.24385 3.24347C3.42162 3.0656 3.52145 2.82439 3.52138 2.57292C3.5213 2.32144 3.42134 2.0803 3.24347 1.90253C3.0656 1.72476 2.82439 1.62493 2.57292 1.625ZM2.57292 9.47917C2.32144 9.47924 2.0803 9.57921 1.90253 9.75708C1.72476 9.93495 1.62493 10.1762 1.625 10.4276C1.62507 10.6791 1.72504 10.9202 1.90291 11.098C2.08078 11.2758 2.32198 11.3756 2.57346 11.3755C2.69798 11.3755 2.82127 11.3509 2.93629 11.3033C3.05132 11.2556 3.15583 11.1857 3.24385 11.0976C3.33187 11.0096 3.40168 10.905 3.4493 10.79C3.49692 10.6749 3.52141 10.5516 3.52138 10.4271C3.52134 10.3026 3.49678 10.1793 3.4491 10.0642C3.40141 9.94922 3.33154 9.84472 3.24347 9.75669C3.15539 9.66867 3.05085 9.59886 2.93579 9.55124C2.82074 9.50362 2.69743 9.47913 2.57292 9.47917ZM10.4271 9.47917C10.3026 9.4792 10.1793 9.50376 10.0642 9.55145C9.94922 9.59913 9.84472 9.669 9.75669 9.75708C9.66867 9.84515 9.59886 9.9497 9.55124 10.0647C9.50362 10.1798 9.47913 10.3031 9.47917 10.4276C9.4792 10.5521 9.50376 10.6754 9.55145 10.7905C9.59913 10.9055 9.669 11.01 9.75708 11.098C9.84515 11.186 9.9497 11.2559 10.0647 11.3035C10.1798 11.3511 10.3031 11.3756 10.4276 11.3755C10.6791 11.3755 10.9202 11.2755 11.098 11.0976C11.2758 10.9198 11.3756 10.6786 11.3755 10.4271C11.3755 10.1756 11.2755 9.93446 11.0976 9.75669C10.9198 9.57892 10.6786 9.4791 10.4271 9.47917Z" fill="#888888"/>
<path id="Vector_2" d="M7.26088 0.931553C7.33696 1.00773 7.37969 1.11098 7.37969 1.21864C7.37969 1.32629 7.33696 1.42955 7.26088 1.50572L6.60005 2.16655H8.80192C9.34064 2.16655 9.8573 2.38056 10.2382 2.76149C10.6192 3.14243 10.8332 3.65908 10.8332 4.1978V8.93739C10.8332 9.04513 10.7904 9.14846 10.7142 9.22465C10.638 9.30084 10.5347 9.34364 10.4269 9.34364C10.3192 9.34364 10.2158 9.30084 10.1397 9.22465C10.0635 9.14846 10.0207 9.04513 10.0207 8.93739V4.1978C10.0207 3.87457 9.89227 3.56458 9.66371 3.33602C9.43515 3.10746 9.12515 2.97905 8.80192 2.97905H6.60059L7.26142 3.63989C7.33539 3.71654 7.37629 3.81918 7.37531 3.9257C7.37434 4.03221 7.33156 4.13409 7.25621 4.20937C7.18085 4.28466 7.07893 4.32734 6.97242 4.32821C6.8659 4.32909 6.7633 4.28809 6.68671 4.21405L5.33255 2.85989C5.25647 2.78371 5.21374 2.68046 5.21374 2.5728C5.21374 2.46515 5.25647 2.36189 5.33255 2.28572L6.68671 0.931553C6.76288 0.855476 6.86614 0.812744 6.9738 0.812744C7.08145 0.812744 7.18471 0.855476 7.26088 0.931553ZM2.57275 3.92697C2.6805 3.92697 2.78383 3.96977 2.86002 4.04596C2.9362 4.12214 2.979 4.22548 2.979 4.33322V8.66655C2.979 8.7743 2.9362 8.87763 2.86002 8.95382C2.78383 9.03 2.6805 9.0728 2.57275 9.0728C2.46501 9.0728 2.36168 9.03 2.28549 8.95382C2.20931 8.87763 2.1665 8.7743 2.1665 8.66655V4.33322C2.1665 4.22548 2.20931 4.12214 2.28549 4.04596C2.36168 3.96977 2.46501 3.92697 2.57275 3.92697Z" fill="#888888"/>
</g>
<defs>
<clipPath id="clip0_389_26338">
<rect width="13" height="13" fill="white"/>
</clipPath>
</defs>
</svg>
