<svg width="20" height="20" viewBox="0 0 20 20" fill="none" xmlns="http://www.w3.org/2000/svg">
<g id="octicon:git-pull-request-draft-24">
<path id="Vector" d="M3.95831 1.25C4.62282 1.24953 5.26432 1.49338 5.76073 1.93515C6.25713 2.37692 6.5738 2.98578 6.65047 3.64586C6.72714 4.30593 6.55846 4.97116 6.17653 5.51495C5.7946 6.05875 5.22607 6.44314 4.57914 6.595L4.58331 6.66667V13.3333L4.57914 13.405C5.22607 13.5569 5.7946 13.9413 6.17653 14.485C6.55846 15.0288 6.72714 15.6941 6.65047 16.3541C6.5738 17.0142 6.25713 17.6231 5.76073 18.0648C5.26432 18.5066 4.62282 18.7505 3.95831 18.75C3.29379 18.7505 2.65229 18.5066 2.15588 18.0648C1.65948 17.6231 1.34281 17.0142 1.26614 16.3541C1.18947 15.6941 1.35815 15.0288 1.74008 14.485C2.12202 13.9413 2.69054 13.5569 3.33747 13.405L3.33331 13.3333V6.66667C3.33331 6.64278 3.33469 6.61889 3.33747 6.595C2.69054 6.44314 2.12202 6.05875 1.74008 5.51495C1.35815 4.97116 1.18947 4.30593 1.26614 3.64586C1.34281 2.98578 1.65948 2.37692 2.15588 1.93515C2.65229 1.49338 3.29379 1.24953 3.95831 1.25ZM13.3333 16.0417C13.3333 15.3234 13.6186 14.6345 14.1266 14.1266C14.6345 13.6187 15.3233 13.3333 16.0416 13.3333C16.7599 13.3333 17.4488 13.6187 17.9567 14.1266C18.4646 14.6345 18.75 15.3234 18.75 16.0417C18.75 16.76 18.4646 17.4488 17.9567 17.9567C17.4488 18.4647 16.7599 18.75 16.0416 18.75C15.3233 18.75 14.6345 18.4647 14.1266 17.9567C13.6186 17.4488 13.3333 16.76 13.3333 16.0417ZM2.49997 3.95833C2.50003 4.1499 2.53781 4.33958 2.61117 4.51654C2.68453 4.6935 2.79203 4.85429 2.92753 4.9897C3.06302 5.12512 3.22386 5.23253 3.40087 5.30579C3.57787 5.37905 3.76757 5.41672 3.95914 5.41667C4.1507 5.41661 4.34038 5.37883 4.51735 5.30547C4.69431 5.23211 4.85509 5.12461 4.99051 4.98912C5.12593 4.85362 5.23333 4.69278 5.30659 4.51577C5.37985 4.33877 5.41753 4.14907 5.41747 3.9575C5.41736 3.57062 5.26357 3.19962 4.98992 2.92613C4.71627 2.65264 4.34519 2.49906 3.95831 2.49917C3.57142 2.49928 3.20043 2.65307 2.92694 2.92672C2.65345 3.20037 2.49986 3.57145 2.49997 3.95833ZM2.49997 16.0417C2.50003 16.2332 2.53781 16.4229 2.61117 16.5999C2.68453 16.7768 2.79203 16.9376 2.92753 17.073C3.06302 17.2085 3.22386 17.3159 3.40087 17.3891C3.57787 17.4624 3.76757 17.5001 3.95914 17.5C4.1507 17.4999 4.34038 17.4622 4.51735 17.3888C4.69431 17.3154 4.85509 17.2079 4.99051 17.0724C5.12593 16.937 5.23333 16.7761 5.30659 16.5991C5.37985 16.4221 5.41753 16.2324 5.41747 16.0408C5.41736 15.6539 5.26357 15.283 4.98992 15.0095C4.71627 14.736 4.34519 14.5824 3.95831 14.5825C3.57142 14.5826 3.20043 14.7364 2.92694 15.0101C2.65345 15.2837 2.49986 15.6548 2.49997 16.0417ZM16.0416 14.5833C15.8501 14.5834 15.6604 14.6212 15.4834 14.6945C15.3065 14.7679 15.1457 14.8754 15.0103 15.0109C14.8749 15.1464 14.7674 15.3072 14.6942 15.4842C14.6209 15.6612 14.5833 15.8509 14.5833 16.0425C14.5834 16.2341 14.6211 16.4237 14.6945 16.6007C14.7679 16.7777 14.8754 16.9385 15.0109 17.0739C15.1464 17.2093 15.3072 17.3167 15.4842 17.39C15.6612 17.4632 15.8509 17.5009 16.0425 17.5008C16.4294 17.5007 16.8004 17.3469 17.0738 17.0733C17.3473 16.7996 17.5009 16.4286 17.5008 16.0417C17.5007 15.6548 17.3469 15.2838 17.0733 15.0103C16.7996 14.7368 16.4285 14.5832 16.0416 14.5833ZM16.0416 5C16.4284 5 16.7993 4.84636 17.0728 4.57286C17.3463 4.29937 17.5 3.92844 17.5 3.54167C17.5 3.15489 17.3463 2.78396 17.0728 2.51047C16.7993 2.23698 16.4284 2.08333 16.0416 2.08333C15.6549 2.08333 15.2839 2.23698 15.0104 2.51047C14.737 2.78396 14.5833 3.15489 14.5833 3.54167C14.5833 3.92844 14.737 4.29937 15.0104 4.57286C15.2839 4.84636 15.6549 5 16.0416 5ZM17.5 9.375C17.5 9.76178 17.3463 10.1327 17.0728 10.4062C16.7993 10.6797 16.4284 10.8333 16.0416 10.8333C15.6549 10.8333 15.2839 10.6797 15.0104 10.4062C14.737 10.1327 14.5833 9.76178 14.5833 9.375C14.5833 8.98823 14.737 8.61729 15.0104 8.3438C15.2839 8.07031 15.6549 7.91667 16.0416 7.91667C16.4284 7.91667 16.7993 8.07031 17.0728 8.3438C17.3463 8.61729 17.5 8.98823 17.5 9.375Z" fill="#888888"/>
</g>
</svg>
