<svg width="16" height="16" viewBox="0 0 16 16" fill="none" xmlns="http://www.w3.org/2000/svg">
<g id="19_group">
<mask id="mask0_538_2801" style="mask-type:alpha" maskUnits="userSpaceOnUse" x="0" y="0" width="16" height="16">
<rect id="Bounding box" x="16" width="16" height="16" transform="rotate(90 16 0)" fill="#D9D9D9"/>
</mask>
<g mask="url(#mask0_538_2801)">
<path id="chevron_right" d="M8.00015 8.63084L10.7155 5.91534C10.8078 5.82312 10.9239 5.7759 11.0637 5.77367C11.2033 5.77156 11.3215 5.81879 11.4182 5.91534C11.5147 6.01201 11.563 6.12912 11.563 6.26667C11.563 6.40423 11.5147 6.52134 11.4182 6.61801L8.42199 9.61417C8.35954 9.67651 8.29371 9.72051 8.22449 9.74617C8.15527 9.77184 8.08049 9.78467 8.00015 9.78467C7.91982 9.78467 7.84504 9.77184 7.77582 9.74617C7.7066 9.72051 7.64077 9.67651 7.57832 9.61417L4.58215 6.61801C4.48993 6.52567 4.44271 6.40962 4.44049 6.26984C4.43838 6.13017 4.4856 6.01201 4.58215 5.91534C4.67882 5.81879 4.79593 5.77051 4.93349 5.77051C5.07104 5.77051 5.18815 5.81879 5.28482 5.91534L8.00015 8.63084Z" fill="#888888"/>
</g>
</g>
</svg>
