<svg width="16" height="17" viewBox="0 0 16 17" fill="none" xmlns="http://www.w3.org/2000/svg">
<g id="19_group">
<mask id="mask0_186_69725" style="mask-type:alpha" maskUnits="userSpaceOnUse" x="0" y="0" width="16" height="17">
<rect id="Bounding box" width="16" height="16" transform="matrix(-1 0 0 1 16 0.5)" fill="#D9D9D9"/>
</mask>
<g mask="url(#mask0_186_69725)">
<path id="arrow_forward_ios" d="M6.11291 8.50004L11.1347 3.47821C11.2672 3.34576 11.3317 3.1881 11.3282 3.00521C11.3248 2.82232 11.2568 2.6646 11.1244 2.53204C10.992 2.3996 10.8343 2.33337 10.6514 2.33337C10.4685 2.33337 10.3108 2.3996 10.1782 2.53204L5.07441 7.64621C4.95396 7.76676 4.86468 7.90182 4.80657 8.05137C4.74835 8.20093 4.71924 8.35049 4.71924 8.50004C4.71924 8.6496 4.74835 8.79915 4.80657 8.94871C4.86468 9.09826 4.95396 9.23332 5.07441 9.35387L10.1886 14.468C10.321 14.6005 10.477 14.665 10.6564 14.6615C10.836 14.6581 10.992 14.5902 11.1244 14.4577C11.2568 14.3253 11.3231 14.1676 11.3231 13.9847C11.3231 13.8018 11.2568 13.6441 11.1244 13.5115L6.11291 8.50004Z" fill="#888888"/>
</g>
</g>
</svg>
